<?xml version="1.0" standalone="no"?><!DOCTYPE svg PUBLIC "-//W3C//DTD SVG 1.1//EN" "http://www.w3.org/Graphics/SVG/1.1/DTD/svg11.dtd"><svg t="1548770972541" class="icon" style="" viewBox="0 0 1024 1024" version="1.1" xmlns="http://www.w3.org/2000/svg" p-id="16155" xmlns:xlink="http://www.w3.org/1999/xlink" width="64" height="64"><defs><style type="text/css"></style></defs><path fill="#055eb0" d="M938.666667 955.733333H170.666667c-27.904 0-52.343467-10.308267-72.6528-30.600533C78.267733 905.403733 68.266667 881.2544 68.266667 853.333333V173.226667 170.666667c0-27.8016 9.949867-52.1728 29.5424-72.448C118.493867 78.216533 142.865067 68.266667 170.666667 68.266667h768a17.066667 17.066667 0 1 1 0 34.133333h-68.266667v136.533333h68.266667a17.066667 17.066667 0 0 1 17.066666 17.066667v682.666667a17.066667 17.066667 0 0 1-17.066666 17.066666zM102.4 246.647467V853.333333c0 18.7904 6.4512 34.389333 19.746133 47.6672C136.021333 914.858667 151.876267 921.6 170.666667 921.6h750.933333V273.066667H170.666667c-25.924267 0-48.861867-8.891733-68.266667-26.4192zM170.666667 102.4c-18.8928 0-34.850133 6.519467-48.708267 19.950933C108.919467 135.816533 102.4 151.773867 102.4 170.666667v2.56c0.443733 17.373867 6.912 32.273067 19.746133 45.1072C136.021333 232.192 151.876267 238.933333 170.666667 238.933333h665.6v-51.2H170.666667a17.066667 17.066667 0 0 1 0-34.133333h665.6V102.4H170.666667z" p-id="16156"></path><path fill="#055eb0" d="M768 870.4H597.333333a17.066667 17.066667 0 1 1 0-34.133333h170.666667a17.066667 17.066667 0 1 1 0 34.133333z m-341.333333 0H256a17.066667 17.066667 0 1 1 0-34.133333h73.045333l53.282134-159.010134v-0.034133l113.476266-341.265067a17.066667 17.066667 0 1 1 32.392534 10.769067L422.161067 665.6H626.346667a17.066667 17.066667 0 1 1 0 34.133333H410.794667l-45.738667 136.533334H426.666667a17.066667 17.066667 0 1 1 0 34.133333z" p-id="16157"></path><path fill="#055eb0" d="M656.213333 806.417067a34.133333 34.133333 0 0 1-32.375466-23.3472l-144.196267-430.8992a34.133333 34.133333 0 0 1 64.733867-21.691734l144.2304 430.967467a34.133333 34.133333 0 0 1-21.589334 43.178667 33.28 33.28 0 0 1-10.8032 1.792z" p-id="16158"></path><path fill="#055eb0" d="M688.657067 761.7024l26.453333 81.066667-64.904533 21.162666-26.453334-81.0496z" p-id="16159"></path></svg>