<?xml version="1.0" standalone="no"?><!DOCTYPE svg PUBLIC "-//W3C//DTD SVG 1.1//EN" "http://www.w3.org/Graphics/SVG/1.1/DTD/svg11.dtd"><svg t="1549509341811" class="icon" style="" viewBox="0 0 1024 1024" version="1.1" xmlns="http://www.w3.org/2000/svg" p-id="1098" xmlns:xlink="http://www.w3.org/1999/xlink" width="200" height="200"><defs><style type="text/css"></style></defs><path d="M512 0C229.216 0 0 229.216 0 512c0 282.768 229.216 512 512 512 282.752 0 512-229.232 512-512C1024 229.216 794.752 0 512 0zM512 992C246.896 992 32 777.088 32 512 32 246.896 246.896 32 512 32c265.072 0 480 214.896 480 480C992 777.088 777.072 992 512 992z" p-id="1099"></path><path d="M534.624 512l203.664-203.648c6.24-6.256 6.24-16.384 0-22.624-6.256-6.24-16.384-6.256-22.64 0L512 489.36 308.352 285.728c-6.256-6.256-16.368-6.256-22.624 0s-6.256 16.368 0 22.624L489.36 512 285.728 715.648c-6.256 6.272-6.24 16.384 0 22.64 6.24 6.24 16.368 6.256 22.624 0L512 534.624l203.648 203.664c6.272 6.256 16.384 6.24 22.64 0 6.24-6.256 6.256-16.368 0-22.64L534.624 512z" p-id="1100"></path></svg>