<?xml version="1.0" standalone="no"?><!DOCTYPE svg PUBLIC "-//W3C//DTD SVG 1.1//EN" "http://www.w3.org/Graphics/SVG/1.1/DTD/svg11.dtd"><svg t="1548754152390" class="icon" style="" viewBox="0 0 1024 1024" version="1.1" xmlns="http://www.w3.org/2000/svg" p-id="2206" xmlns:xlink="http://www.w3.org/1999/xlink" width="48" height="48"><defs><style type="text/css"></style></defs><path d="M857.82 539.49c18.91 1.42 100.42 12.27-14.2-50.8 0 0 55.83-10.46 68.43-39.65 0 0-42.92 16.3-54.11 8.5s34.22-19.83 40.22-24.26-2.41-9.08-33.55-5.32 8.1-12.31 20.71-23.42-10.14-2.7-10.14-2.7 22.81-13.21-10-12.3-53.21 5.12-5.56-24.39-17-17.78-35.66-15.52-81.63 34.92-22.6-37.37c19.88-24.84 10-28.67-18.16-13.27s-59.87 70.86-40-8.24-28.12 46.76-60 44.29c-28.58 21.33-55.44 58.79-59.79 66.07S554.68 460 553.33 456c-0.43-1.25-5.45 3.55-11.87 11.32 24.8-49.45 64.87-127.82 78.94-146.68 3.64-6 11.05-42.8 24.86-49.13s5-16.22-15.54-1.73 27.85-19.44 12.21-53.16c0 0-60.37 76.11-12.14-13.41 7.19-17.55 42.7-91.71-52.71-2.19 0 0 7.32-56.33-16.56-77.33 0 0 2.24 45.86-8.63 54.08s-8.28-38.67-10.64-45.77-9.38-0.52-15.43 30.26-9.2-11.51-15.87-26.93-5.7 8.8-5.7 8.8-5.52-25.77-14.79 5.7-11.57 52.17-24.91-2.23-22.15 10.64-25.78 29.11 8 88.44-42.52 9.95c-17.49-26.58-24.17-18.41-18.24 13.18s48.89 78.83-20.2 35.49 35.78 41.21 23.58 70.78c11.45 33.77 38.77 70.89 44.35 77.28s34.75 83.54 30.54 83.6c-1.32 0 1.71 6.28 7.1 14.79-39.38-38.87-101.51-101.19-115.1-120.4-4.55-5.32-37.3-23.74-39-38.83s-13.9-9.72-6.44 14.24-9.89-32.5-46.79-28c0 0 53.74 80.93-16.5 7.41-14.47-12.27-74-69-18.37 49.44 0 0-51.32-24.36-78.67-8.14 0 0 44.31 12 48.77 24.92s-39.33-4.07-46.79-4-3.39 8.76 24 24-13.79 5.19-30.51 6.78 6.61 8.13 6.61 8.13-26.23-2.71 0.84 15.83 46.06 27.13-9.83 23 3.27 24.35 19.72 33.51 86.57 19.73-3.68 43.52c-30.69 8.41-25 17.29 6.89 21.41s90.09-22.14 27.52 30.18 50.24-21.3 74.6-0.55c35.66-0.45 79.4-15 87.2-18.3s90.19-7.23 88.95-3.22c-0.39 1.26 6.49 0.33 16.25-2.18-49.13 25.43-127.6 65.28-150.07 72.26-6.46 2.69-34.1 28.14-49 25.14s-13.54 10.22 11.56 10.53-34-0.64-41.12 35.84c0 0 93.57-26.1 1.94 18-16.14 10-88.46 49.09 41.35 32.75 0 0-39 41.27-32.06 72.3 0 0 25.14-38.42 38.78-38.68s-16 36.15-18.28 43.26 7.28 5.93 30.26-15.42 0.68 14.72-3 31.12 9.78-3.77 9.78-3.77-10.68 24.1 15.31 4.08 40-35.41 18.84 16.47 24.17 4.41 38-8.4 45.52-76.24 40.25 16.94c-1.47 31.79 8.73 29.1 22.5 0.07s6.78-92.52 37.21-16.85-4.73-54.37 22.52-71.12c10.59-34 10.3-80.14 9.54-88.59s21-88 24.43-85.59c1.08 0.76 2.32-6.07 3-16.13 9 54.58 22.64 141.53 22.34 165.06 0.56 7 16.22 41.13 8.77 54.36s5.53 16 13.58-7.73-11.1 32.1 21.38 50.18c0 0 4.1-97.06 17.7 3.72 4.49 18.42 19.36 99.29 43.93-29.21 0 0 27.19 49.87 58.85 52.83 0 0-28.76-35.79-24.8-48.83s29.42 26.41 35.49 30.75 7.89-5.09-5.31-33.55 14.21 3.9 28.68 12.46-0.57-10.47-0.57-10.47 19.62 17.6 8.62-13.3-21.32-49 21.47-12.83 11.67-21.63 3.75-38.7-58.44-66.85 28.55-33c29.77 11.23 30.37 0.7 7-21.38s-85.89-35-4.52-40.59-53.17-12.3-60.68-43.39c-29.11-20.6-73-34.56-81.3-36.45s-77.22-47.17-73.85-49.69c1.06-0.79-5.07-4.08-14.43-7.79C634 545.4 721 559.29 743.23 566.84c6.8 1.63 44.13-2.71 54.42 8.46s17-0.3-3.16-15.3 27.1 20.47 54.33-4.83c0 0-91.04-33.89 9-15.68z" fill="#EA4772" p-id="2207"></path><path d="M553.33 681.21c-4.22 0-6.39-7.94-8.42-16.8l-0.41-1.74c-1.39-10.23-2.42-14.72-3.07-16.69a101 101 0 0 0-1.55 14.88l-0.09 2.25-2-1.09c-5.55-3.08-8.53-8.85-8.92-17.2-1.36 2.29-2.92 3.68-4.44 3.89a2.35 2.35 0 0 1-2.34-1c-0.81-1.2-0.6-3.06 0.62-5.23 2-3.45-0.81-11.89-2.46-16.92a28.84 28.84 0 0 1-1.36-4.89c0.12-8.88-4.53-39.35-8-61a2.11 2.11 0 0 1-0.37 0.22l-0.16 0.08c-2.13 3.79-9.61 31-9.32 34.11 0.37 4.16 0.32 23.33-4 37.35l-0.16 0.5-0.44 0.27c-5.09 3.13-4.08 19.12-3.48 28.68 0.51 8 0.66 10.36-1.27 10.8-1.57 0.4-2.56-0.46-6.63-10.59-5-12.44-6.87-13.86-7.33-14-0.57 0.53-1.41 4.85-2 8-0.84 4.36-1.79 9.31-3.58 13.08-4.73 10-7.42 10.6-9 10.19-2.36-0.59-3.26-3.94-2.95-10.87 1-17.33-1.37-19.09-1.85-19.27-1.71-0.64-5.94 5.06-8.23 8.1a44.66 44.66 0 0 1-4.33 5.21c-0.61 0.57-1.36 1.3-2.23 2.13-9.38 9-14.28 13-17 11.16-1.9-1.29-1.55-4.57 1.22-11.34 3.36-8.24 4.15-11.38 4.21-12.57a50.73 50.73 0 0 0-6.54 4.72c-1.05 0.83-2.18 1.72-3.36 2.63-4.41 3.4-7 4.29-8.52 3.07a2.45 2.45 0 0 1-0.78-1.09c-1.37 1.2-2.06 0.91-2.5 0.71-1.63-0.69-1.11-3-0.83-4.23a55.91 55.91 0 0 1 3.17-8.53c0.59-1.37 1.31-3 1.78-4.33-0.39 0.32-0.85 0.73-1.42 1.25q-10.82 10.05-14.06 8c-0.43-0.27-1.4-1.13-0.79-3.07a32.59 32.59 0 0 1 3.26-5.49c1.84-2.81 6.17-9.39 5.75-10.86-3.65 0.25-11.16 9.7-15 15.63l-1.8 2.74-0.72-3.2c-2.33-10.42 6.73-23 11.27-28.54-24.09 2.78-28.42 0.35-29.39-2.42-1.38-4 5.52-8.57 13.34-13.25l1.54-0.93c9.32-4.49 13.26-6.87 14.94-8.08a98.73 98.73 0 0 0-14.63 3.12l-2.17 0.61 0.43-2.21c1.22-6.21 5.79-10.83 13.6-13.78-2.61-0.6-4.41-1.65-5.07-3a2.38 2.38 0 0 1 0.23-2.54c0.89-1.15 2.75-1.51 5.16-1 4 0.82 11.05-4.44 15.33-7.56a28.51 28.51 0 0 1 4.23-2.8c8.45-2.63 36-16.48 55.5-26.49a1.59 1.59 0 0 1-0.33-0.29l-0.12-0.13c-4.3-0.83-32.41 0.43-35.32 1.67-3.85 1.65-22.1 7.54-36.77 7.72h-0.53l-0.4-0.34c-4.51-3.88-19.43 2-28.34 5.56-7.38 2.92-9.65 3.85-10.67 2.12-0.82-1.38-0.35-2.57 8-9.57 10.29-8.61 11.06-10.83 11.05-11.3-0.68-0.4-5.05 0.16-8.23 0.56-4.4 0.55-9.4 1.17-13.54 0.64-10.94-1.42-12.36-3.8-12.48-5.46-0.18-2.42 2.73-4.32 9.43-6.16 16.78-4.42 17.72-7.2 17.74-7.71 0.07-1.75-6.64-4.08-10.24-5.33a47.58 47.58 0 0 1-6.28-2.49L354.1 508c-11.48-6.12-16.77-9.58-15.87-12.7 0.63-2.21 3.86-2.89 11.17-2.35 8.86 0.66 12.11 0.42 13.24 0.11a51.21 51.21 0 0 0-6.5-4.76c-1.12-0.74-2.31-1.53-3.55-2.38-4.58-3.14-6.23-5.28-5.55-7.16a2.32 2.32 0 0 1 0.8-1.07c-1.57-0.94-1.5-1.69-1.45-2.17 0.15-1.75 2.5-2 3.76-2.09a53.35 53.35 0 0 1 9.08 0.38c1.49 0.14 3.3 0.3 4.68 0.36-0.42-0.27-1-0.59-1.63-1-8.58-4.78-12.61-8.44-12-10.89 0.13-0.5 0.65-1.68 2.68-1.69a32.15 32.15 0 0 1 6.23 1.39c3.22 0.88 10.79 3 12.09 2.12-1.36-3.4-12.67-7.62-19.52-9.48l-3.17-0.86 2.83-1.67c9.2-5.46 24-0.73 30.63 1.89C372 432 373 427.13 375.3 425.36c3.34-2.59 9.84 2.59 16.73 8.58l1.36 1.19c7.15 7.47 10.62 10.48 12.3 11.7a98.54 98.54 0 0 0-7.49-12.95L397 432l2.24-0.27c6.2-0.75 12.07 2.15 17.31 8.68-0.25-2.66 0.2-4.7 1.3-5.75a2.37 2.37 0 0 1 2.49-0.57c1.36 0.49 2.28 2.12 2.56 4.59 0.46 3.93 7.65 9.13 11.93 12.24a27.94 27.94 0 0 1 4 3.15c5.1 7.2 26.79 29.15 42.35 44.6a1.59 1.59 0 0 1 0.16-0.4l0.1-0.15c-0.52-4.33-10.43-30.71-12.51-33.08-2.77-3.17-14-18.75-18.71-32.58L450 432l0.2-0.48c2.28-5.52-7.94-17.87-14.05-25.25-5.08-6.14-6.62-8-5.32-9.49 1.1-1.21 2.36-1.11 11.59 4.68 11.4 7.14 13.7 7.14 14.15 7 0.16-0.76-1.71-4.75-3.07-7.65-1.88-4-4-8.59-4.79-12.68-2-10.86-0.21-12.94 1.34-13.57 2.23-0.88 4.94 1.27 8.77 7.07 9.38 14.59 12.28 14.65 12.82 14.5 1.68-0.48 1.82-7.58 1.9-11.4A44.13 44.13 0 0 1 474 378c0.16-0.84 0.35-1.89 0.56-3.1 2.29-12.76 3.93-18.86 7.19-19h0.08c2.25 0 3.87 2.88 5.6 9.9 2.11 8.63 3.34 11.63 4 12.63a50.48 50.48 0 0 0 2.5-7.64c0.37-1.29 0.75-2.68 1.19-4.13 1.54-5.23 3-7.49 5-7.49h0.09a2.36 2.36 0 0 1 1.28 0.43c0.4-1.78 1.13-1.95 1.6-2.05 1.71-0.47 2.65 1.75 3.16 2.92a54.9 54.9 0 0 1 2.45 8.77c0.33 1.45 0.73 3.22 1.11 4.54 0.11-0.48 0.26-1.08 0.4-1.82 1.89-9.65 4.13-14.62 6.64-14.78 0.48-0.06 1.81 0.09 2.45 2 0.34 1 0.44 3 0.61 6.39s0.51 11.19 1.71 12.13c2.82-2.35 3.34-14.39 3-21.48l-0.16-3.28 2.47 2.18c8 7.05 8.1 22.59 7.66 29.7 17.83-16.36 22.73-17 25.19-15.31 3.49 2.44 0.57 10.18-3 18.57l-0.71 1.65c-4.89 9.1-6.69 13.35-7.32 15.32a99.43 99.43 0 0 0 10-11.14l1.41-1.76 0.94 2c2.66 5.74 1.69 12.17-2.91 19.15 2.46-1 4.55-1.25 5.88-0.54a2.37 2.37 0 0 1 1.23 2.24c0 1.46-1.31 2.83-3.58 3.87-3.59 1.65-6.31 10.08-8 15.12a27.69 27.69 0 0 1-1.77 4.76c-5.27 7.07-19.45 34.49-29.33 54.06a1.09 1.09 0 0 1 0.43 0h0.18c3.94-1.82 26-19.41 27.59-22.12 2.14-3.59 13.44-19.07 25.2-27.86l0.43-0.31h0.51c6 0.5 14.54-13.06 19.68-21.15 4.28-6.77 5.53-8.76 7.38-8 1.48 0.64 1.8 1.88-0.86 12.47-3.27 13-2.58 15.25-2.3 15.63 0.77-0.09 4-3.1 6.33-5.29 3.24-3 6.92-6.48 10.58-8.48 9.69-5.29 12.21-4.22 13.3-2.92 1.57 1.86 0.33 5.11-4 10.53-11 13.44-10.11 16.24-9.83 16.67 1 1.48 7.79-0.61 11.43-1.71a44.58 44.58 0 0 1 6.55-1.68c0.82-0.1 1.87-0.25 3.05-0.41 12.9-1.79 19.21-2.1 20.32 1 0.77 2.16-1.45 4.61-7.66 8.46-7.56 4.69-10 6.77-10.78 7.7a51.27 51.27 0 0 0 8.06 0c1.34-0.05 2.77-0.11 4.27-0.15 5.46-0.19 8.14 0.59 8.69 2.53a2.4 2.4 0 0 1 0 1.33c1.86-0.14 2.21 0.49 2.44 0.9 0.91 1.51-0.85 3.07-1.81 3.9a55.1 55.1 0 0 1-7.57 5c-1.28 0.77-2.84 1.7-4 2.46 0.49 0 1.11-0.09 1.88-0.18 9.77-1.19 15.16-0.58 16.1 1.75 0.18 0.49 0.45 1.75-1.18 3a32.07 32.07 0 0 1-5.86 2.53c-3.15 1.19-10.51 4-11 5.4 3 1.94 14.7-1.28 21.34-3.8l3.07-1.16-1.29 3c-4.24 9.81-19 14.68-25.9 16.47 21.12 11.92 23.21 16.42 22.35 19.23-1.22 4.06-9.49 3.69-18.56 2.88l-2-0.17c-10-1.83-14.59-2.23-16.66-2.23a100.23 100.23 0 0 0 13.68 6.08l2.11 0.78-1.65 1.54c-4.64 4.3-11 5.34-19.11 3.15 1.76 2 2.61 3.93 2.34 5.42a2.41 2.41 0 0 1-1.68 1.93c-1.39 0.39-3.09-0.38-4.78-2.21-2.69-2.92-11.64-2.9-16.85-2.89a29.57 29.57 0 0 1-5.08-0.22c-8.35-2.82-38.8-7.83-60.46-11.19a1.44 1.44 0 0 1 0.09 0.42v0.18c2.94 3.19 26.49 18.71 29.55 19.41 4.11 0.94 22.35 6.93 34.28 15.37l0.42 0.3 0.13 0.5c1.41 5.82 16.94 9.8 26.21 12.18 7.73 2 10.06 2.58 9.88 4.55-0.15 1.61-1.23 2.28-12.12 3-13.39 0.91-15.31 2.26-15.58 2.64 0.33 0.71 4.18 2.84 7 4.39 3.88 2.15 8.3 4.58 11.33 7.45 8 7.58 7.78 10.34 6.89 11.75-1.28 2.07-4.78 1.89-11.25-0.56-16.19-6.3-18.55-4.58-18.89-4.2-1.08 1.38 3 7.21 5.15 10.34a45 45 0 0 1 3.62 5.71c0.35 0.75 0.81 1.69 1.32 2.76 5.7 11.71 8 17.64 5.38 19.64-1.77 1.4-4.81 0.07-10.4-4.67-6.8-5.75-9.55-7.45-10.66-7.88a50.84 50.84 0 0 0 2.47 7.68c0.46 1.25 1 2.6 1.46 4 1.87 5.23 2 7.94 0.29 9.05a2.5 2.5 0 0 1-1.28 0.4c0.72 1.67 0.23 2.24-0.09 2.6-1.19 1.32-3.19 0.13-4.27-0.51a53.76 53.76 0 0 1-7.13-5.65c-1.13-1-2.5-2.18-3.58-3 0.18 0.47 0.43 1 0.75 1.73 4.13 8.92 5.25 14.25 3.31 15.86-0.4 0.33-1.53 1-3.17-0.2-0.87-0.62-2.1-2.15-4.23-4.81s-7-8.76-8.54-8.81c-0.9 3.55 5.77 13.61 10.21 19.14l2.05 2.56-3.26-0.31c-10.63-1-19.84-13.53-23.66-19.53-4.82 23.76-8.45 27.13-11.38 27.19z m-11.78-39.28c1.49 0 3.09 1.07 5.67 20.22l0.39 1.64c2.78 12.09 4.65 14.64 5.72 14.64 0.67 0 4.24-1.44 9.4-28.48l0.73-3.81 1.86 3.4c0.09 0.18 9 16.35 19.77 20.39-3.66-5-9.54-13.93-8.17-18.47a2.65 2.65 0 0 1 2-2c2.61-0.53 6.17 3.54 11.18 9.81 1.28 1.59 2.69 3.36 3.43 4.06 0-1.44-0.77-5-4-12-1.6-3.46-2.18-5.4-0.85-6.39 1.57-1.19 3.59 0.57 8 4.44a65.55 65.55 0 0 0 6 4.93c-0.41-0.61-0.88-1.26-1.38-1.88l2-1.9a7.48 7.48 0 0 0 2.8 1.72 22.83 22.83 0 0 0-1.45-5.74c-0.5-1.4-1-2.73-1.45-4-2.42-6.51-3.63-9.78-1.68-11.14 1.7-1.18 4.12-0.3 14.25 8.26 5.52 4.67 6.91 4.48 7.05 4.53 0.73-1.7-4.56-12.59-6.29-16.16-0.53-1.09-1-2.05-1.36-2.81a45.53 45.53 0 0 0-3.38-5.3c-3.64-5.23-7.41-10.64-5-13.63 1.55-2 5.39-3.16 22.07 3.32 6.57 2.47 7.88 1.67 7.94 1.64s0.11-2-6.49-8.22c-2.78-2.63-7-5-10.76-7-5.36-3-8.9-4.91-8.33-7.51 0.51-2.24 3.62-3.73 18.07-4.72 3.44-0.24 5.7-0.47 7.18-0.67-1.55-0.45-3.56-1-5.44-1.45-10.81-2.85-25.62-6.65-28.03-13.74-11.6-8-29-13.75-32.9-14.65-1.84-0.42-31-18.07-31.79-21.56a35.51 35.51 0 0 0-5.11-2.36l-11.3-4.5 12 1.83c26.23 4 59.38 9.38 68.36 12.42a30.92 30.92 0 0 0 4.3 0.11c6-0.08 15.38 0 18.89 3.79a5.34 5.34 0 0 0 1.67 1.32c-0.19-0.9-1.35-3-4.84-5.63-2.48-1.85-3-2.26-2.38-3.4s1.7-0.66 2.73-0.22c8.63 3.66 15.42 4 20.26 0.92-15.13-5.83-14.59-7.8-14.28-8.89 0.41-1.52 0.85-3.09 21 0.57l1.76 0.15c12.42 1.09 15.35 0.1 15.68-0.92 0.18-0.64-0.07-4.47-24.19-17.75l-3.4-1.86 3.81-0.71c0.2-0.05 18.34-3.55 25.5-12.52-5.89 2-16.19 4.77-20.09 2.07a2.64 2.64 0 0 1-1.3-2.55c0.34-2.73 5.28-4.78 12.8-7.62 1.89-0.72 4-1.51 4.89-2-1.37-0.42-5-0.82-12.65 0.11-3.79 0.46-5.82 0.4-6.35-1.17-0.63-1.88 1.66-3.25 6.71-6.25a67.34 67.34 0 0 0 6.55-4.24c-0.7 0.2-1.47 0.45-2.21 0.72L656 470.6a7.77 7.77 0 0 0 2.5-2.13 25.56 25.56 0 0 0-4.67-0.42h-1.25c-1.48 0-2.9 0.1-4.22 0.15-6.93 0.32-10.42 0.44-11.13-1.84-0.61-2 1-4 12.28-11 6.09-3.78 6.45-5.15 6.48-5.29-1.41-1.23-13.38 0.44-17.3 1l-3.11 0.42a44.55 44.55 0 0 0-6.08 1.58c-6.12 1.85-12.43 3.74-14.53 0.59-1.41-2.1-1.33-6.12 10-20 4.39-5.49 4-7 4-7-0.11 0-2.09-0.6-9.82 3.62-3.36 1.83-6.89 5.14-10 8.07-4.47 4.18-7.38 6.93-9.72 5.59-2-1.16-2.43-4.59 1.09-18.64 0.85-3.35 1.33-5.57 1.6-7-0.92 1.34-2 3.1-3.08 4.73-6 9.49-14.2 22.39-21.68 22.46-12.08 9.17-22.87 24.71-24.09 26.77-1 1.6-26.35 23.57-30.24 23.57h-0.12a36.55 36.55 0 0 0-3.83 4.13l-7.79 9.42 5.48-10.93c11.9-23.71 27.27-53.58 32.94-61.17a38.3 38.3 0 0 0 1.43-4.06c1.88-5.83 4.73-14.64 9.44-16.8a5.54 5.54 0 0 0 1.78-1.17c-1-0.11-3.33 0.35-6.86 2.85-2.52 1.77-3.08 2.18-4 1.22s-0.1-1.82 0.64-2.67c6.16-7.09 8.55-13.46 7.13-19-10.21 12.6-11.9 11.48-12.87 10.83-1.31-0.87-2.68-1.77 7.07-19.86l0.65-1.56c4.88-11.45 4.86-14.59 4-15.21-0.54-0.33-4.29-1.31-24.36 17.52l-2.83 2.63 0.51-3.84c0-0.21 2.3-18.54-4-28.12 0 6.18-0.47 16.88-4.25 19.74a2.7 2.7 0 0 1-2.83 0.45c-2.48-1.15-2.91-6.49-3.29-14.49-0.09-2-0.2-4.31-0.37-5.31-0.84 1.18-2.34 4.52-3.82 12.08-0.73 3.74-1.41 5.64-3.06 5.67-1.95 0-2.55-2.62-3.84-8.31a64.36 64.36 0 0 0-2-7.55v2.32l-2.74 0.36a7.42 7.42 0 0 0-1.26-3.05 23.86 23.86 0 0 0-2.21 5.51c-0.41 1.43-0.8 2.81-1.16 4.09-1.87 6.63-2.81 10-5.14 10-2.08 0-3.53-2.21-6.68-15.07-1.72-7-2.9-7.73-3-7.79-1.59 0.94-3.71 12.79-4.4 16.69-0.22 1.22-0.42 2.3-0.58 3.15a43.78 43.78 0 0 0-0.38 6.26c-0.12 6.38-0.25 13-3.92 14-2.5 0.71-6.26-0.67-15.9-15.66-3.86-5.86-5.39-6-5.46-6s-1.27 1.53 0.4 10.47c0.71 3.75 2.77 8.13 4.58 12 2.61 5.54 4.32 9.2 2.33 11-1.73 1.51-5.11 0.91-17.4-6.8-2.92-1.83-4.88-3-6.21-3.69 1 1.29 2.33 2.89 3.57 4.39 7.15 8.65 16.9 20.42 14.65 27.55 4.65 13.33 15.36 28.15 18 31.2 1.24 1.41 14.5 32.86 13.05 36.13a36.41 36.41 0 0 0 2.74 4.91l6.55 10.33-8.7-8.6c-18.87-18.64-42.52-42.49-48-50.23a38.89 38.89 0 0 0-3.42-2.62c-5-3.58-12.46-9-13-14.16a5.53 5.53 0 0 0-0.57-2.05c-0.39 0.84-0.7 3.24 0.6 7.4 0.91 2.95 1.12 3.62-0.06 4.15s-1.76-0.47-2.35-1.43c-4.84-8.05-10.16-12.3-15.85-12.65 8.81 13.6 7.21 14.88 6.33 15.58-1.23 1-2.53 2-16.7-12.86l-1.3-1.1c-9.44-8.22-12.41-9.08-13.22-8.47-0.53 0.4-2.58 3.66 9.14 28.58l1.64 3.5-3.5-1.65c-0.18-0.1-17-7.91-28-4.88 5.89 1.88 15.92 5.66 17.47 10.14a2.65 2.65 0 0 1-0.44 2.83c-1.88 2-7.07 0.76-14.83-1.36-2-0.54-4.15-1.14-5.15-1.27 0.87 1.15 3.58 3.61 10.31 7.35 3.33 1.86 4.93 3.09 4.44 4.68-0.59 1.91-3.25 1.65-9.11 1.12a69.55 69.55 0 0 0-7.79-0.44c0.7 0.26 1.46 0.51 2.22 0.72l-0.51 2.72a7.57 7.57 0 0 0-3.28 0.25 22.68 22.68 0 0 0 4.56 3.8c1.22 0.84 2.4 1.63 3.51 2.37 5.77 3.84 8.67 5.77 7.9 8-0.67 2-3.17 2.67-16.39 1.7-7.14-0.56-8.27 0.36-8.35 0.47 0.4 1.8 11.06 7.5 14.56 9.36l2.77 1.5a43.19 43.19 0 0 0 5.84 2.29c6 2.09 12.26 4.26 12.1 8.06-0.09 2.53-2.52 5.74-19.8 10.3-6.76 1.85-7.36 3.27-7.38 3.33 0.05 0 1.13 1.69 10.07 2.85 3.76 0.47 8.59-0.11 12.85-0.65 6.06-0.74 10.09-1.26 11.14 1.19 0.92 2.11-0.72 5.14-11.83 14.44-2.66 2.21-4.35 3.73-5.43 4.76 1.53-0.55 3.47-1.31 5.26-2 10.44-4.13 24.63-9.74 30.75-5.42 14.16-0.3 31.53-5.91 35.24-7.49 1.72-0.74 35.71-3.64 38.39-1.24a37.07 37.07 0 0 0 5.52-1.09l11.81-3-11 5.6c-19.27 10-53 27.15-62.6 30.13a36.41 36.41 0 0 0-3.52 2.43c-5 3.62-12.46 9-17.52 8.05a5.18 5.18 0 0 0-2.14-0.09c0.68 0.62 2.86 1.66 7.22 1.72 3.1 0 3.79 0 3.93 1.34s-1 1.54-2.09 1.79c-9.13 2.11-14.82 5.86-16.92 11.16 15.69-4.18 16.38-2.26 16.78-1.2 0.55 1.48 1.13 3-17.4 11.92l-1.43 0.87c-10.68 6.4-12.5 9-12.15 10 0.2 0.61 2.64 3.58 30 0.14l3.84-0.48-2.66 2.81c-0.14 0.15-12.75 13.64-13.28 25.11 3.61-5 10.3-13.39 15-13.47h0.09a2.59 2.59 0 0 1 2.46 1.3c1.33 2.39-1.47 7-5.87 13.68-1.11 1.7-2.36 3.59-2.79 4.5 1.36-0.47 4.54-2.29 10.18-7.53 2.78-2.59 4.46-3.75 5.81-2.78 1.62 1.14 0.58 3.6-1.74 9a69.64 69.64 0 0 0-2.82 7.29c0.45-0.57 0.93-1.23 1.37-1.88l2.41 1.34a7.6 7.6 0 0 0-0.76 3.19 22.5 22.5 0 0 0 5-3.16c1.17-0.9 2.29-1.78 3.33-2.61 5.46-4.34 8.19-6.44 10.08-5 1.65 1.25 1.55 3.87-3.47 16.12-2.71 6.64-2.19 8-2.12 8.09h0.06c2 0 10.52-8.23 13.35-11 0.88-0.84 1.65-1.59 2.28-2.16a46.36 46.36 0 0 0 4-4.85c3.85-5.09 7.85-10.34 11.4-9 2.38 0.88 4.68 4.17 3.67 22-0.32 7 0.84 8 0.9 8.05s1.92-0.49 5.81-8.69c1.64-3.46 2.56-8.22 3.37-12.42 1.15-6 1.91-10 4.57-10.23a1.1 1.1 0 0 1 0.26 0c2.2 0 4.61 2.81 9.81 15.74 1.28 3.2 2.2 5.28 2.86 6.63-0.05-1.63-0.19-3.7-0.31-5.64-0.7-11.21-1.67-26.46 4.33-30.91 4.1-13.57 4.14-31.81 3.77-35.82-0.16-1.88 7.6-35.1 10.69-36.89a34.06 34.06 0 0 0 0.67-5.58l0.75-12.24 2 12.1c3.53 21.4 9.44 58.8 9.3 68.85a38.61 38.61 0 0 0 1.24 4.11c1.9 5.83 4.78 14.64 2.23 19.15a5.3 5.3 0 0 0-0.74 2c0.8-0.45 2.46-2.22 3.86-6.34 1-3 1.27-3.59 2.49-3.32s1.16 1.41 1.06 2.54c-0.82 9.35 1 15.91 5.39 19.55 0.87-16.19 2.91-16.28 4-16.34zM509 559.8a0.41 0.41 0 0 0 0.13 0.08z m-35.85-21.56v0.15z m67.57-6l-0.14 0.11z m-58.14-34.76a0.47 0.47 0 0 0-0.17 0z m41.59-3.78l0.07 0.15a0.41 0.41 0 0 0-0.06-0.14z" fill="" p-id="2208"></path></svg>