<?xml version="1.0" standalone="no"?><!DOCTYPE svg PUBLIC "-//W3C//DTD SVG 1.1//EN" "http://www.w3.org/Graphics/SVG/1.1/DTD/svg11.dtd"><svg t="1548747741067" class="icon" style="" viewBox="0 0 1024 1024" version="1.1" xmlns="http://www.w3.org/2000/svg" p-id="1106" xmlns:xlink="http://www.w3.org/1999/xlink" width="48" height="48"><defs><style type="text/css"></style></defs><path d="M849.92 503.808 530.432 188.416c-6.144-6.144-16.384-6.144-22.528 0L268.288 425.984c0 0 0 0 0 0l-79.872 77.824c-6.144 6.144-6.144 16.384 0 22.528 6.144 6.144 16.384 6.144 22.528 0l53.248-51.2 0 262.144c0 34.816 28.672 63.488 63.488 63.488l112.64 0c8.192 0 16.384-6.144 16.384-16.384l0-141.312 143.36 0c8.192 0 16.384-6.144 16.384-16.384 0-8.192-6.144-16.384-16.384-16.384l-159.744 0c-8.192 0-16.384 6.144-16.384 16.384l0 141.312L327.68 768c-18.432 0-32.768-14.336-32.768-30.72L294.912 442.368l223.232-221.184 307.2 303.104c4.096 4.096 8.192 4.096 12.288 4.096s8.192-2.048 12.288-4.096C856.064 520.192 856.064 509.952 849.92 503.808zM757.76 546.816c-8.192 0-16.384 6.144-16.384 16.384l0 174.08c0 16.384-14.336 30.72-32.768 30.72l-112.64 0c-8.192 0-16.384 6.144-16.384 16.384 0 8.192 6.144 16.384 16.384 16.384l112.64 0c34.816 0 63.488-28.672 63.488-63.488l0-174.08C774.144 552.96 768 546.816 757.76 546.816z" p-id="1107" fill="#515151"></path></svg>