<?xml version="1.0" standalone="no"?><!DOCTYPE svg PUBLIC "-//W3C//DTD SVG 1.1//EN" "http://www.w3.org/Graphics/SVG/1.1/DTD/svg11.dtd"><svg t="1548771416649" class="icon" style="" viewBox="0 0 1025 1024" version="1.1" xmlns="http://www.w3.org/2000/svg" p-id="24749" xmlns:xlink="http://www.w3.org/1999/xlink" width="64.0625" height="64"><defs><style type="text/css"></style></defs><path d="M114.816 626.752c4.224 0 8.448-0.192 12.608-0.64C136.704 627.968 148.8 624.64 163.84 615.872c6.08-2.944 11.904-6.4 17.344-10.24 34.112-19.904 68.224-39.68 102.464-59.264C285.376 545.344 286.976 544.32 288.64 543.296l66.432 0 0 59.648c0 4.096 0.384 8.192 1.088 12.096l-38.528 38.656c-20.416 5.568-40.896 11.072-61.312 16.512-34.368-4.608-70.464 6.144-96.832 32.64-44.864 44.8-44.864 117.504 0 162.368 44.864 44.8 117.568 44.8 162.368 0 27.264-27.264 37.888-64.832 32.064-100.096 5.248-19.648 10.496-39.104 15.808-58.624l38.016-38.208c4.608 1.088 9.344 1.536 14.144 1.536L480.64 669.824l0 69.888c-17.792 30.336-35.84 60.544-54.016 90.688-1.088 1.792-2.112 3.712-2.944 5.376-16.512 19.968-26.496 45.44-26.496 73.344C397.184 972.544 448.576 1024 512 1024c63.424 0 114.88-51.456 114.88-114.88 0-27.904-9.92-53.376-26.432-73.344-0.96-1.664-1.92-3.584-3.008-5.376-18.24-30.144-36.224-60.352-54.08-90.688l0-69.888 58.048 0c5.056 0 10.048-0.64 14.784-1.664l38.016 38.208c5.312 19.52 10.56 39.04 15.808 58.624-5.888 35.328 4.736 72.96 32.064 100.16 44.736 44.864 117.504 44.864 162.368 0 44.8-44.864 44.8-117.632 0-162.432-26.368-26.496-62.464-37.376-96.832-32.64-20.416-5.504-40.832-11.072-61.312-16.64l-39.04-39.232c0.64-3.648 0.96-7.424 0.96-11.328L668.224 543.04l67.136 0c1.6 1.024 3.328 1.984 4.992 3.008 34.24 19.648 68.352 39.424 102.464 59.392 5.376 3.904 11.2 7.296 17.28 10.112 15.104 8.896 27.328 12.096 36.544 10.304 4.096 0.448 8.384 0.704 12.48 0.704C972.48 626.56 1024 575.104 1024 511.616s-51.52-114.88-114.88-114.88c-4.224 0-8.512 0.256-12.8 0.704-8.96-1.728-20.928 1.472-35.584 9.92-6.464 3.072-12.672 6.72-18.496 10.88-33.856 19.84-67.776 39.552-101.888 58.944-1.664 1.024-3.392 1.984-4.864 3.008l-67.264 0L668.224 422.016c0-6.336-0.896-12.416-2.496-18.176l53.568-59.648c14.528-3.904 28.928-7.808 43.392-11.712 35.904 6.464 74.048-4.032 101.824-31.808 44.8-44.864 44.8-117.568 0-162.432-44.928-44.864-117.632-44.864-162.432 0-27.648 27.648-38.208 65.792-31.808 101.504-6.272 23.616-12.608 47.296-19.072 70.848-0.576 2.112-1.152 4.096-1.472 6.144L614.08 356.352C609.92 355.584 605.76 355.136 601.408 355.136L421.888 355.136c-4.224 0-8.384 0.448-12.416 1.152L374.336 317.184C373.888 315.2 373.376 313.28 372.8 311.104c-6.4-23.552-12.8-47.104-19.072-70.72 6.4-35.712-4.16-73.856-31.808-101.504-44.864-44.8-117.568-44.8-162.432 0-44.8 44.864-44.864 117.504 0 162.368 27.712 27.648 65.984 38.208 101.824 31.744C275.776 336.832 290.24 340.672 304.64 344.64l53.056 58.816c-1.728 5.888-2.624 12.096-2.624 18.56L355.072 480.64 288.576 480.64C286.976 479.616 285.312 478.656 283.584 477.632 249.536 458.176 215.616 438.464 181.76 418.688c-5.824-4.16-12.032-7.872-18.624-10.88C148.544 399.296 136.704 396.16 127.616 397.824c-4.16-0.448-8.448-0.704-12.8-0.704C51.392 397.12 0 448.512 0 512 0 575.36 51.392 626.752 114.816 626.752M240.32 836.032c-28.864 0-52.16-23.36-52.16-52.16s23.36-52.224 52.16-52.224c28.864 0 52.224 23.424 52.224 52.224S269.184 836.032 240.32 836.032M783.744 731.584c28.8 0 52.096 23.424 52.096 52.224s-23.296 52.16-52.096 52.16c-28.736 0-52.224-23.36-52.224-52.16S755.008 731.584 783.744 731.584M909.12 459.904c28.8 0 52.224 23.36 52.224 52.224 0 28.8-23.424 52.224-52.224 52.224s-52.224-23.424-52.224-52.224C856.896 483.264 880.32 459.904 909.12 459.904M783.744 167.296c28.8 0 52.096 23.36 52.096 52.16 0 28.864-23.296 52.224-52.096 52.224-28.736 0-52.224-23.36-52.224-52.224C731.52 190.656 755.008 167.296 783.744 167.296M564.224 909.184c0 28.864-23.36 52.224-52.224 52.224-28.8 0-52.224-23.36-52.224-52.224S483.2 857.088 512 857.088C540.864 857.088 564.224 880.32 564.224 909.184M417.92 459.328c0-23.04 18.688-41.728 41.728-41.728l104.256 0c23.104 0 41.856 18.688 41.856 41.728L605.76 564.48c0 23.04-18.752 41.728-41.856 41.728L459.648 606.208c-23.04 0-41.728-18.688-41.728-41.728L417.92 459.328zM240.32 271.744c-28.864 0-52.16-23.36-52.16-52.224 0-28.8 23.36-52.16 52.16-52.16 28.864 0 52.224 23.36 52.224 52.16C292.544 248.384 269.184 271.744 240.32 271.744M114.944 459.904c28.864 0 52.16 23.36 52.16 52.224 0 28.8-23.36 52.224-52.16 52.224S62.72 540.992 62.72 512.128C62.72 483.264 86.08 459.904 114.944 459.904M426.624 193.472C444.8 223.68 462.848 253.888 480.64 284.224l0 70.656 62.72 0L543.36 284.224c17.792-30.336 35.84-60.608 54.08-90.752 1.088-1.856 2.048-3.648 3.008-5.376 16.512-19.904 26.432-45.44 26.432-73.344C626.88 51.392 575.424 0 512 0 448.576 0 397.184 51.392 397.184 114.816c0 27.904 9.92 53.44 26.496 73.344C424.576 189.888 425.536 191.68 426.624 193.472M512 62.72c28.864 0 52.224 23.424 52.224 52.224 0 28.864-23.36 52.288-52.224 52.288-28.8 0-52.224-23.488-52.224-52.288C459.84 86.208 483.2 62.72 512 62.72" p-id="24750"></path></svg>