<?xml version="1.0" standalone="no"?><!DOCTYPE svg PUBLIC "-//W3C//DTD SVG 1.1//EN" "http://www.w3.org/Graphics/SVG/1.1/DTD/svg11.dtd"><svg t="1548767490541" class="icon" style="" viewBox="0 0 1024 1024" version="1.1" xmlns="http://www.w3.org/2000/svg" p-id="10740" xmlns:xlink="http://www.w3.org/1999/xlink" width="64" height="64"><defs><style type="text/css"></style></defs><path d="M597 314.1l-12.3-12.3-63.2-63.2-23.5-23.5-42.7-42.7-28.3-28.2-90.4-90.4L53.8 336.6l633.6 633.6 282.8-282.8L597 314.1z m-472.5 22.5l212.1-212.1 55 55-106 106.1 28.3 28.3L420 207.8l42.7 42.7-70.7 70.7 28.3 28.3 70.7-70.7 42.4 42.4-70.7 70.7 28.3 28.3 70.7-70.7 42.4 42.4L498 498l28.3 28.3 106.1-106.1 42.4 42.4-70.7 70.7 28.3 28.3 70.7-70.7 42.4 42.4-70.7 70.7 28.3 28.3 70.7-70.7 42.4 42.4-106.1 106.1 28.3 28.3 106.1-106.1 55 55-212.1 212.2-562.9-562.9z" fill="#707070" p-id="10741"></path></svg>