<?xml version="1.0" standalone="no"?><!DOCTYPE svg PUBLIC "-//W3C//DTD SVG 1.1//EN" "http://www.w3.org/Graphics/SVG/1.1/DTD/svg11.dtd"><svg t="1548770823639" class="icon" style="" viewBox="0 0 1024 1024" version="1.1" xmlns="http://www.w3.org/2000/svg" p-id="11248" xmlns:xlink="http://www.w3.org/1999/xlink" width="64" height="64"><defs><style type="text/css"></style></defs><path d="M659.593746 404.820467V220.738274c20.63464-6.055635 35.19935-25.431066 35.19935-48.442477V51.189604c0-27.854619-23.062091-50.864731-50.979086-50.864731H377.997645c-27.916995 0-50.979086 23.010112-50.979087 50.864731v121.106193c0 23.010112 14.564711 41.177015 35.199351 48.442477v184.082193C252.977381 460.529706 182.57868 573.15931 182.57868 696.686457 182.57868 877.137868 329.44601 1023.675127 511.51269 1023.675127c180.852954 0 328.93401-146.538558 328.934011-326.987371 0-123.529746-71.612426-236.158051-180.852955-291.86599zM253.996183 731.957279c-5.823025-153.511635 81.816041-254.245685 175.328812-293.000447v-266.434923l-31.706315-0.226112V73.42132h222.135229v98.874477H592.17868v266.434924c88.24203 38.980873 174.229442 146.365726 174.229442 293.226558H253.996183z" fill="#000000" p-id="11249"></path><path d="M512.075371 365.807107c20.242193 0 35.985543 17.055838 35.985543 38.984771s-15.74335 38.984772-35.985543 38.984772-35.986843-17.055838-35.986843-38.984772 15.74465-38.984772 35.986843-38.984771z m-48.356711 158.375634c33.737421 0 61.85064 30.456203 61.850639 67.004427 0 36.548223-28.113218 67.005726-61.850639 67.005725-33.736122 0-61.85064-30.456203-61.85064-67.005725 0-36.548223 28.114518-67.004426 61.85064-67.004427z" fill="#000000" p-id="11250"></path></svg>