<?xml version="1.0" standalone="no"?><!DOCTYPE svg PUBLIC "-//W3C//DTD SVG 1.1//EN" "http://www.w3.org/Graphics/SVG/1.1/DTD/svg11.dtd"><svg t="1548771474491" class="icon" style="" viewBox="0 0 1024 1024" version="1.1" xmlns="http://www.w3.org/2000/svg" p-id="25101" xmlns:xlink="http://www.w3.org/1999/xlink" width="64" height="64"><defs><style type="text/css"></style></defs><path d="M908.288 814.592L665.6 331.776V160.768h61.44V51.2H297.984v109.568h61.44v171.008L116.736 814.08c-51.2 84.48-7.68 158.208 89.6 158.208h610.304c99.328 0.512 140.288-71.168 91.648-157.696z m-53.76 73.728c-2.56 2.56-10.24 10.24-38.4 10.24H206.336c-25.6 0-38.4-7.68-38.4-10.24-2.56-2.56-2.56-15.36 10.24-38.4v-5.12l242.688-482.304 7.68-15.36V165.888h160.768v181.248l7.68 15.36L839.68 844.8v5.12c17.408 23.552 17.408 35.84 14.848 38.4z m-342.016-375.296c0 28.16-23.04 51.2-51.2 51.2s-51.2-23.04-51.2-51.2 23.04-51.2 51.2-51.2 51.2 26.112 51.2 51.2z m-7.68-306.176c-15.36 0-28.16 12.8-28.16 28.16s12.8 28.16 28.16 28.16 28.16-12.8 28.16-28.16-12.8-28.16-28.16-28.16z m28.16 147.968c-15.36 0-28.16 12.8-28.16 28.16s12.8 28.16 28.16 28.16 28.16-12.8 28.16-28.16-10.24-28.16-28.16-28.16z m117.248 260.608H369.664l-117.248 237.568H773.12l-122.88-237.568z m-265.216 211.968c-15.36 0-28.16-12.8-28.16-28.16s12.8-28.16 28.16-28.16 28.16 12.8 28.16 28.16-12.8 28.16-28.16 28.16z m40.96-112.64c-15.36 0-28.16-12.8-28.16-28.16s12.8-28.16 28.16-28.16 28.16 12.8 28.16 28.16-12.8 28.16-28.16 28.16z m86.528 84.48c-15.36 0-28.16-12.8-28.16-28.16s12.8-28.16 28.16-28.16 28.16 12.8 28.16 28.16-12.8 28.16-28.16 28.16z" fill="#0089FF" p-id="25102"></path></svg>