<?xml version="1.0" standalone="no"?><!DOCTYPE svg PUBLIC "-//W3C//DTD SVG 1.1//EN" "http://www.w3.org/Graphics/SVG/1.1/DTD/svg11.dtd"><svg t="1548772438786" class="icon" style="" viewBox="0 0 1024 1024" version="1.1" xmlns="http://www.w3.org/2000/svg" p-id="26018" xmlns:xlink="http://www.w3.org/1999/xlink" width="64" height="64"><defs><style type="text/css"></style></defs><path d="M536.509 515.037l-3.426-8.128-4.172 3.41zM431.34 549.696H194.782c-21.871 0-39.667 17.796-39.667 39.667v236.554c0 21.873 17.796 39.667 39.667 39.667h236.556c21.872 0 39.666-17.794 39.666-39.667V589.363c0-21.871-17.794-39.667-39.666-39.667z m-1.134 275.085H195.918V590.498h234.288V824.78zM192.211 508.242H428.77c21.871 0 39.665-17.794 39.665-39.664V232.02c0-21.87-17.794-39.664-39.665-39.664H192.21c-21.87 0-39.664 17.793-39.664 39.664v236.558c0 21.87 17.793 39.664 39.664 39.664z m1.138-275.087h234.285v234.286H193.349V233.155zM813.097 547.127H576.541c-21.862 0-39.647 17.794-39.647 39.665v236.556c0 21.871 17.785 39.665 39.647 39.665h236.556c21.881 0 39.684-17.794 39.684-39.665V586.792c0-21.87-17.803-39.665-39.684-39.665z m-1.116 275.086H577.697V587.927H811.98v234.286zM859.526 314.328L720.943 175.746c-7.087-7.065-16.505-10.957-26.516-10.957-10.009 0-19.422 3.892-26.537 10.981L529.377 314.303c-7.11 7.09-11.026 16.523-11.026 26.562s3.915 19.474 11 26.537l138.54 138.56c7.08 7.08 16.502 10.98 26.53 10.98 10.015 0 19.436-3.892 26.547-10.98L859.55 367.38c14.598-14.642 14.586-38.44-0.024-53.052zM694.429 471.414L563.901 340.865l130.528-130.547 130.548 130.547-130.548 130.549z" fill="#1296db" p-id="26019"></path></svg>