<svg xmlns="http://www.w3.org/2000/svg" width="1105" height="433" viewBox="0 0 1105 433"><path d="M307.5,91h67a0,0,0,0,1,0,0V357.5A33.5,33.5,0,0,1,341,391h0a33.5,33.5,0,0,1-33.5-33.5V91A0,0,0,0,1,307.5,91Z" style="fill:#e8edfe"/><path d="M316.5,174h48a0,0,0,0,1,0,0V358a24,24,0,0,1-24,24h0a24,24,0,0,1-24-24V174A0,0,0,0,1,316.5,174Z" style="fill:#adbefa"/><rect x="291.5" y="91" width="99" height="29" rx="14.5" style="fill:#e8edfe"/><circle cx="351.5" cy="141" r="9" style="fill:#adbefa"/><circle cx="329.13" cy="116.42" r="5.5" style="fill:#adbefa"/><circle cx="348.14" cy="77.42" r="5.5" style="fill:#e8edfe"/><circle cx="331.15" cy="166.71" r="3.46" style="fill:#adbefa"/><circle cx="337.15" cy="254.71" r="3.46" style="fill:#e8edfe"/><circle cx="349.71" cy="284.23" r="2.39" style="fill:#e8edfe"/><circle cx="335.69" cy="317.53" r="1.51" style="fill:#e8edfe"/><path d="M694.83,91h67a0,0,0,0,1,0,0V357.5a33.5,33.5,0,0,1-33.5,33.5h0a33.5,33.5,0,0,1-33.5-33.5V91A0,0,0,0,1,694.83,91Z" style="fill:#f8e8f4"/><path d="M703.83,174h48a0,0,0,0,1,0,0V358a24,24,0,0,1-24,24h0a24,24,0,0,1-24-24V174a0,0,0,0,1,0,0Z" style="fill:#c748aa"/><rect x="678.83" y="91" width="99" height="29" rx="14.5" style="fill:#f8e8f4"/><circle cx="719.83" cy="144" r="9" style="fill:#e6add9"/><circle cx="736.56" cy="111.42" r="5.5" style="fill:#e6add9"/><circle cx="715.37" cy="73.62" r="7.16" style="fill:#f8e8f4"/><circle cx="734.88" cy="41.02" r="8.22" style="fill:#f8e8f4"/><circle cx="734.48" cy="166.71" r="3.46" style="fill:#e6add9"/><circle cx="737.48" cy="337.71" r="3.46" style="fill:#e6add9"/><circle cx="722.48" cy="271.71" r="3.46" style="fill:#e6add9"/><circle cx="722.18" cy="351.28" r="2.49" style="fill:#e6add9"/><circle cx="735.18" cy="311.28" r="2.49" style="fill:#e6add9"/><circle cx="724.48" cy="254.71" r="3.46" style="fill:#e6add9"/><circle cx="725.48" cy="322.71" r="3.46" style="fill:#e6add9"/><circle cx="737.04" cy="284.23" r="2.39" style="fill:#e6add9"/><circle cx="734.04" cy="353.23" r="2.39" style="fill:#e6add9"/><circle cx="725.03" cy="364.53" r="1.51" style="fill:#e6add9"/><circle cx="718.03" cy="298.53" r="1.51" style="fill:#e6add9"/><path d="M501.17,91h67a0,0,0,0,1,0,0V357.5a33.5,33.5,0,0,1-33.5,33.5h0a33.5,33.5,0,0,1-33.5-33.5V91A0,0,0,0,1,501.17,91Z" style="fill:#ecfcfb"/><path d="M510.17,174h48a0,0,0,0,1,0,0V358a24,24,0,0,1-24,24h0a24,24,0,0,1-24-24V174a0,0,0,0,1,0,0Z" style="fill:#d2f7f4"/><rect x="485.17" y="91" width="99" height="29" rx="14.5" style="fill:#ecfcfb"/><circle cx="530.81" cy="254.71" r="3.46" style="fill:#ecfcfb"/><circle cx="543.37" cy="295.23" r="2.39" style="fill:#ecfcfb"/><circle cx="527.97" cy="329.57" r="1.84" style="fill:#ecfcfb"/><rect x="526.01" y="348.97" width="9" height="9" rx="3.09" transform="translate(99.5 -116.23) rotate(13.78)" style="fill:#6be7db"/><rect x="537.26" y="356.86" width="9.03" height="9.03" rx="2.93" transform="translate(253.27 -222.47) rotate(30)" style="fill:#6be7db"/><rect x="522.82" y="362.11" width="10.41" height="10.41" rx="3.42" transform="translate(1145.59 547.2) rotate(161.42)" style="fill:#6be7db"/><path d="M888.5,91h67a0,0,0,0,1,0,0V357.5A33.5,33.5,0,0,1,922,391h0a33.5,33.5,0,0,1-33.5-33.5V91A0,0,0,0,1,888.5,91Z" style="fill:#e8edfe"/><path d="M897.5,174h48a0,0,0,0,1,0,0V358a24,24,0,0,1-24,24h0a24,24,0,0,1-24-24V174A0,0,0,0,1,897.5,174Z" style="fill:#adbefa"/><rect x="872.5" y="91" width="99" height="29" rx="14.5" style="fill:#e8edfe"/><rect x="908.07" y="336.33" width="10.48" height="10.48" transform="translate(293.15 -410.89) rotate(30)" style="fill:#adafa6"/><rect x="924.59" y="342.39" width="11.96" height="11.96" transform="translate(298.86 -418.61) rotate(30)" style="fill:#adafa6"/><rect x="909.96" y="356.09" width="14.12" height="14.12" transform="translate(1901.95 415.11) rotate(161.42)" style="fill:#adafa6"/><rect x="122" y="118.83" width="40" height="40" style="fill:#e8edfe;stroke:#adbefa;stroke-miterlimit:10"/><rect x="122" y="182.88" width="40" height="40" style="fill:#ecfcfb;stroke:#bcf3ef;stroke-miterlimit:10"/><rect x="122" y="246.92" width="40" height="40" style="fill:#f3f1e5;stroke:#d5cca2;stroke-miterlimit:10"/><rect x="122" y="310.96" width="40" height="40" style="fill:#f8e8f4;stroke:#e6add9;stroke-miterlimit:10"/></svg>