<svg width="231" height="231" viewBox="0 0 231 231" fill="none" xmlns="http://www.w3.org/2000/svg">
<g clip-path="url(#clip0_15_7)">
<path d="M231 0H0V231H231V0Z" fill="white"/>
<path d="M84 14H77V21H84V14Z" fill="black"/>
<path d="M98 14H91V21H98V14Z" fill="black"/>
<path d="M105 14H98V21H105V14Z" fill="black"/>
<path d="M154 14H147V21H154V14Z" fill="black"/>
<path d="M161 14H154V21H161V14Z" fill="black"/>
<path d="M77 21H70V28H77V21Z" fill="black"/>
<path d="M91 21H84V28H91V21Z" fill="black"/>
<path d="M98 21H91V28H98V21Z" fill="black"/>
<path d="M126 21H119V28H126V21Z" fill="black"/>
<path d="M133 21H126V28H133V21Z" fill="black"/>
<path d="M140 21H133V28H140V21Z" fill="black"/>
<path d="M147 21H140V28H147V21Z" fill="black"/>
<path d="M161 21H154V28H161V21Z" fill="black"/>
<path d="M77 28H70V35H77V28Z" fill="black"/>
<path d="M84 28H77V35H84V28Z" fill="black"/>
<path d="M91 28H84V35H91V28Z" fill="black"/>
<path d="M98 28H91V35H98V28Z" fill="black"/>
<path d="M112 28H105V35H112V28Z" fill="black"/>
<path d="M140 28H133V35H140V28Z" fill="black"/>
<path d="M147 28H140V35H147V28Z" fill="black"/>
<path d="M154 28H147V35H154V28Z" fill="black"/>
<path d="M161 28H154V35H161V28Z" fill="black"/>
<path d="M77 35H70V42H77V35Z" fill="black"/>
<path d="M84 35H77V42H84V35Z" fill="black"/>
<path d="M105 35H98V42H105V35Z" fill="black"/>
<path d="M126 35H119V42H126V35Z" fill="black"/>
<path d="M140 35H133V42H140V35Z" fill="black"/>
<path d="M147 35H140V42H147V35Z" fill="black"/>
<path d="M77 42H70V49H77V42Z" fill="black"/>
<path d="M84 42H77V49H84V42Z" fill="black"/>
<path d="M91 42H84V49H91V42Z" fill="black"/>
<path d="M105 42H98V49H105V42Z" fill="black"/>
<path d="M119 42H112V49H119V42Z" fill="black"/>
<path d="M126 42H119V49H126V42Z" fill="black"/>
<path d="M161 42H154V49H161V42Z" fill="black"/>
<path d="M77 49H70V56H77V49Z" fill="black"/>
<path d="M84 49H77V56H84V49Z" fill="black"/>
<path d="M91 49H84V56H91V49Z" fill="black"/>
<path d="M105 49H98V56H105V49Z" fill="black"/>
<path d="M112 49H105V56H112V49Z" fill="black"/>
<path d="M119 49H112V56H119V49Z" fill="black"/>
<path d="M133 49H126V56H133V49Z" fill="black"/>
<path d="M140 49H133V56H140V49Z" fill="black"/>
<path d="M147 49H140V56H147V49Z" fill="black"/>
<path d="M77 56H70V63H77V56Z" fill="black"/>
<path d="M91 56H84V63H91V56Z" fill="black"/>
<path d="M105 56H98V63H105V56Z" fill="black"/>
<path d="M119 56H112V63H119V56Z" fill="black"/>
<path d="M133 56H126V63H133V56Z" fill="black"/>
<path d="M147 56H140V63H147V56Z" fill="black"/>
<path d="M161 56H154V63H161V56Z" fill="black"/>
<path d="M91 63H84V70H91V63Z" fill="black"/>
<path d="M105 63H98V70H105V63Z" fill="black"/>
<path d="M140 63H133V70H140V63Z" fill="black"/>
<path d="M161 63H154V70H161V63Z" fill="black"/>
<path d="M35 70H28V77H35V70Z" fill="black"/>
<path d="M56 70H49V77H56V70Z" fill="black"/>
<path d="M63 70H56V77H63V70Z" fill="black"/>
<path d="M70 70H63V77H70V70Z" fill="black"/>
<path d="M77 70H70V77H77V70Z" fill="black"/>
<path d="M84 70H77V77H84V70Z" fill="black"/>
<path d="M98 70H91V77H98V70Z" fill="black"/>
<path d="M119 70H112V77H119V70Z" fill="black"/>
<path d="M140 70H133V77H140V70Z" fill="black"/>
<path d="M154 70H147V77H154V70Z" fill="black"/>
<path d="M161 70H154V77H161V70Z" fill="black"/>
<path d="M168 70H161V77H168V70Z" fill="black"/>
<path d="M182 70H175V77H182V70Z" fill="black"/>
<path d="M189 70H182V77H189V70Z" fill="black"/>
<path d="M196 70H189V77H196V70Z" fill="black"/>
<path d="M203 70H196V77H203V70Z" fill="black"/>
<path d="M210 70H203V77H210V70Z" fill="black"/>
<path d="M21 77H14V84H21V77Z" fill="black"/>
<path d="M35 77H28V84H35V77Z" fill="black"/>
<path d="M42 77H35V84H42V77Z" fill="black"/>
<path d="M49 77H42V84H49V77Z" fill="black"/>
<path d="M70 77H63V84H70V77Z" fill="black"/>
<path d="M77 77H70V84H77V77Z" fill="black"/>
<path d="M84 77H77V84H84V77Z" fill="black"/>
<path d="M105 77H98V84H105V77Z" fill="black"/>
<path d="M119 77H112V84H119V77Z" fill="black"/>
<path d="M126 77H119V84H126V77Z" fill="black"/>
<path d="M133 77H126V84H133V77Z" fill="black"/>
<path d="M140 77H133V84H140V77Z" fill="black"/>
<path d="M161 77H154V84H161V77Z" fill="black"/>
<path d="M175 77H168V84H175V77Z" fill="black"/>
<path d="M182 77H175V84H182V77Z" fill="black"/>
<path d="M203 77H196V84H203V77Z" fill="black"/>
<path d="M210 77H203V84H210V77Z" fill="black"/>
<path d="M217 77H210V84H217V77Z" fill="black"/>
<path d="M21 84H14V91H21V84Z" fill="black"/>
<path d="M49 84H42V91H49V84Z" fill="black"/>
<path d="M63 84H56V91H63V84Z" fill="black"/>
<path d="M84 84H77V91H84V84Z" fill="black"/>
<path d="M98 84H91V91H98V84Z" fill="black"/>
<path d="M112 84H105V91H112V84Z" fill="black"/>
<path d="M119 84H112V91H119V84Z" fill="black"/>
<path d="M126 84H119V91H126V84Z" fill="black"/>
<path d="M133 84H126V91H133V84Z" fill="black"/>
<path d="M140 84H133V91H140V84Z" fill="black"/>
<path d="M147 84H140V91H147V84Z" fill="black"/>
<path d="M161 84H154V91H161V84Z" fill="black"/>
<path d="M168 84H161V91H168V84Z" fill="black"/>
<path d="M182 84H175V91H182V84Z" fill="black"/>
<path d="M196 84H189V91H196V84Z" fill="black"/>
<path d="M217 84H210V91H217V84Z" fill="black"/>
<path d="M56 91H49V98H56V91Z" fill="black"/>
<path d="M84 91H77V98H84V91Z" fill="black"/>
<path d="M98 91H91V98H98V91Z" fill="black"/>
<path d="M105 91H98V98H105V91Z" fill="black"/>
<path d="M112 91H105V98H112V91Z" fill="black"/>
<path d="M119 91H112V98H119V91Z" fill="black"/>
<path d="M126 91H119V98H126V91Z" fill="black"/>
<path d="M133 91H126V98H133V91Z" fill="black"/>
<path d="M147 91H140V98H147V91Z" fill="black"/>
<path d="M154 91H147V98H154V91Z" fill="black"/>
<path d="M161 91H154V98H161V91Z" fill="black"/>
<path d="M175 91H168V98H175V91Z" fill="black"/>
<path d="M182 91H175V98H182V91Z" fill="black"/>
<path d="M189 91H182V98H189V91Z" fill="black"/>
<path d="M196 91H189V98H196V91Z" fill="black"/>
<path d="M21 98H14V105H21V98Z" fill="black"/>
<path d="M28 98H21V105H28V98Z" fill="black"/>
<path d="M56 98H49V105H56V98Z" fill="black"/>
<path d="M63 98H56V105H63V98Z" fill="black"/>
<path d="M77 98H70V105H77V98Z" fill="black"/>
<path d="M84 98H77V105H84V98Z" fill="black"/>
<path d="M119 98H112V105H119V98Z" fill="black"/>
<path d="M168 98H161V105H168V98Z" fill="black"/>
<path d="M175 98H168V105H175V98Z" fill="black"/>
<path d="M196 98H189V105H196V98Z" fill="black"/>
<path d="M210 98H203V105H210V98Z" fill="black"/>
<path d="M21 105H14V112H21V105Z" fill="black"/>
<path d="M28 105H21V112H28V105Z" fill="black"/>
<path d="M35 105H28V112H35V105Z" fill="black"/>
<path d="M49 105H42V112H49V105Z" fill="black"/>
<path d="M56 105H49V112H56V105Z" fill="black"/>
<path d="M70 105H63V112H70V105Z" fill="black"/>
<path d="M84 105H77V112H84V105Z" fill="black"/>
<path d="M91 105H84V112H91V105Z" fill="black"/>
<path d="M105 105H98V112H105V105Z" fill="black"/>
<path d="M140 105H133V112H140V105Z" fill="black"/>
<path d="M147 105H140V112H147V105Z" fill="black"/>
<path d="M154 105H147V112H154V105Z" fill="black"/>
<path d="M161 105H154V112H161V105Z" fill="black"/>
<path d="M175 105H168V112H175V105Z" fill="black"/>
<path d="M196 105H189V112H196V105Z" fill="black"/>
<path d="M210 105H203V112H210V105Z" fill="black"/>
<path d="M217 105H210V112H217V105Z" fill="black"/>
<path d="M35 112H28V119H35V112Z" fill="black"/>
<path d="M42 112H35V119H42V112Z" fill="black"/>
<path d="M56 112H49V119H56V112Z" fill="black"/>
<path d="M63 112H56V119H63V112Z" fill="black"/>
<path d="M84 112H77V119H84V112Z" fill="black"/>
<path d="M91 112H84V119H91V112Z" fill="black"/>
<path d="M98 112H91V119H98V112Z" fill="black"/>
<path d="M105 112H98V119H105V112Z" fill="black"/>
<path d="M119 112H112V119H119V112Z" fill="black"/>
<path d="M133 112H126V119H133V112Z" fill="black"/>
<path d="M147 112H140V119H147V112Z" fill="black"/>
<path d="M154 112H147V119H154V112Z" fill="black"/>
<path d="M161 112H154V119H161V112Z" fill="black"/>
<path d="M168 112H161V119H168V112Z" fill="black"/>
<path d="M175 112H168V119H175V112Z" fill="black"/>
<path d="M196 112H189V119H196V112Z" fill="black"/>
<path d="M203 112H196V119H203V112Z" fill="black"/>
<path d="M217 112H210V119H217V112Z" fill="black"/>
<path d="M28 119H21V126H28V119Z" fill="black"/>
<path d="M35 119H28V126H35V119Z" fill="black"/>
<path d="M42 119H35V126H42V119Z" fill="black"/>
<path d="M49 119H42V126H49V119Z" fill="black"/>
<path d="M56 119H49V126H56V119Z" fill="black"/>
<path d="M70 119H63V126H70V119Z" fill="black"/>
<path d="M77 119H70V126H77V119Z" fill="black"/>
<path d="M91 119H84V126H91V119Z" fill="black"/>
<path d="M98 119H91V126H98V119Z" fill="black"/>
<path d="M119 119H112V126H119V119Z" fill="black"/>
<path d="M126 119H119V126H126V119Z" fill="black"/>
<path d="M133 119H126V126H133V119Z" fill="black"/>
<path d="M140 119H133V126H140V119Z" fill="black"/>
<path d="M168 119H161V126H168V119Z" fill="black"/>
<path d="M175 119H168V126H175V119Z" fill="black"/>
<path d="M196 119H189V126H196V119Z" fill="black"/>
<path d="M210 119H203V126H210V119Z" fill="black"/>
<path d="M21 126H14V133H21V126Z" fill="black"/>
<path d="M28 126H21V133H28V126Z" fill="black"/>
<path d="M35 126H28V133H35V126Z" fill="black"/>
<path d="M42 126H35V133H42V126Z" fill="black"/>
<path d="M49 126H42V133H49V126Z" fill="black"/>
<path d="M56 126H49V133H56V126Z" fill="black"/>
<path d="M63 126H56V133H63V126Z" fill="black"/>
<path d="M84 126H77V133H84V126Z" fill="black"/>
<path d="M98 126H91V133H98V126Z" fill="black"/>
<path d="M112 126H105V133H112V126Z" fill="black"/>
<path d="M119 126H112V133H119V126Z" fill="black"/>
<path d="M140 126H133V133H140V126Z" fill="black"/>
<path d="M154 126H147V133H154V126Z" fill="black"/>
<path d="M161 126H154V133H161V126Z" fill="black"/>
<path d="M175 126H168V133H175V126Z" fill="black"/>
<path d="M182 126H175V133H182V126Z" fill="black"/>
<path d="M210 126H203V133H210V126Z" fill="black"/>
<path d="M42 133H35V140H42V133Z" fill="black"/>
<path d="M70 133H63V140H70V133Z" fill="black"/>
<path d="M77 133H70V140H77V133Z" fill="black"/>
<path d="M84 133H77V140H84V133Z" fill="black"/>
<path d="M105 133H98V140H105V133Z" fill="black"/>
<path d="M133 133H126V140H133V133Z" fill="black"/>
<path d="M175 133H168V140H175V133Z" fill="black"/>
<path d="M203 133H196V140H203V133Z" fill="black"/>
<path d="M217 133H210V140H217V133Z" fill="black"/>
<path d="M21 140H14V147H21V140Z" fill="black"/>
<path d="M28 140H21V147H28V140Z" fill="black"/>
<path d="M42 140H35V147H42V140Z" fill="black"/>
<path d="M49 140H42V147H49V140Z" fill="black"/>
<path d="M63 140H56V147H63V140Z" fill="black"/>
<path d="M77 140H70V147H77V140Z" fill="black"/>
<path d="M84 140H77V147H84V140Z" fill="black"/>
<path d="M98 140H91V147H98V140Z" fill="black"/>
<path d="M105 140H98V147H105V140Z" fill="black"/>
<path d="M133 140H126V147H133V140Z" fill="black"/>
<path d="M140 140H133V147H140V140Z" fill="black"/>
<path d="M154 140H147V147H154V140Z" fill="black"/>
<path d="M189 140H182V147H189V140Z" fill="black"/>
<path d="M203 140H196V147H203V140Z" fill="black"/>
<path d="M217 140H210V147H217V140Z" fill="black"/>
<path d="M35 147H28V154H35V147Z" fill="black"/>
<path d="M42 147H35V154H42V147Z" fill="black"/>
<path d="M49 147H42V154H49V147Z" fill="black"/>
<path d="M56 147H49V154H56V147Z" fill="black"/>
<path d="M91 147H84V154H91V147Z" fill="black"/>
<path d="M112 147H105V154H112V147Z" fill="black"/>
<path d="M119 147H112V154H119V147Z" fill="black"/>
<path d="M147 147H140V154H147V147Z" fill="black"/>
<path d="M161 147H154V154H161V147Z" fill="black"/>
<path d="M168 147H161V154H168V147Z" fill="black"/>
<path d="M175 147H168V154H175V147Z" fill="black"/>
<path d="M189 147H182V154H189V147Z" fill="black"/>
<path d="M196 147H189V154H196V147Z" fill="black"/>
<path d="M210 147H203V154H210V147Z" fill="black"/>
<path d="M21 154H14V161H21V154Z" fill="black"/>
<path d="M28 154H21V161H28V154Z" fill="black"/>
<path d="M35 154H28V161H35V154Z" fill="black"/>
<path d="M42 154H35V161H42V154Z" fill="black"/>
<path d="M63 154H56V161H63V154Z" fill="black"/>
<path d="M84 154H77V161H84V154Z" fill="black"/>
<path d="M112 154H105V161H112V154Z" fill="black"/>
<path d="M126 154H119V161H126V154Z" fill="black"/>
<path d="M133 154H126V161H133V154Z" fill="black"/>
<path d="M147 154H140V161H147V154Z" fill="black"/>
<path d="M161 154H154V161H161V154Z" fill="black"/>
<path d="M168 154H161V161H168V154Z" fill="black"/>
<path d="M175 154H168V161H175V154Z" fill="black"/>
<path d="M182 154H175V161H182V154Z" fill="black"/>
<path d="M189 154H182V161H189V154Z" fill="black"/>
<path d="M217 154H210V161H217V154Z" fill="black"/>
<path d="M77 161H70V168H77V161Z" fill="black"/>
<path d="M84 161H77V168H84V161Z" fill="black"/>
<path d="M98 161H91V168H98V161Z" fill="black"/>
<path d="M105 161H98V168H105V161Z" fill="black"/>
<path d="M112 161H105V168H112V161Z" fill="black"/>
<path d="M119 161H112V168H119V161Z" fill="black"/>
<path d="M140 161H133V168H140V161Z" fill="black"/>
<path d="M147 161H140V168H147V161Z" fill="black"/>
<path d="M154 161H147V168H154V161Z" fill="black"/>
<path d="M161 161H154V168H161V161Z" fill="black"/>
<path d="M189 161H182V168H189V161Z" fill="black"/>
<path d="M196 161H189V168H196V161Z" fill="black"/>
<path d="M217 161H210V168H217V161Z" fill="black"/>
<path d="M77 168H70V175H77V168Z" fill="black"/>
<path d="M84 168H77V175H84V168Z" fill="black"/>
<path d="M91 168H84V175H91V168Z" fill="black"/>
<path d="M98 168H91V175H98V168Z" fill="black"/>
<path d="M112 168H105V175H112V168Z" fill="black"/>
<path d="M119 168H112V175H119V168Z" fill="black"/>
<path d="M133 168H126V175H133V168Z" fill="black"/>
<path d="M161 168H154V175H161V168Z" fill="black"/>
<path d="M175 168H168V175H175V168Z" fill="black"/>
<path d="M189 168H182V175H189V168Z" fill="black"/>
<path d="M196 168H189V175H196V168Z" fill="black"/>
<path d="M203 168H196V175H203V168Z" fill="black"/>
<path d="M217 168H210V175H217V168Z" fill="black"/>
<path d="M77 175H70V182H77V175Z" fill="black"/>
<path d="M84 175H77V182H84V175Z" fill="black"/>
<path d="M91 175H84V182H91V175Z" fill="black"/>
<path d="M105 175H98V182H105V175Z" fill="black"/>
<path d="M119 175H112V182H119V175Z" fill="black"/>
<path d="M126 175H119V182H126V175Z" fill="black"/>
<path d="M133 175H126V182H133V175Z" fill="black"/>
<path d="M147 175H140V182H147V175Z" fill="black"/>
<path d="M154 175H147V182H154V175Z" fill="black"/>
<path d="M161 175H154V182H161V175Z" fill="black"/>
<path d="M189 175H182V182H189V175Z" fill="black"/>
<path d="M196 175H189V182H196V175Z" fill="black"/>
<path d="M217 175H210V182H217V175Z" fill="black"/>
<path d="M84 182H77V189H84V182Z" fill="black"/>
<path d="M105 182H98V189H105V182Z" fill="black"/>
<path d="M119 182H112V189H119V182Z" fill="black"/>
<path d="M126 182H119V189H126V182Z" fill="black"/>
<path d="M147 182H140V189H147V182Z" fill="black"/>
<path d="M154 182H147V189H154V182Z" fill="black"/>
<path d="M161 182H154V189H161V182Z" fill="black"/>
<path d="M168 182H161V189H168V182Z" fill="black"/>
<path d="M175 182H168V189H175V182Z" fill="black"/>
<path d="M182 182H175V189H182V182Z" fill="black"/>
<path d="M189 182H182V189H189V182Z" fill="black"/>
<path d="M210 182H203V189H210V182Z" fill="black"/>
<path d="M105 189H98V196H105V189Z" fill="black"/>
<path d="M119 189H112V196H119V189Z" fill="black"/>
<path d="M126 189H119V196H126V189Z" fill="black"/>
<path d="M140 189H133V196H140V189Z" fill="black"/>
<path d="M147 189H140V196H147V189Z" fill="black"/>
<path d="M154 189H147V196H154V189Z" fill="black"/>
<path d="M161 189H154V196H161V189Z" fill="black"/>
<path d="M182 189H175V196H182V189Z" fill="black"/>
<path d="M189 189H182V196H189V189Z" fill="black"/>
<path d="M203 189H196V196H203V189Z" fill="black"/>
<path d="M210 189H203V196H210V189Z" fill="black"/>
<path d="M77 196H70V203H77V196Z" fill="black"/>
<path d="M84 196H77V203H84V196Z" fill="black"/>
<path d="M98 196H91V203H98V196Z" fill="black"/>
<path d="M105 196H98V203H105V196Z" fill="black"/>
<path d="M112 196H105V203H112V196Z" fill="black"/>
<path d="M119 196H112V203H119V196Z" fill="black"/>
<path d="M126 196H119V203H126V196Z" fill="black"/>
<path d="M133 196H126V203H133V196Z" fill="black"/>
<path d="M168 196H161V203H168V196Z" fill="black"/>
<path d="M189 196H182V203H189V196Z" fill="black"/>
<path d="M203 196H196V203H203V196Z" fill="black"/>
<path d="M210 196H203V203H210V196Z" fill="black"/>
<path d="M217 196H210V203H217V196Z" fill="black"/>
<path d="M91 203H84V210H91V203Z" fill="black"/>
<path d="M98 203H91V210H98V203Z" fill="black"/>
<path d="M112 203H105V210H112V203Z" fill="black"/>
<path d="M119 203H112V210H119V203Z" fill="black"/>
<path d="M126 203H119V210H126V203Z" fill="black"/>
<path d="M161 203H154V210H161V203Z" fill="black"/>
<path d="M168 203H161V210H168V203Z" fill="black"/>
<path d="M175 203H168V210H175V203Z" fill="black"/>
<path d="M196 203H189V210H196V203Z" fill="black"/>
<path d="M84 210H77V217H84V210Z" fill="black"/>
<path d="M98 210H91V217H98V210Z" fill="black"/>
<path d="M126 210H119V217H126V210Z" fill="black"/>
<path d="M133 210H126V217H133V210Z" fill="black"/>
<path d="M147 210H140V217H147V210Z" fill="black"/>
<path d="M161 210H154V217H161V210Z" fill="black"/>
<path d="M182 210H175V217H182V210Z" fill="black"/>
<path d="M189 210H182V217H189V210Z" fill="black"/>
<path d="M196 210H189V217H196V210Z" fill="black"/>
<path d="M217 210H210V217H217V210Z" fill="black"/>
<path d="M55.65 14H21.35H14V21.35V55.65V63H21.35H55.65H63V55.65V21.35V14H55.65ZM55.65 55.65H21.35V21.35H55.65V55.65Z" fill="black"/>
<path d="M209.65 14H175.35H168V21.35V55.65V63H175.35H209.65H217V55.65V21.35V14H209.65ZM209.65 55.65H175.35V21.35H209.65V55.65Z" fill="black"/>
<path d="M55.65 168H21.35H14V175.35V209.65V217H21.35H55.65H63V209.65V175.35V168H55.65ZM55.65 209.65H21.35V175.35H55.65V209.65Z" fill="black"/>
<path d="M49 28H28V49H49V28Z" fill="black"/>
<path d="M203 28H182V49H203V28Z" fill="black"/>
<path d="M49 182H28V203H49V182Z" fill="black"/>
<rect x="80.5" y="80.4385" width="70" height="70" rx="35" fill="white"/>
<g clip-path="url(#clip1_15_7)">
<path d="M143.5 115.5C143.5 100.036 130.964 87.5 115.5 87.5C100.036 87.5 87.5 100.036 87.5 115.5C87.5 130.964 100.036 143.5 115.5 143.5C130.964 143.5 143.5 130.964 143.5 115.5Z" fill="#121314"/>
<path fill-rule="evenodd" clip-rule="evenodd" d="M124.359 104.344C123.997 104.344 123.703 104.638 123.703 105V112.438H121.297C120.934 112.438 120.641 112.731 120.641 113.094V117.906C120.641 118.269 120.934 118.562 121.297 118.562H123.703V130.484C123.703 130.847 123.997 131.141 124.359 131.141H130.594C130.956 131.141 131.25 130.847 131.25 130.484V118.562H134.094C134.456 118.562 134.75 118.269 134.75 117.906V113.094C134.75 112.731 134.456 112.438 134.094 112.438H131.25V105C131.25 104.638 130.956 104.344 130.594 104.344H124.359Z" fill="#FB3BB9"/>
<path fill-rule="evenodd" clip-rule="evenodd" d="M99.5312 99.75C99.1688 99.75 98.875 100.044 98.875 100.406V130.484C98.875 130.847 99.1688 131.141 99.5312 131.141H105.766C106.128 131.141 106.422 130.847 106.422 130.484V116.812H108.828C113.54 116.812 117.359 112.993 117.359 108.281C117.359 103.57 113.54 99.75 108.828 99.75H106.422H103.359H99.5312Z" fill="#FB3BB9"/>
<path d="M98.875 100.406C98.875 100.044 99.1688 99.75 99.5312 99.75H103.797V104.016H98.875V100.406Z" fill="#FDB1E3"/>
<path d="M108.719 99.75H103.797V104.016H108.719V99.75Z" fill="#FD89D4"/>
<path d="M103.797 104.016H108.719V107.625C108.719 107.987 108.425 108.281 108.062 108.281H103.797V104.016Z" fill="#FC62C6"/>
<path d="M103.797 104.016H98.875V108.281H103.797V104.016Z" fill="#FD89D4"/>
</g>
</g>
<defs>
<clipPath id="clip0_15_7">
<rect width="231" height="231" fill="white"/>
</clipPath>
<clipPath id="clip1_15_7">
<rect width="56" height="56" fill="white" transform="translate(87.5 87.5)"/>
</clipPath>
</defs>
</svg>
