<svg width="287" height="94" viewBox="0 0 287 94" fill="none" xmlns="http://www.w3.org/2000/svg">
<rect x="30.4016" y="26.5515" width="41.5" height="41.5" stroke="#9F6D0B" stroke-width="0.5"/>
<path d="M44.6438 55.8015L40.0657 39.8015H43.761L46.4094 50.9186H46.5422L49.4641 39.8015H52.6282L55.5422 50.9421H55.6828L58.3313 39.8015H62.0266L57.4485 55.8015H54.1516L51.1047 45.3405H50.9797L47.9407 55.8015H44.6438Z" fill="#9F6D0B"/>
<rect x="91.812" y="26.5515" width="41.5" height="41.5" stroke="#009886" stroke-width="0.5"/>
<path d="M113.835 39.8015V55.8015H110.453V39.8015H113.835Z" fill="#009886"/>
<rect x="153.222" y="26.5515" width="41.5" height="41.5" stroke="#D83BAE" stroke-width="0.5"/>
<path d="M167.363 55.8015V39.8015H170.746V46.8561H170.957L176.715 39.8015H180.769L174.832 46.9655L180.84 55.8015H176.793L172.41 49.2233L170.746 51.2546V55.8015H167.363Z" fill="#D83BAE"/>
<rect x="214.633" y="26.5515" width="41.5" height="41.5" stroke="#009886" stroke-width="0.5"/>
<path d="M237.67 39.8015V55.8015H234.287V39.8015H237.67Z" fill="#009886"/>
</svg>
