<svg width="22" height="22" viewBox="0 0 22 22" fill="none" xmlns="http://www.w3.org/2000/svg">
<path d="M5.34329 17.0494C1.83864 13.5393 1.84817 7.84389 5.36451 4.32208C8.88566 0.805059 14.58 0.795557 18.0894 4.30086L18.3233 4.53476C18.578 4.78944 18.6415 5.19378 18.4916 5.55504C18.3444 5.90166 17.9929 6.11658 17.6179 6.08933C16.2676 5.98678 14.9377 6.47898 13.9768 7.43703C12.166 9.25098 12.1615 12.1842 13.9667 13.9916C14.923 14.9481 16.241 15.4145 17.6033 15.3272C17.9762 15.3039 18.3267 15.5036 18.4962 15.8359C18.6657 16.1758 18.6008 16.5804 18.3453 16.8359L18.1106 17.0706C14.5866 20.5113 8.96263 20.555 5.44911 17.1535L5.34329 17.0494V17.0494Z" fill="#5F5F5F"/>
</svg>
