<svg width="10" height="6" viewBox="0 0 10 6" fill="none" xmlns="http://www.w3.org/2000/svg">
  <path d="M9.7836 1.28336L5.5061 5.78018C5.44289 5.84926 5.3651 5.90459 5.2779 5.94249C5.19071 5.9804 5.09611 6 5.00041 6C4.90472 6 4.81012 5.9804 4.72292 5.94249C4.63572 5.90459 4.55793 5.84926 4.49472 5.78018L0.217221 1.28336C0.114765 1.17937 0.0448613 1.04973 0.0155233 0.909303C-0.0138147 0.768876 -0.00140006 0.623343 0.0513441 0.489386C0.104088 0.355429 0.195028 0.23847 0.313738 0.151914C0.432449 0.0653578 0.574127 0.0127084 0.722532 0H9.27454C9.57787 0.0245412 9.83992 0.214375 9.94728 0.488659C10.0569 0.762944 9.99233 1.07115 9.7836 1.28336Z" fill="#323232"/>
</svg>
