<svg width="22" height="22" viewBox="0 0 22 22" fill="none" xmlns="http://www.w3.org/2000/svg">
  <path d="M6.13236 9.23796C5.64636 9.23796 5.24688 8.83974 5.24688 8.35248C5.24688 7.86521 5.64509 7.467 6.13236 7.467H11.8854C12.3714 7.467 12.7709 7.86521 12.7709 8.35248C12.7709 8.83974 12.3714 9.23796 11.8854 9.23796H6.13236ZM6.13236 12.7773C5.64636 12.7773 5.24688 12.3791 5.24688 11.8919C5.24688 11.4059 5.64509 11.0076 6.13236 11.0076H16.7531C17.2403 11.0076 17.6385 11.4059 17.6385 11.8919C17.6385 12.3791 17.2403 12.7773 16.7531 12.7773H6.13236ZM0.822021 10.3435C0.822021 12.4783 1.65024 14.3575 3.03446 15.8154V19.8573C3.03446 20.5075 3.46703 21.1957 4.80415 20.3014C4.84613 20.2746 6.62727 19.1462 7.6298 18.5126C8.68573 18.8116 9.81936 18.9731 11 18.9731C16.622 18.9731 21.1779 15.3536 21.1779 10.3448C21.1779 5.3347 16.622 1.27243 11 1.27243C5.3792 1.27243 0.822021 5.33343 0.822021 10.3435Z" fill="#575757"/>
</svg>
