<?xml version="1.0" standalone="no"?><!DOCTYPE svg PUBLIC "-//W3C//DTD SVG 1.1//EN" "http://www.w3.org/Graphics/SVG/1.1/DTD/svg11.dtd"><svg t="1636297796827" class="icon" viewBox="0 0 1024 1024" version="1.1" xmlns="http://www.w3.org/2000/svg" p-id="29445" xmlns:xlink="http://www.w3.org/1999/xlink" width="200" height="200"><defs><style type="text/css"></style></defs><path d="M807.402917 154.927535 666.739247 462.454584l-40.929178 0 150.049434-325.712223L544.202423 136.742361l0 760.995981c47.753607 1.716084 291.341415 79.56001 291.341415 79.56001l0 39.196721L180.777273 1016.495072l0-41.686425c0 0 243.775073-77.070306 281.263895-77.070306L462.041168 136.750547 243.023966 136.750547l150.049434 325.704037-40.929178 0L211.473389 154.927535 70.794369 462.454584 29.873378 462.454584l150.903895-329.22421L180.777273 95.258551l2.563382 0 249.226225 0c0-49.653887 33.847899-90.26891 73.261561-90.26891 41.741683 0 73.253374 42.903136 73.253374 90.26891L835.543837 95.258551l0 32.541137 153.459091 334.654896-40.920992 0L807.402917 154.927535 807.402917 154.927535z" p-id="29446"></path><path d="M395.619386 505.059937c0 98.863658-69.650313 188.81125-184.144974 188.81125-111.932302 0-184.15316-89.947592-184.15316-188.81125C27.320229 505.21241 395.619386 505.21241 395.619386 505.059937L395.619386 505.059937z" p-id="29447"></path><path d="M628.364241 505.059937c0 0.152473 368.31553 0.152473 368.31553 0 0 98.863658-69.6585 188.81125-184.15316 188.81125C700.586123 693.871187 628.364241 603.923596 628.364241 505.059937L628.364241 505.059937z" p-id="29448"></path><path d="M628.364241 505.059937" p-id="29449"></path></svg>