<svg width="25" height="25" viewBox="0 0 25 25" fill="none" xmlns="http://www.w3.org/2000/svg">
<path d="M15.9077 14.4714H15.1177L14.8377 14.2014C15.8177 13.0614 16.4077 11.5814 16.4077 9.97144C16.4077 6.38144 13.4977 3.47144 9.90771 3.47144C6.31771 3.47144 3.40771 6.38144 3.40771 9.97144C3.40771 13.5614 6.31771 16.4714 9.90771 16.4714C11.5177 16.4714 12.9977 15.8814 14.1377 14.9014L14.4077 15.1814V15.9714L19.4077 20.9614L20.8977 19.4714L15.9077 14.4714ZM9.90771 14.4714C7.41772 14.4714 5.40771 12.4614 5.40771 9.97144C5.40771 7.48144 7.41772 5.47144 9.90771 5.47144C12.3977 5.47144 14.4077 7.48144 14.4077 9.97144C14.4077 12.4614 12.3977 14.4714 9.90771 14.4714Z" fill="black"/>
</svg>
