<svg width="21" height="22" viewBox="0 0 21 22" fill="none" xmlns="http://www.w3.org/2000/svg">
  <path d="M10.4226 8.00459C9.68747 8.00459 8.99901 8.28981 8.47775 8.81107C7.95894 9.33234 7.67126 10.0208 7.67126 10.756C7.67126 11.4912 7.95894 12.1796 8.47775 12.7009C8.99901 13.2197 9.68747 13.5074 10.4226 13.5074C11.1578 13.5074 11.8463 13.2197 12.3675 12.7009C12.8863 12.1796 13.174 11.4912 13.174 10.756C13.174 10.0208 12.8863 9.33234 12.3675 8.81107C11.8463 8.28981 11.1578 8.00459 10.4226 8.00459V8.00459Z" fill="#575757"/>
  <path d="M20.5602 13.795L18.9521 12.4206C19.0283 11.9534 19.0677 11.4764 19.0677 11.0018C19.0677 10.5273 19.0283 10.0478 18.9521 9.58312L20.5602 8.20866C20.8085 7.99721 20.8995 7.65298 20.7888 7.34317L20.7667 7.27924C20.3217 6.04001 19.6652 4.89913 18.8095 3.89349L18.7652 3.84186C18.5538 3.59352 18.212 3.50008 17.9022 3.60827L15.9057 4.31886C15.168 3.714 14.3468 3.23699 13.4567 2.90506L13.0707 0.817547C13.0117 0.495446 12.7584 0.244649 12.4363 0.185638L12.3699 0.173345C11.0914 -0.0577815 9.74395 -0.0577815 8.46539 0.173345L8.399 0.185638C8.0769 0.244649 7.82364 0.495446 7.76463 0.817547L7.37614 2.91489C6.49344 3.24929 5.67712 3.72383 4.9444 4.32378L2.93311 3.60827C2.62577 3.50008 2.28154 3.59106 2.07008 3.84186L2.02582 3.89349C1.17016 4.90405 0.513668 6.04247 0.0686274 7.27924L0.0464983 7.34317C-0.0641471 7.65052 0.0268281 7.99475 0.275166 8.20866L1.90288 9.59788C1.82666 10.0601 1.78978 10.5322 1.78978 10.9994C1.78978 11.4715 1.82666 11.9436 1.90288 12.4009L0.280083 13.7901C0.0317456 14.0016 -0.0592296 14.3458 0.0514158 14.6556L0.073545 14.7195C0.518585 15.9563 1.17508 17.0996 2.03074 18.1053L2.075 18.1569C2.28645 18.4053 2.62822 18.4987 2.93803 18.3905L4.94932 17.675C5.68204 18.2774 6.49836 18.7544 7.38106 19.0839L7.76955 21.1812C7.82856 21.5033 8.08181 21.7541 8.40392 21.8131L8.4703 21.8254C9.11205 21.941 9.76608 22 10.4226 22C11.0791 22 11.7356 21.941 12.3749 21.8254L12.4412 21.8131C12.7633 21.7541 13.0166 21.5033 13.0756 21.1812L13.4616 19.0937C14.3517 18.7593 15.173 18.2848 15.9106 17.6799L17.9071 18.3905C18.2145 18.4987 18.5587 18.4077 18.7702 18.1569L18.8144 18.1053C19.6701 17.0947 20.3266 15.9563 20.7716 14.7195L20.7937 14.6556C20.8995 14.3507 20.8085 14.0089 20.5602 13.795ZM10.4226 15.0785C8.0351 15.0785 6.10003 13.1434 6.10003 10.756C6.10003 8.36848 8.0351 6.43342 10.4226 6.43342C12.8101 6.43342 14.7451 8.36848 14.7451 10.756C14.7451 13.1434 12.8101 15.0785 10.4226 15.0785Z" fill="#575757"/>
</svg>
