<svg width="22" height="22" viewBox="0 0 22 22" fill="none" xmlns="http://www.w3.org/2000/svg">
  <path d="M8.06439 0.687502V5.5C8.06439 6.1875 3.85002 6.1875 3.85002 5.5V0.687502C2.87354 1.11371 2.0493 1.82608 1.48616 2.73054C0.923018 3.63499 0.647458 4.68898 0.695871 5.75332C0.744284 6.81766 1.11439 7.84229 1.75732 8.69188C2.40025 9.54147 3.28575 10.1761 4.29689 10.5119L2.83939 17.1875C2.74117 17.6406 2.74117 18.1094 2.83939 18.5625C2.92251 18.9786 3.0878 19.3739 3.3256 19.7253C3.56339 20.0768 3.8689 20.3772 4.22424 20.6091C4.57959 20.841 4.97762 20.9997 5.39505 21.0758C5.81247 21.152 6.24089 21.1441 6.65523 21.0526C7.06957 20.9612 7.46149 20.7879 7.80807 20.5431C8.15464 20.2983 8.44888 19.9868 8.67358 19.6269C8.89828 19.267 9.04892 18.8658 9.11667 18.447C9.18441 18.0281 9.16792 17.5999 9.06814 17.1875L7.61064 10.4981C8.61783 10.1605 9.49938 9.52623 10.1395 8.67853C10.7797 7.83082 11.1485 6.80935 11.1976 5.74822C11.2467 4.68709 10.9737 3.63593 10.4145 2.73276C9.85535 1.82959 9.03612 1.11663 8.06439 0.687502ZM5.96064 19.25C5.67102 19.25 5.38789 19.1641 5.14708 19.0032C4.90626 18.8423 4.71857 18.6136 4.60774 18.346C4.4969 18.0784 4.4679 17.784 4.52441 17.4999C4.58091 17.2159 4.72038 16.955 4.92517 16.7502C5.12997 16.5454 5.3909 16.4059 5.67496 16.3494C5.95902 16.2929 6.25346 16.3219 6.52104 16.4327C6.78861 16.5436 7.01732 16.7312 7.17823 16.9721C7.33913 17.2129 7.42502 17.496 7.42502 17.7856C7.42502 18.174 7.27074 18.5465 6.99611 18.8211C6.72149 19.0957 6.34902 19.25 5.96064 19.25ZM18.5625 11.6875V6.1875L19.6144 4.61313C19.715 4.46305 19.7776 4.29075 19.7968 4.11109C19.8159 3.93143 19.7911 3.7498 19.7244 3.58188L18.8444 1.375C18.7599 1.17114 18.6168 0.996956 18.4332 0.874554C18.2496 0.752152 18.0338 0.687048 17.8131 0.687502H16.5688C16.3481 0.687048 16.1323 0.752152 15.9487 0.874554C15.7651 0.996956 15.622 1.17114 15.5375 1.375L14.6575 3.58188C14.5908 3.7498 14.566 3.93143 14.5852 4.11109C14.6043 4.29075 14.6669 4.46305 14.7675 4.61313L15.8125 6.1875V11.6875C15.0832 11.6875 14.3837 11.9772 13.868 12.493C13.3522 13.0087 13.0625 13.7082 13.0625 14.4375V18.5625C13.0625 19.2918 13.3522 19.9913 13.868 20.507C14.3837 21.0228 15.0832 21.3125 15.8125 21.3125H18.5625C19.2919 21.3125 19.9913 21.0228 20.5071 20.507C21.0228 19.9913 21.3125 19.2918 21.3125 18.5625V14.4375C21.3125 13.7082 21.0228 13.0087 20.5071 12.493C19.9913 11.9772 19.2919 11.6875 18.5625 11.6875Z" fill="#575757"/>
</svg>
