<svg width="16" height="16" viewBox="0 0 16 16" fill="none" xmlns="http://www.w3.org/2000/svg">
  <path d="M12.9322 1.79234H3.06811C2.36482 1.79234 1.79248 2.36453 1.79248 3.06797V12.932C1.79248 13.6355 2.36467 14.2077 3.06811 14.2077H12.9323C13.6356 14.2077 14.208 13.6355 14.208 12.932V3.06797C14.2078 2.36453 13.6356 1.79234 12.9322 1.79234ZM12.0759 6.54187L8.94076 9.75453L6.40451 8.24922L4.68139 10.0664C4.51545 10.277 4.21014 10.3134 3.99936 10.1473C3.78873 9.98141 3.75232 9.67609 3.91842 9.46531L6.18998 6.95188L8.74014 8.46625L11.3244 5.92625C11.4944 5.71875 11.8003 5.68813 12.0078 5.85813C12.2155 6.02828 12.2459 6.33422 12.0759 6.54187Z" fill="black" fill-opacity="0.65"/>
</svg>
