<?xml version="1.0" standalone="no"?><!DOCTYPE svg PUBLIC "-//W3C//DTD SVG 1.1//EN" "http://www.w3.org/Graphics/SVG/1.1/DTD/svg11.dtd"><svg t="1636297933731" class="icon" viewBox="0 0 1024 1024" version="1.1" xmlns="http://www.w3.org/2000/svg" p-id="33071" xmlns:xlink="http://www.w3.org/1999/xlink" width="200" height="200"><defs><style type="text/css"></style></defs><path d="M875.52 512c10.24-10.24 17.92-20.48 25.6-30.72 66.56-87.04 84.48-168.96 53.76-225.28C921.6 199.68 844.8 176.64 734.72 189.44c-12.8 2.56-25.6 5.12-40.96 7.68C650.24 76.8 586.24 0 512 0c-74.24 0-138.24 76.8-181.76 197.12-12.8-2.56-28.16-5.12-40.96-7.68-107.52-12.8-186.88 10.24-217.6 66.56-33.28 56.32-12.8 135.68 53.76 225.28 7.68 10.24 15.36 20.48 25.6 30.72-10.24 10.24-17.92 20.48-25.6 30.72-66.56 87.04-84.48 168.96-53.76 225.28 25.6 46.08 81.92 71.68 161.28 71.68 17.92 0 38.4 0 58.88-5.12 12.8-2.56 25.6-5.12 40.96-7.68 40.96 120.32 104.96 197.12 179.2 197.12 74.24 0 138.24-76.8 181.76-197.12 12.8 2.56 28.16 5.12 40.96 7.68 20.48 2.56 40.96 5.12 58.88 5.12 79.36 0 135.68-23.04 161.28-71.68 33.28-56.32 12.8-135.68-53.76-225.28-7.68-10.24-17.92-20.48-25.6-30.72zM284.16 783.36c-87.04 10.24-148.48-2.56-168.96-40.96-20.48-38.4-2.56-97.28 48.64-168.96 5.12-7.68 12.8-15.36 20.48-25.6 30.72 30.72 66.56 61.44 107.52 92.16 5.12 48.64 15.36 94.72 25.6 138.24-12.8 2.56-23.04 5.12-33.28 5.12z m0-212.48c-23.04-20.48-46.08-38.4-66.56-58.88 20.48-20.48 40.96-40.96 66.56-58.88 0 20.48-2.56 38.4-2.56 58.88s2.56 40.96 2.56 58.88z m5.12-186.88c-38.4 28.16-74.24 58.88-107.52 92.16-7.68-7.68-12.8-15.36-20.48-25.6-53.76-69.12-71.68-130.56-48.64-168.96 17.92-28.16 58.88-46.08 117.76-46.08 15.36 0 33.28 0 51.2 2.56 10.24 2.56 20.48 2.56 30.72 5.12-7.68 43.52-15.36 89.6-23.04 140.8z m386.56-40.96c-15.36-10.24-33.28-20.48-48.64-30.72-17.92-10.24-35.84-20.48-51.2-28.16 28.16-10.24 56.32-20.48 84.48-28.16 5.12 28.16 10.24 56.32 15.36 87.04zM512 51.2c53.76 0 99.84 64 130.56 156.16-40.96 12.8-87.04 28.16-130.56 48.64-43.52-20.48-89.6-35.84-130.56-46.08C412.16 115.2 458.24 51.2 512 51.2z m-145.92 204.8c28.16 7.68 56.32 15.36 84.48 28.16-17.92 10.24-35.84 17.92-51.2 28.16-17.92 10.24-33.28 20.48-48.64 30.72 2.56-30.72 7.68-58.88 15.36-87.04z m-17.92 424.96c15.36 10.24 33.28 20.48 48.64 30.72 17.92 10.24 35.84 20.48 51.2 28.16-28.16 10.24-56.32 20.48-84.48 28.16-5.12-28.16-10.24-56.32-15.36-87.04zM512 972.8c-53.76 0-99.84-64-130.56-156.16 43.52-10.24 87.04-28.16 130.56-46.08 43.52 20.48 89.6 35.84 130.56 46.08-30.72 92.16-76.8 156.16-130.56 156.16z m145.92-204.8c-28.16-7.68-56.32-15.36-84.48-28.16 17.92-10.24 35.84-17.92 51.2-28.16 17.92-10.24 33.28-20.48 48.64-30.72-2.56 30.72-7.68 58.88-15.36 87.04z m25.6-156.16c-25.6 17.92-53.76 35.84-84.48 53.76-30.72 17.92-58.88 33.28-89.6 46.08-30.72-12.8-58.88-28.16-89.6-46.08l-84.48-53.76c-2.56-33.28-5.12-66.56-5.12-99.84s2.56-66.56 5.12-99.84c25.6-17.92 53.76-35.84 84.48-53.76 30.72-17.92 58.88-33.28 89.6-46.08 30.72 12.8 58.88 28.16 89.6 46.08l84.48 53.76c2.56 33.28 5.12 66.56 5.12 99.84s0 66.56-5.12 99.84z m56.32-371.2c17.92-2.56 35.84-2.56 51.2-2.56 58.88 0 99.84 15.36 117.76 46.08 20.48 38.4 2.56 97.28-48.64 168.96-5.12 7.68-12.8 15.36-20.48 25.6-30.72-30.72-66.56-61.44-107.52-92.16-5.12-48.64-15.36-94.72-25.6-138.24 12.8-5.12 23.04-7.68 33.28-7.68z m0 212.48c23.04 20.48 46.08 38.4 66.56 58.88-20.48 20.48-40.96 40.96-66.56 58.88 0-20.48 2.56-38.4 2.56-58.88s-2.56-40.96-2.56-58.88zM908.8 742.4c-20.48 38.4-81.92 51.2-168.96 40.96-10.24-2.56-20.48-2.56-30.72-5.12 10.24-43.52 20.48-89.6 25.6-138.24 38.4-28.16 74.24-58.88 107.52-92.16 7.68 7.68 12.8 15.36 20.48 25.6 48.64 71.68 66.56 130.56 46.08 168.96zM512 445.44c-35.84 0-64 28.16-64 64s28.16 64 64 64 64-28.16 64-64c0-33.28-28.16-64-64-64z" p-id="33072"></path></svg>