<svg xmlns="http://www.w3.org/2000/svg" width="130" height="130" viewBox="0 0 130 130"><path d="M46,119.46V107.78h41.5q11.22-33,19.53-63l13.66,4.06q-5.37,17.26-17.08,50.78c-1.31,3.73-2.28,6.43-2.93,8.12H130v11.68Z"/><polygon points="48.48 38.21 48.48 25.52 83.14 25.52 76.79 5.21 91.43 3.68 97.78 25.52 127.56 25.52 127.56 38.21 48.48 38.21"/><path d="M69,99.15Q63.11,75.29,54.33,48.88L67,44.82Q69.46,53,74.84,70.21q4.88,17.27,7.32,25.39Z"/><path d="M6.81,54.22q-1.51-3-4.57-8.63a21.57,21.57,0,0,1-2-3.05A133.41,133.41,0,0,0,16.46,4.46L29.16,7c-.69,2-1.7,4.91-3.05,8.63a38.42,38.42,0,0,0-2,5.59H45.91V32.39H19.51A41.31,41.31,0,0,0,17,37a91,91,0,0,1-5.08,9.14H42.36V57.27H29.66V72H44.9V83.17H29.66v22.34Q33.72,103,44.9,94.85q1,7.62,1.52,13.2-9.64,5.08-19.8,11.68c-.69.68-1.7,1.69-3.05,3a27.26,27.26,0,0,0-3.05,2.54l-7.61-10.67Q17.47,111.1,17,104.5V83.17H2.24V72H17V57.27H7.83V53.21Z"/></svg>