<svg xmlns="http://www.w3.org/2000/svg" width="130" height="130" viewBox="0 0 130 130"><path d="M127.21,94.7c-.34,2-.69,4.91-1,8.63q-1,7.62-1.52,10.66-2,12.2-12.19,11.68-9.65,0-13.71-13.71-3.55-10.15-3-44.68V54.07h-41l-2.59,6.08H85.49V98.52H76.56V66.3H25.38V98.52H16.45V60.15H41.87c.71-1.82,1.77-4.83,2.2-6.08H11.93L12,44.83,2.79,36.3q16.76-14.73,24.38-32L41.39,5.83l-3.56,6.6h83.28v9.65H32.25c-4.4,6.45-16,19.13-19,22.42l94.67-.08V68.29q0,26.92,2.54,40.63c1,2.71,2.2,4.06,3.55,4.06,1.35.33,2.2-.85,2.54-3.56a157.24,157.24,0,0,0,1.53-17.77A72.33,72.33,0,0,1,127.21,94.7Z"/><path d="M71.75,72.48q-4.47,2.89-10.31,6.37l-3.77-4.34a104.52,104.52,0,0,0,10-5.79Z"/><path d="M27.44,93.31a60.52,60.52,0,0,0,17.17-8.39H29.16V79.43H47V67.28h7.9V79.43H72.78v5.49H54.92v4.63L58,86.08l8.24,3.47c3.44,1.55,6.07,2.7,7.9,3.47l-3.78,4.92q-8.93-4.34-15.45-7.23V96.2H47V89.55q-5.51,4.64-15.8,9c-.46-.77-1.26-1.93-2.4-3.47A12.74,12.74,0,0,1,27.44,93.31Z"/><rect x="28.69" y="29.19" width="82.27" height="8.12"/><path d="M44.61,74.8l-4.46,4a97.68,97.68,0,0,0-9.62-6.37l4.12-3.76Q39.47,71.33,44.61,74.8Z"/><path d="M92.36,116.16c-.92,1.35-3.56,6.46-3.78,6.65q-30.91-2.9-37.1-11.86-5.83,8.68-37.78,12.73c-.91-1.54-2.29-3.66-4.12-6.36q31.26-3.19,34-9.55H11.64V102H46a26,26,0,0,0,.69-4H56c0,.58-.34,4-.34,4H90.3v5.78H58.35Q63.17,114.72,92.36,116.16Z"/></svg>