<svg width="512" height="512" viewBox="0 0 512 512" fill="none" xmlns="http://www.w3.org/2000/svg">
<path d="M357.587 0H154.413C69.1329 0 0 69.1329 0 154.413V357.587C0 442.867 69.1329 512 154.413 512H357.587C442.867 512 512 442.867 512 357.587V154.413C512 69.1329 442.867 0 357.587 0Z" fill="#007CA3"/>
<path d="M268.19 353.524L193.016 404.317L150.349 353.524H81.2698V134.095H434.794V353.524H268.19Z" fill="white"/>
<path d="M195.721 281.035V234.066C195.721 230.467 194.99 227.347 193.529 224.705C192.124 222.007 189.987 219.927 187.12 218.465C184.253 217.003 180.711 216.273 176.495 216.273C172.56 216.273 169.103 216.947 166.123 218.296C163.2 219.646 160.895 221.417 159.208 223.609C157.578 225.802 156.763 228.162 156.763 230.692H141.163C141.163 227.432 142.006 224.199 143.692 220.995C145.379 217.79 147.796 214.895 150.945 212.309C154.149 209.667 157.972 207.587 162.413 206.069C166.91 204.495 171.913 203.708 177.423 203.708C184.056 203.708 189.903 204.832 194.962 207.081C200.078 209.33 204.069 212.731 206.937 217.285C209.86 221.782 211.322 227.432 211.322 234.234V276.734C211.322 279.77 211.574 283.002 212.081 286.431C212.643 289.861 213.458 292.812 214.526 295.286V296.635H198.251C197.464 294.836 196.846 292.447 196.396 289.467C195.946 286.431 195.721 283.621 195.721 281.035ZM198.42 241.317L198.588 252.28H182.819C178.378 252.28 174.415 252.645 170.93 253.376C167.444 254.051 164.521 255.09 162.16 256.496C159.798 257.901 158 259.672 156.763 261.808C155.526 263.888 154.908 266.334 154.908 269.145C154.908 272.012 155.554 274.626 156.847 276.987C158.14 279.348 160.08 281.231 162.666 282.637C165.308 283.986 168.54 284.66 172.363 284.66C177.141 284.66 181.358 283.649 185.012 281.625C188.666 279.601 191.561 277.128 193.697 274.204C195.89 271.281 197.07 268.442 197.239 265.687L203.901 273.192C203.507 275.553 202.439 278.167 200.696 281.035C198.954 283.902 196.621 286.656 193.697 289.299C190.831 291.885 187.401 294.049 183.41 295.792C179.475 297.478 175.033 298.321 170.086 298.321C163.903 298.321 158.477 297.113 153.812 294.695C149.202 292.278 145.604 289.045 143.018 284.998C140.488 280.894 139.223 276.312 139.223 271.253C139.223 266.362 140.179 262.061 142.09 258.351C144.002 254.585 146.756 251.465 150.354 248.991C153.952 246.461 158.281 244.55 163.34 243.257C168.4 241.964 174.05 241.317 180.29 241.317H198.42Z" fill="#007CA3"/>
<path d="M353.386 222.37C342.398 256.813 319.683 276.358 283.128 285.972C285.664 289.036 289.678 295.164 291.157 298.333C328.98 286.5 353.597 264.314 366.909 226.28L353.386 222.37ZM312.604 223.216L299.926 227.019C313.133 263.574 334.897 287.768 374.516 298.122C376.523 294.424 380.644 288.402 383.707 285.444C346.096 276.992 323.275 254.488 312.604 223.216ZM285.03 215.503V227.97H381.806V215.503H285.03ZM326.55 198.81V223.11H339.651V198.81H326.55Z" fill="#007CA3"/>
</svg>
