<svg width="22" height="22" viewBox="0 0 22 22" fill="none" xmlns="http://www.w3.org/2000/svg">
  <g clip-path="url(#clip0_122_1303)">
    <path d="M9.79491 6.17278C9.7557 6.07646 9.67987 5.99964 9.58407 5.95919C9.48826 5.91874 9.38032 5.91796 9.28395 5.95704C8.62247 6.22675 8.03304 6.64708 7.56254 7.1846C7.09204 7.72212 6.75345 8.362 6.57369 9.05337C6.55263 9.15233 6.5706 9.25561 6.62386 9.34165C6.67712 9.42768 6.76156 9.48981 6.85953 9.51508C6.95751 9.54035 7.06146 9.52681 7.14969 9.47727C7.23792 9.42773 7.3036 9.34603 7.33304 9.24922C7.48187 8.67636 7.76235 8.14615 8.15217 7.70078C8.54198 7.2554 9.03036 6.90715 9.57845 6.68375C9.6749 6.64468 9.75189 6.5689 9.79248 6.47308C9.83307 6.37726 9.83394 6.26925 9.79491 6.17278ZM13.6144 17.1472C13.6144 17.4361 13.3802 17.6703 13.0914 17.6703H8.90853C8.84003 17.6722 8.77182 17.6607 8.70778 17.6363C8.64375 17.6118 8.58515 17.5751 8.53533 17.528C8.43472 17.433 8.37597 17.3019 8.37202 17.1635C8.36807 17.0252 8.41923 16.891 8.51426 16.7903C8.60929 16.6897 8.74039 16.631 8.87873 16.627C8.55227 13.6854 5.50916 13.6613 5.50916 10.1973C5.50916 8.7411 6.08765 7.3445 7.11738 6.31477C8.1471 5.28505 9.5437 4.70656 10.9999 4.70656C12.4562 4.70656 13.8528 5.28505 14.8825 6.31477C15.9122 7.3445 16.4907 8.7411 16.4907 10.1973C16.4907 13.6613 13.4469 13.6854 13.1219 16.627C13.3965 16.6433 13.6144 16.8683 13.6144 17.1472V17.1472ZM16.1763 5.28142C16.245 5.2816 16.313 5.26822 16.3764 5.24203C16.4399 5.21585 16.4975 5.17738 16.5461 5.12884L18.0257 3.64916C18.0783 3.6016 18.1206 3.54386 18.1502 3.47943C18.1797 3.41501 18.1959 3.34525 18.1976 3.2744C18.1994 3.20355 18.1867 3.13308 18.1604 3.06727C18.1341 3.00145 18.0947 2.94167 18.0446 2.89156C17.9945 2.84144 17.9347 2.80203 17.8689 2.77573C17.8031 2.74942 17.7326 2.73676 17.6618 2.73852C17.5909 2.74028 17.5211 2.75642 17.4567 2.78597C17.3923 2.81551 17.3345 2.85784 17.287 2.91038L15.8073 4.38937C15.7345 4.46255 15.6849 4.55567 15.6649 4.65698C15.6448 4.75829 15.6553 4.86325 15.6948 4.95865C15.7343 5.05405 15.8012 5.13561 15.8871 5.19305C15.9729 5.25049 16.0738 5.28124 16.1771 5.28142H16.1763ZM20.4131 9.41243H18.321C18.1822 9.41243 18.0492 9.46754 17.9511 9.56563C17.853 9.66372 17.7979 9.79675 17.7979 9.93547C17.7979 10.0742 17.853 10.2072 17.9511 10.3053C18.0492 10.4034 18.1822 10.4585 18.321 10.4585H20.4124C20.5511 10.4585 20.6842 10.4034 20.7822 10.3053C20.8803 10.2072 20.9354 10.0742 20.9354 9.93547C20.9354 9.79675 20.8803 9.66372 20.7822 9.56563C20.6842 9.46754 20.5511 9.41243 20.4124 9.41243H20.4131ZM16.5461 14.7421C16.4979 14.6918 16.4402 14.6515 16.3763 14.6237C16.3124 14.5959 16.2435 14.5812 16.1738 14.5804C16.1042 14.5796 16.035 14.5928 15.9705 14.6191C15.9059 14.6454 15.8473 14.6843 15.798 14.7336C15.7487 14.7829 15.7098 14.8415 15.6835 14.906C15.6572 14.9706 15.6441 15.0397 15.6449 15.1094C15.6457 15.1791 15.6604 15.2479 15.6881 15.3119C15.7159 15.3758 15.7562 15.4335 15.8066 15.4816L17.2863 16.9606C17.3347 17.0093 17.3922 17.0479 17.4556 17.0743C17.519 17.1006 17.587 17.1142 17.6557 17.1142C17.7243 17.1142 17.7923 17.1006 17.8557 17.0743C17.9191 17.0479 17.9766 17.0093 18.025 16.9606C18.1229 16.8626 18.1778 16.7297 18.1778 16.5912C18.1778 16.4527 18.1229 16.3199 18.025 16.2218L16.5461 14.7421ZM5.45382 14.7421L3.97415 16.2218C3.88232 16.3211 3.83252 16.4521 3.83519 16.5873C3.83786 16.7225 3.89279 16.8514 3.98846 16.947C4.08413 17.0426 4.2131 17.0974 4.34831 17.0999C4.48351 17.1025 4.61445 17.0525 4.71364 16.9606L6.19331 15.4816C6.24376 15.4335 6.28407 15.3758 6.31188 15.3118C6.3397 15.2479 6.35445 15.179 6.35527 15.1093C6.35609 15.0396 6.34296 14.9704 6.31665 14.9059C6.29035 14.8413 6.2514 14.7826 6.2021 14.7333C6.1528 14.684 6.09414 14.6451 6.02957 14.6188C5.965 14.5925 5.89582 14.5794 5.82611 14.5802C5.75639 14.581 5.68754 14.5958 5.62361 14.6236C5.55967 14.6514 5.50195 14.6917 5.45382 14.7421ZM4.20122 9.93549C4.20122 9.86681 4.18769 9.79879 4.1614 9.73534C4.13512 9.67188 4.09659 9.61422 4.04802 9.56565C3.99945 9.51708 3.94179 9.47855 3.87834 9.45227C3.81488 9.42598 3.74686 9.41246 3.67818 9.41246H1.58749C1.44877 9.41246 1.31574 9.46756 1.21765 9.56565C1.11956 9.66374 1.06445 9.79677 1.06445 9.93549C1.06445 10.0742 1.11956 10.2072 1.21765 10.3053C1.31574 10.4034 1.44877 10.4585 1.58749 10.4585H3.67891C3.96774 10.4585 4.20195 10.2243 4.20195 9.93549H4.20122ZM5.45309 5.12884C5.50146 5.17772 5.55905 5.21652 5.62251 5.243C5.68598 5.26948 5.75407 5.28312 5.82283 5.28312C5.8916 5.28312 5.95969 5.26948 6.02316 5.243C6.08662 5.21652 6.14421 5.17772 6.19258 5.12884C6.29061 5.03076 6.34568 4.89776 6.34568 4.75909C6.34568 4.62042 6.29061 4.48742 6.19258 4.38934L4.7136 2.90967C4.66546 2.85928 4.60773 2.81901 4.54381 2.79123C4.47989 2.76346 4.41106 2.74874 4.34137 2.74795C4.27168 2.74715 4.20253 2.76029 4.13799 2.78659C4.07345 2.81289 4.01482 2.85182 3.96554 2.90111C3.91626 2.95039 3.87732 3.00902 3.85102 3.07356C3.82472 3.1381 3.81158 3.20725 3.81238 3.27694C3.81318 3.34663 3.82789 3.41546 3.85567 3.47938C3.88344 3.5433 3.92371 3.60102 3.9741 3.64916L5.4538 5.12884H5.45309ZM10.9999 3.13678C11.2888 3.13678 11.523 2.90258 11.523 2.61375V0.523037C11.523 0.384319 11.4679 0.251283 11.3698 0.153194C11.2717 0.0551055 11.1387 0 10.9999 0C10.8612 0 10.7282 0.0551055 10.6301 0.153194C10.532 0.251283 10.4769 0.384319 10.4769 0.523037V2.61446C10.4769 2.90329 10.7111 3.13749 10.9999 3.13749V3.13678ZM13.0914 19.6119H8.90853C8.82519 19.612 8.74307 19.632 8.66896 19.6701C8.59485 19.7083 8.53088 19.7635 8.48234 19.8312C8.4338 19.899 8.40208 19.9773 8.38981 20.0597C8.37753 20.1422 8.38505 20.2263 8.41174 20.3053C8.48131 20.5231 8.702 20.6573 8.92982 20.6573H8.93833C9.23995 20.6573 9.51602 20.8283 9.65157 21.0987L9.65651 21.1094C9.74586 21.2879 9.88314 21.438 10.053 21.5429C10.2228 21.6478 10.4185 21.7034 10.6181 21.7034H11.3817C11.7891 21.7034 12.161 21.4734 12.3427 21.1094L12.3483 21.0987C12.4832 20.8283 12.7599 20.6573 13.0616 20.6573H13.0694C13.2979 20.6573 13.5186 20.5225 13.5874 20.3053C13.6143 20.2264 13.6219 20.1422 13.6098 20.0598C13.5976 19.9773 13.566 19.899 13.5175 19.8312C13.469 19.7634 13.405 19.7082 13.3309 19.6701C13.2568 19.6319 13.1747 19.612 13.0914 19.6119ZM13.6144 18.6262C13.6144 18.915 13.3802 19.1492 13.0914 19.1492H8.90853C8.76981 19.1492 8.63677 19.0941 8.53868 18.996C8.4406 18.8979 8.38549 18.7649 8.38549 18.6262C8.38549 18.4875 8.4406 18.3544 8.53868 18.2563C8.63677 18.1583 8.76981 18.1031 8.90853 18.1031H13.0914C13.3802 18.1031 13.6144 18.3374 13.6144 18.6262Z" fill="#575757"/>
  </g>
  <defs>
    <clipPath id="clip0_122_1303">
      <rect width="22" height="22" fill="white"/>
    </clipPath>
  </defs>
</svg>
