<svg width="25" height="25" viewBox="0 0 25 25" fill="none" xmlns="http://www.w3.org/2000/svg">
<path d="M17.0229 3.21643C15.2829 3.21643 13.6129 4.02643 12.5229 5.30643C11.4329 4.02643 9.76295 3.21643 8.02295 3.21643C4.94295 3.21643 2.52295 5.63643 2.52295 8.71643C2.52295 12.4964 5.92295 15.5764 11.0729 20.2564L12.5229 21.5664L13.9729 20.2464C19.1229 15.5764 22.5229 12.4964 22.5229 8.71643C22.5229 5.63643 20.1029 3.21643 17.0229 3.21643ZM12.6229 18.7664L12.5229 18.8664L12.4229 18.7664C7.66295 14.4564 4.52295 11.6064 4.52295 8.71643C4.52295 6.71643 6.02295 5.21643 8.02295 5.21643C9.56295 5.21643 11.0629 6.20643 11.5929 7.57643H13.4629C13.9829 6.20643 15.4829 5.21643 17.0229 5.21643C19.0229 5.21643 20.5229 6.71643 20.5229 8.71643C20.5229 11.6064 17.3829 14.4564 12.6229 18.7664Z" fill="black"/>
</svg>
