<?xml version="1.0" standalone="no"?><!DOCTYPE svg PUBLIC "-//W3C//DTD SVG 1.1//EN" "http://www.w3.org/Graphics/SVG/1.1/DTD/svg11.dtd"><svg t="1653492191374" class="icon" viewBox="0 0 1024 1024" version="1.1" xmlns="http://www.w3.org/2000/svg" p-id="14155" xmlns:xlink="http://www.w3.org/1999/xlink" width="200" height="200"><defs><style type="text/css">@font-face { font-family: feedback-iconfont; src: url("//at.alicdn.com/t/font_1031158_u69w8yhxdu.woff2?t=1630033759944") format("woff2"), url("//at.alicdn.com/t/font_1031158_u69w8yhxdu.woff?t=1630033759944") format("woff"), url("//at.alicdn.com/t/font_1031158_u69w8yhxdu.ttf?t=1630033759944") format("truetype"); }
</style></defs><path d="M128 298.666667 128 554.666667C128 766.72 299.946667 938.666667 512 938.666667 724.053333 938.666667 896 766.72 896 554.666667L896 298.666667 725.333333 298.666667 725.333333 554.666667C725.333333 672.426667 629.76 768 512 768 394.24 768 298.666667 672.426667 298.666667 554.666667L298.666667 298.666667M725.333333 213.333333 896 213.333333 896 85.333333 725.333333 85.333333M128 213.333333 298.666667 213.333333 298.666667 85.333333 128 85.333333M554.666667 64 384 384 469.333333 384 469.333333 618.666667 640 298.666667 554.666667 298.666667 554.666667 64Z" p-id="14156"></path></svg>