<?xml version="1.0" standalone="no"?><!DOCTYPE svg PUBLIC "-//W3C//DTD SVG 1.1//EN" "http://www.w3.org/Graphics/SVG/1.1/DTD/svg11.dtd"><svg t="1636298136434" class="icon" viewBox="0 0 1024 1024" version="1.1" xmlns="http://www.w3.org/2000/svg" p-id="42264" xmlns:xlink="http://www.w3.org/1999/xlink" width="200" height="200"><defs><style type="text/css"></style></defs><path d="M213.333333 149.333333h213.333334a64 64 0 0 1 64 64v213.333334a64 64 0 0 1-64 64H213.333333a64 64 0 0 1-64-64V213.333333a64 64 0 0 1 64-64z m0 64v213.333334h213.333334V213.333333H213.333333z m0 320h213.333334a64 64 0 0 1 64 64v213.333334a64 64 0 0 1-64 64H213.333333a64 64 0 0 1-64-64V597.333333a64 64 0 0 1 64-64z m0 64v213.333334h213.333334V597.333333H213.333333zM704 149.333333a170.666667 170.666667 0 1 1 0 341.333334 170.666667 170.666667 0 0 1 0-341.333334z m0 64a106.666667 106.666667 0 1 0 0 213.333334 106.666667 106.666667 0 0 0 0-213.333334z m-106.666667 320h213.333334a64 64 0 0 1 64 64v213.333334a64 64 0 0 1-64 64H597.333333a64 64 0 0 1-64-64V597.333333a64 64 0 0 1 64-64z m0 64v213.333334h213.333334V597.333333H597.333333z" p-id="42265"></path></svg>