<?xml version="1.0" standalone="no"?><!DOCTYPE svg PUBLIC "-//W3C//DTD SVG 1.1//EN" "http://www.w3.org/Graphics/SVG/1.1/DTD/svg11.dtd"><svg t="1636297326665" class="icon" viewBox="0 0 1024 1024" version="1.1" xmlns="http://www.w3.org/2000/svg" p-id="11028" xmlns:xlink="http://www.w3.org/1999/xlink" width="200" height="200"><defs><style type="text/css"></style></defs><path d="M735.5 704.042h-448a32 32 0 0 0 0 64h448a32 32 0 0 0 0-64zM735.5 511.991h-448a32 32 0 1 0 0 64h448a32 32 0 0 0 0-64zM288.508 319.991h192a32 32 0 0 0 0-64h-192a32 32 0 0 0 0 64z" fill="#2B2B2B" p-id="11029"></path><path d="M886.168 328.288L631.2 73.323A31.888 31.888 0 0 0 608.617 64h-0.02a0.109 0.109 0 0 0-0.023 0h-416.07a64.189 64.189 0 0 0-64 64v768a64.189 64.189 0 0 0 64 64h639a64.189 64.189 0 0 0 64-64V352h-0.204a31.71 31.71 0 0 0-9.132-23.712z m-98.809-8.3h-114.32c-17.68 0-32.984-14.328-32.984-32l-0.434-115.738z m12.117 576H224.5a32.1 32.1 0 0 1-32-32v-704a32.092 32.092 0 0 1 32-32h351.031l0.109 202.684a53.325 53.325 0 0 0 53.332 53.316h202.5v480a32.1 32.1 0 0 1-31.995 32.003z" fill="#2B2B2B" p-id="11030"></path></svg>