<svg width="22" height="22" viewBox="0 0 22 22" fill="none" xmlns="http://www.w3.org/2000/svg">
  <path d="M1.8479 3.65269V5.50069H3.65259V3.65269H1.8479ZM18.3479 3.65269V5.50069H20.1526V3.65269H18.3479ZM1.8479 6.40269V8.25069H3.65259V6.40269H1.8479ZM4.5979 6.40269V8.25069H6.40259V6.40269H4.5979ZM12.8479 6.40269V8.25069H14.6526V6.40269H12.8479ZM15.5979 6.40269V8.25069H17.4026V6.40269H15.5979ZM18.3479 6.40269V8.25069H20.1526V6.40269H18.3479ZM1.8479 9.15269V11.0007H3.65259V9.15269H1.8479ZM4.5979 9.15269V11.0007H6.40259V9.15269H4.5979ZM7.3479 9.15269V11.0007H9.15259V9.15269H7.3479ZM10.0979 9.15269V11.0007H11.9026V9.15269H10.0979ZM12.8479 9.15269V11.0007H14.6526V9.15269H12.8479ZM15.5979 9.15269V11.0007H17.4026V9.15269H15.5979ZM18.3479 9.15269V11.0007H20.1526V9.15269H18.3479ZM1.8479 11.9027V13.7507H3.65259V11.9027H1.8479ZM4.5979 11.9027V13.7507H6.40259V11.9027H4.5979ZM7.3479 11.9027V13.7507H9.15259V11.9027H7.3479ZM10.0979 11.9027V13.7507H11.9026V11.9027H10.0979ZM12.8479 11.9027V13.7507H14.6526V11.9027H12.8479ZM15.5979 11.9027V13.7507H17.4026V11.9027H15.5979ZM18.3479 11.9027V13.7507H20.1526V11.9027H18.3479ZM4.5979 15.598V17.4027H6.40259V15.598H4.5979ZM7.3479 15.598V17.4027H9.15259V15.598H7.3479ZM10.0979 15.598V17.4027H11.9026V15.598H10.0979ZM12.8479 15.598V17.4027H14.6526V15.598H12.8479ZM15.5979 15.598V17.4027H17.4026V15.598H15.5979Z" fill="#575757"/>
</svg>
