<svg width="512" height="512" viewBox="0 0 512 512" fill="none" xmlns="http://www.w3.org/2000/svg">
<rect width="512" height="512" rx="256" fill="#121314"/>
<path fill-rule="evenodd" clip-rule="evenodd" d="M337 154C333.686 154 331 156.686 331 160V228H309C305.686 228 303 230.686 303 234V278C303 281.314 305.686 284 309 284H331V393C331 396.314 333.686 399 337 399H394C397.314 399 400 396.314 400 393V284H426C429.314 284 432 281.314 432 278V234C432 230.686 429.314 228 426 228H400V160C400 156.686 397.314 154 394 154H337Z" fill="#FB3BB9"/>
<path fill-rule="evenodd" clip-rule="evenodd" d="M110 112C106.686 112 104 114.686 104 118V393C104 396.314 106.686 399 110 399H167C170.314 399 173 396.314 173 393V268H195C238.078 268 273 233.078 273 190C273 146.922 238.078 112 195 112H173H145H110Z" fill="#FB3BB9"/>
<path d="M104 118C104 114.686 106.686 112 110 112H149V151H104V118Z" fill="#FDB1E3"/>
<rect x="149" y="112" width="45" height="39" fill="#FD89D4"/>
<path d="M149 151H194V184C194 187.314 191.314 190 188 190H149V151Z" fill="#FC62C6"/>
<rect x="104" y="151" width="45" height="39" fill="#FD89D4"/>
</svg>
