<?xml version="1.0" encoding="UTF-8" standalone="no"?>
<svg
   xmlns:dc="http://purl.org/dc/elements/1.1/"
   xmlns:cc="http://creativecommons.org/ns#"
   xmlns:rdf="http://www.w3.org/1999/02/22-rdf-syntax-ns#"
   xmlns:svg="http://www.w3.org/2000/svg"
   xmlns="http://www.w3.org/2000/svg"
   version="1.0"
   width="107.62"
   height="164.78"
   id="svg2379">
  <metadata
     id="metadata7590">
    <rdf:RDF>
      <cc:Work
         rdf:about="">
        <dc:format>image/svg+xml</dc:format>
        <dc:type
           rdf:resource="http://purl.org/dc/dcmitype/StillImage" />
        <dc:title></dc:title>
      </cc:Work>
    </rdf:RDF>
  </metadata>
  <defs
     id="defs2381" />
  <path
     id="path6854"
     style="fill:none;fill-rule:evenodd;stroke:#c0c0c0;stroke-width:1.75;stroke-linecap:butt;stroke-linejoin:miter;stroke-miterlimit:4;stroke-dasharray:none;stroke-opacity:1"
     d="M 7.0890454,115.15668 94.242603,41.764212" />
  <path
     id="path6858"
     style="fill:none;fill-rule:evenodd;stroke:#c0c0c0;stroke-width:1.75;stroke-linecap:butt;stroke-linejoin:miter;stroke-miterlimit:4;stroke-dasharray:none;stroke-opacity:1"
     d="M 23.769152,149.7679 79.551122,7.1529902" />
  <path
     id="path6856"
     style="fill:none;fill-rule:evenodd;stroke:#c0c0c0;stroke-width:1.75;stroke-linecap:butt;stroke-linejoin:miter;stroke-miterlimit:4;stroke-dasharray:none;stroke-opacity:1"
     d="M 7.0890454,6.7359882 95.076609,150.18491" />
  <path
     id="path6860"
     style="fill:none;fill-rule:evenodd;stroke:#c0c0c0;stroke-width:1.75;stroke-linecap:butt;stroke-linejoin:miter;stroke-miterlimit:4;stroke-dasharray:none;stroke-opacity:1"
     d="M 23.191842,41.090514 79.390815,115.15668" />
  <path
     id="path3635"
     style="fill:#c0c0c0;fill-opacity:1;fill-rule:evenodd;stroke:none;stroke-width:0.7pt;marker-start:none;marker-end:none"
     d="m 82.521602,113.40088 c 1.22237,1.49614 1.00016,3.70247 -0.49599,4.92483 -1.49614,1.22236 -3.70247,1.00016 -4.92483,-0.49599 -1.22236,-1.49615 -1.00016,-3.70247 0.49599,-4.92483 1.49615,-1.22236 3.70247,-1.00016 4.92483,0.49599 z" />
  <path
     id="path3637"
     style="fill:#c0c0c0;fill-opacity:1;fill-rule:evenodd;stroke:none;stroke-width:1.75;stroke-linecap:butt;stroke-linejoin:miter;stroke-miterlimit:4;stroke-dasharray:none;stroke-opacity:1"
     d="m 96.404447,149.92942 0.03125,-0.28125 -0.125,-0.28125 -16.218755,-34.375 -0.25,-0.5 H 79.310692 7.4379144 6.7191643 l -0.15625,0.71875 1.5937501,1.03125 H 78.748192 l 15.875005,33.625 z" />
  <path
     id="path3639"
     style="fill:none;fill-rule:evenodd;stroke:#c0c0c0;stroke-width:1.75;stroke-linecap:butt;stroke-linejoin:miter;stroke-miterlimit:4;stroke-dasharray:none;stroke-opacity:1"
     d="M 79.759517,7.1585862 80.049922,114.89912" />
  <path
     id="path3623"
     style="fill:#000000;fill-rule:evenodd;stroke:none;stroke-width:0.7pt;marker-start:none;marker-end:none"
     d="m 7.3926244,119.02031 c -1.9179201,0.23278 -3.6634201,-1.13487 -3.8962101,-3.05279 -0.23278,-1.91793 1.13487,-3.66343 3.0528,-3.89621 1.9179201,-0.23278 3.6634297,1.13487 3.8962097,3.05279 0.232779,1.91793 -1.1348696,3.66343 -3.0527996,3.89621 z" />
  <path
     id="path3599"
     style="fill:#000000;fill-opacity:1;fill-rule:evenodd;stroke:none;stroke-width:1.75;stroke-linecap:butt;stroke-linejoin:miter;stroke-miterlimit:4;stroke-dasharray:none;stroke-opacity:1"
     d="m 6.1314113,5.7421772 -0.022577,109.6989328 -0.03125,0.28125 0.125,0.28125 16.2187487,34.375 0.25,0.5 h 0.53125 71.872784 0.71875 l 0.15625,-0.71875 0.02256,-109.230183 -1.71875,-0.34375 0.10244,108.542683 H 23.765083 L 7.8900844,115.50361 7.8501614,6.0859272 Z" />
  <path
     id="path3625"
     style="fill:#000000;fill-rule:evenodd;stroke:none;stroke-width:0.7pt;marker-start:none;marker-end:none"
     d="m 26.110073,151.82787 c -1.03411,1.63194 -3.19786,2.11714 -4.82981,1.08303 -1.63194,-1.03411 -2.11714,-3.19786 -1.08303,-4.82981 1.03411,-1.63194 3.19787,-2.11714 4.82981,-1.08303 1.63194,1.03411 2.11714,3.19787 1.08303,4.82981 z" />
  <path
     id="path2430"
     style="fill:#000000;fill-opacity:1;fill-rule:evenodd;stroke:none;stroke-width:1.75;stroke-linecap:butt;stroke-linejoin:miter;stroke-miterlimit:4;stroke-dasharray:none;stroke-opacity:1"
     d="m 5.7914743,5.9404302 0.59375,1.25 16.7187497,34.3749998 0.25,0.5 h 0.53125 71.872773 1.406251 l -0.593751,-1.25 -16.249991,-34.3749998 -0.21875,-0.5 h -0.5625 -72.3415316 z m 2.8125001,1.75 H 79.008006 L 94.382997,40.31543 H 24.478974 Z" />
  <path
     id="path3627"
     style="fill:#000000;fill-rule:evenodd;stroke:none;stroke-width:0.7pt;marker-start:none;marker-end:none"
     d="m 97.745908,147.82182 c 1.22237,1.49614 1.00016,3.70247 -0.49599,4.92483 -1.496141,1.22236 -3.702471,1.00016 -4.924831,-0.49599 -1.222365,-1.49615 -1.00016,-3.70247 0.49599,-4.92483 1.49615,-1.22236 3.70247,-1.00016 4.924831,0.49599 z" />
  <path
     id="path3611"
     style="fill:#000000;fill-opacity:1;fill-rule:evenodd;stroke:none;stroke-width:0.7pt;marker-start:none;marker-end:none"
     d="m 93.162519,44.079048 c -1.63194,-1.03411 -2.117145,-3.19786 -1.08303,-4.82981 1.03411,-1.63194 3.19786,-2.11714 4.82981,-1.08303 1.631939,1.03411 2.117139,3.19787 1.083029,4.82981 -1.034109,1.63194 -3.197869,2.11714 -4.829809,1.08303 z" />
  <path
     id="path3613"
     style="fill:#000000;fill-opacity:1;fill-rule:evenodd;stroke:none;stroke-width:0.7pt;marker-start:none;marker-end:none"
     d="m 20.186726,39.36223 c 1.02487,-1.63776 3.18585,-2.13517 4.82361,-1.11029 1.63776,1.02488 2.13517,3.18586 1.11029,4.82362 -1.02488,1.63775 -3.18586,2.13516 -4.82361,1.11029 -1.63776,-1.02488 -2.13517,-3.18586 -1.11029,-4.82362 z" />
  <path
     id="path3609"
     style="fill:#000000;fill-opacity:1;fill-rule:evenodd;stroke:none;stroke-width:0.7pt;marker-start:none;marker-end:none"
     d="m 82.768025,8.6410202 c -1.03411,1.6319398 -3.19786,2.1171398 -4.829813,1.08303 -1.63194,-1.03411 -2.11714,-3.19786 -1.08303,-4.82981 1.03411,-1.63194 3.197873,-2.11714 4.829813,-1.08303 1.63194,1.03411 2.11714,3.19787 1.08303,4.82981 z" />
  <path
     id="path3615"
     style="fill:#000000;fill-opacity:1;fill-rule:evenodd;stroke:none;stroke-width:0.7pt;marker-start:none;marker-end:none"
     d="m 8.8272934,3.8974902 c 1.6377596,1.02487 2.1351696,3.18585 1.11029,4.82361 -1.02488,1.6377598 -3.1858601,2.1351698 -4.8236201,1.11029 -1.63775,-1.02488 -2.13516,-3.18586 -1.11029,-4.82361 1.02488,-1.63776 3.1858601,-2.13517 4.8236201,-1.11029 z" />
  <path
     id="path6134"
     style="fill:none;fill-rule:evenodd;stroke:#000000;stroke-width:1.75;stroke-linecap:butt;stroke-linejoin:miter;stroke-miterlimit:4;stroke-dasharray:none;stroke-opacity:1"
     d="M 23.283068,42.225742 23.573473,151.63428" />
  <path
     style="font-style:normal;font-weight:normal;font-size:16.6307106px;font-family:'Bitstream Vera Sans';fill:#000000;fill-opacity:1;stroke:none;stroke-width:1px;stroke-linecap:butt;stroke-linejoin:miter;stroke-opacity:1"
     d="m 9.121872,129.27036 0.7470827,-0.53595 0.5197093,0.12993 -1.1937078,5.14837 c -0.1191071,0.5143 -0.1786571,0.91491 -0.1786502,1.20183 -6.9e-6,0.21655 0.035182,0.37354 0.105566,0.47099 0.07037,0.0974 0.1813499,0.14616 0.332939,0.14616 0.1624019,0 0.3356383,-0.0663 0.5197098,-0.19895 0.1840562,-0.13263 0.4439102,-0.38572 0.7795642,-0.75926 l 0.462867,0.45475 c -0.487237,0.51971 -0.902733,0.88919 -1.2464915,1.10844 -0.3437738,0.21925 -0.7159613,0.32888 -1.1165638,0.32888 -0.3356522,0 -0.6036273,-0.11098 -0.803926,-0.33294 -0.2003104,-0.22196 -0.3004627,-0.517 -0.3004571,-0.88513 -5.6e-6,-0.29775 0.062251,-0.61445 0.1867706,-0.9501 l -0.105566,-0.0325 c -0.5197149,0.75791 -1.0123559,1.31281 -1.4779245,1.6647 -0.465577,0.35188 -0.958218,0.52783 -1.4779244,0.52783 -0.5955029,0 -1.0570155,-0.22467 -1.3845392,-0.674 -0.3275264,-0.44933 -0.4912889,-1.08002 -0.4912881,-1.89207 -8e-7,-0.93114 0.1827094,-1.82575 0.5481314,-2.68381 0.3654191,-0.85806 0.867534,-1.53476 1.5063461,-2.03012 0.6388063,-0.49534 1.3506996,-0.74301 2.135682,-0.74302 0.3518814,1e-5 0.6807599,0.0393 0.9866364,0.11775 0.3058645,0.0785 0.6212089,0.2179 0.9460341,0.4182 z m -0.7146008,2.4199 c 0.048716,-0.22196 0.081198,-0.41414 0.097445,-0.57656 0.016235,-0.1624 0.024355,-0.33834 0.024361,-0.52783 -6.4e-6,-0.41684 -0.089331,-0.72271 -0.2679753,-0.91761 -0.1786561,-0.19488 -0.4818198,-0.29233 -0.909492,-0.29233 -0.5576098,0 -1.0583713,0.22467 -1.5022858,0.67399 -0.443922,0.44934 -0.7903948,1.05161 -1.0394195,1.80681 -0.2490299,0.7552 -0.3735436,1.50905 -0.3735413,2.26155 -2.3e-6,0.56302 0.077142,0.98393 0.2314332,1.26273 0.1542862,0.2788 0.4127873,0.4182 0.7755043,0.4182 0.3572968,0 0.7078298,-0.15429 1.0516002,-0.46286 0.3437616,-0.30858 0.6983548,-0.74844 1.0637808,-1.31958 0.3654151,-0.57114 0.6239163,-1.23025 0.7755043,-1.97733 z"
     id="text6151" />
  <path
     style="font-style:normal;font-weight:normal;font-size:16.6307106px;font-family:'Bitstream Vera Sans';fill:#000000;fill-opacity:1;stroke:none;stroke-width:1px;stroke-linecap:butt;stroke-linejoin:miter;stroke-opacity:1"
     d="m 61.640136,154.28612 0.747083,-0.53595 0.51971,0.12993 -1.193709,5.14837 c -0.119107,0.5143 -0.178657,0.91491 -0.17865,1.20183 -7e-6,0.21655 0.03518,0.37354 0.105566,0.47099 0.07037,0.0974 0.18135,0.14617 0.332939,0.14617 0.162402,0 0.335639,-0.0663 0.51971,-0.19895 0.184056,-0.13264 0.44391,-0.38573 0.779565,-0.75927 l 0.462866,0.45475 c -0.487236,0.51971 -0.902733,0.88919 -1.246491,1.10844 -0.343774,0.21925 -0.715962,0.32888 -1.116564,0.32888 -0.335652,0 -0.603627,-0.11098 -0.803926,-0.33294 -0.20031,-0.22196 -0.300463,-0.517 -0.300457,-0.88513 -6e-6,-0.29775 0.06225,-0.61445 0.186771,-0.95009 l -0.105566,-0.0325 c -0.519715,0.75792 -1.012356,1.31281 -1.477925,1.6647 -0.465577,0.35189 -0.958218,0.52783 -1.477924,0.52783 -0.595503,0 -1.057016,-0.22467 -1.38454,-0.674 -0.327526,-0.44933 -0.491289,-1.08002 -0.491288,-1.89207 -10e-7,-0.93114 0.18271,-1.82574 0.548132,-2.68381 0.365419,-0.85806 0.867534,-1.53476 1.506346,-2.03012 0.638806,-0.49534 1.350699,-0.74301 2.135682,-0.74302 0.351881,1e-5 0.68076,0.0393 0.986636,0.11775 0.305865,0.0785 0.621209,0.2179 0.946034,0.4182 z m -0.714601,2.4199 c 0.04872,-0.22195 0.0812,-0.41414 0.09745,-0.57655 0.01624,-0.16241 0.02435,-0.33835 0.02436,-0.52783 -6e-6,-0.41685 -0.08933,-0.72272 -0.267975,-0.91762 -0.178656,-0.19488 -0.48182,-0.29233 -0.909492,-0.29233 -0.55761,0 -1.058371,0.22467 -1.502286,0.674 -0.443922,0.44933 -0.790395,1.0516 -1.039419,1.8068 -0.24903,0.75521 -0.373544,1.50906 -0.373542,2.26155 -2e-6,0.56302 0.07714,0.98393 0.231434,1.26273 0.154286,0.2788 0.412787,0.41821 0.775504,0.4182 0.357297,1e-5 0.70783,-0.15428 1.0516,-0.46286 0.343762,-0.30858 0.698355,-0.74844 1.063781,-1.31958 0.365415,-0.57113 0.623916,-1.23024 0.775504,-1.97733 z"
     id="text6155" />
  <path
     style="font-style:normal;font-weight:normal;font-size:16.6307106px;font-family:'Bitstream Vera Sans';fill:#000000;fill-opacity:1;stroke:none;stroke-width:1px;stroke-linecap:butt;stroke-linejoin:miter;stroke-opacity:1"
     d="m 103.37041,93.642691 c -0.0108,-0.41143 -0.0447,-0.70918 -0.10151,-0.89325 -0.0568,-0.18405 -0.14888,-0.3221 -0.27609,-0.41414 -0.12723,-0.092 -0.30723,-0.13804 -0.54001,-0.13805 -0.54679,1e-5 -1.03807,0.21791 -1.47387,0.6537 -0.4358,0.4358 -0.79175,1.05296 -1.067839,1.85147 -0.276098,0.79851 -0.414146,1.56589 -0.414144,2.30215 -2e-6,0.55219 0.108271,0.96227 0.324819,1.23025 0.216544,0.26797 0.541364,0.40196 0.974454,0.40196 0.49264,0 0.91896,-0.0934 1.27897,-0.28016 0.36001,-0.18676 0.74031,-0.48045 1.14093,-0.88107 l 0.49535,0.49535 c -0.50889,0.56302 -1.02183,0.97446 -1.53883,1.23431 -0.51701,0.25986 -1.07326,0.38979 -1.66876,0.38979 -0.784976,0 -1.380476,-0.23279 -1.786497,-0.69836 -0.406025,-0.46558 -0.609036,-1.14228 -0.609035,-2.03012 -1e-6,-0.57926 0.108272,-1.21536 0.324818,-1.90831 0.216545,-0.69294 0.533243,-1.30198 0.950095,-1.8271 0.416848,-0.52512 0.904079,-0.91761 1.461679,-1.17747 0.55761,-0.25985 1.15311,-0.38978 1.78651,-0.38978 0.72,0 1.38318,0.0812 1.98951,0.24361 l -0.3979,1.83522 z"
     id="text6159" />
  <path
     id="path6883"
     style="fill:#c0c0c0;fill-opacity:1;fill-rule:evenodd;stroke:none;stroke-width:0.7pt;marker-start:none;marker-end:none"
     d="m 53.713822,76.119795 c 1.22237,1.49614 1.00016,3.70247 -0.49599,4.92483 -1.49614,1.22236 -3.70247,1.00016 -4.92483,-0.49599 -1.22236,-1.49615 -1.00016,-3.70247 0.49599,-4.92483 1.49615,-1.22236 3.70247,-1.00016 4.92483,0.49599 z" />
</svg>
