<?xml version="1.0" encoding="UTF-8" standalone="no"?>
<!-- Created with Inkscape (http://www.inkscape.org/) -->
<svg
   xmlns:svg="http://www.w3.org/2000/svg"
   xmlns="http://www.w3.org/2000/svg"
   version="1.0"
   width="109.35"
   height="127.29"
   id="svg2379">
  <defs
     id="defs2381">
    <marker
       refX="0"
       refY="0"
       orient="auto"
       style="overflow:visible"
       id="Dot_m">
      <path
         d="M -2.5,-1 C -2.5,1.76 -4.74,4 -7.5,4 C -10.26,4 -12.5,1.76 -12.5,-1 C -12.5,-3.76 -10.26,-6 -7.5,-6 C -4.74,-6 -2.5,-3.76 -2.5,-1 z "
         transform="matrix(0.4,0,0,0.4,2.96,0.4)"
         style="fill-rule:evenodd;stroke:#000000;stroke-width:1pt;marker-start:none;marker-end:none"
         id="path3527" />
    </marker>
  </defs>
  <path
     d="M 79.318833,79.287988 L 23.359268,112.91507"
     style="fill:none;fill-rule:evenodd;stroke:#c0c0c0;stroke-width:1.75;stroke-linecap:butt;stroke-linejoin:miter;stroke-miterlimit:4;stroke-dasharray:none;stroke-opacity:1"
     id="path7042" />
  <path
     d="M 6.6740766,79.031293 L 94.720549,112.40168"
     style="fill:none;fill-rule:evenodd;stroke:#c0c0c0;stroke-width:1.75;stroke-linecap:butt;stroke-linejoin:miter;stroke-miterlimit:4;stroke-dasharray:none;stroke-opacity:1"
     id="path7044" />
  <path
     d="M 53.341456,93.145311 C 54.979216,94.170181 55.476626,96.331161 54.451746,97.968921 C 53.426866,99.606681 51.265886,100.10409 49.628126,99.079211 C 47.990376,98.054331 47.492966,95.893351 48.517836,94.255601 C 49.542716,92.617841 51.703696,92.120431 53.341456,93.145311 z "
     style="fill:#c0c0c0;fill-opacity:1;fill-rule:evenodd;stroke:none;stroke-width:0.7pt;marker-start:none;marker-end:none"
     id="path7046" />
  <path
     d="M 80.345615,6.6432316 L 95.233939,112.91507"
     style="fill:none;fill-rule:evenodd;stroke:#c0c0c0;stroke-width:1.75;stroke-linecap:butt;stroke-linejoin:miter;stroke-miterlimit:4;stroke-dasharray:none;stroke-opacity:1"
     id="path7030" />
  <path
     d="M 79.832224,78.261207 L 94.977244,41.040395"
     style="fill:none;fill-rule:evenodd;stroke:#c0c0c0;stroke-width:1.75;stroke-linecap:butt;stroke-linejoin:miter;stroke-miterlimit:4;stroke-dasharray:none;stroke-opacity:1"
     id="path7032" />
  <path
     d="M 89.309179,56.535933 C 90.946939,57.560803 91.444349,59.721783 90.419469,61.359543 C 89.394589,62.997303 87.233609,63.494713 85.595849,62.469833 C 83.958099,61.444953 83.460689,59.283973 84.485559,57.646223 C 85.510439,56.008463 87.671419,55.511053 89.309179,56.535933 z "
     style="fill:#c0c0c0;fill-opacity:1;fill-rule:evenodd;stroke:none;stroke-width:0.7pt;marker-start:none;marker-end:none"
     id="path7034" />
  <path
     d="M 8.2142478,6.3865367 L 80.217267,78.389551"
     style="fill:none;fill-rule:evenodd;stroke:#c0c0c0;stroke-width:1.75;stroke-linecap:butt;stroke-linejoin:miter;stroke-miterlimit:4;stroke-dasharray:none;stroke-opacity:0.99476318"
     id="path7012" />
  <path
     d="M 7.7008578,78.261211 L 79.575529,6.3865367"
     style="fill:none;fill-rule:evenodd;stroke:#c0c0c0;stroke-width:1.75;stroke-linecap:butt;stroke-linejoin:miter;stroke-miterlimit:4;stroke-dasharray:none;stroke-opacity:0.99476318"
     id="path7014" />
  <path
     d="M 45.55169,39.127289 C 47.18945,40.152159 47.68686,42.313139 46.66198,43.950899 C 45.6371,45.588659 43.47612,46.086069 41.83836,45.061189 C 40.20061,44.036309 39.7032,41.875329 40.72807,40.237579 C 41.75295,38.599819 43.91393,38.102409 45.55169,39.127289 z "
     style="fill:#c0c0c0;fill-opacity:1;fill-rule:evenodd;stroke:none;stroke-width:0.7pt;marker-start:none;marker-end:none"
     id="path7016" />
  <path
     d="M 82.52376,75.911 C 83.74613,77.40714 83.52392,79.61347 82.02777,80.83583 C 80.53163,82.05819 78.3253,81.83599 77.10294,80.33984 C 75.88058,78.84369 76.10278,76.63737 77.59893,75.41501 C 79.09508,74.19265 81.3014,74.41485 82.52376,75.911 z "
     style="fill:#c0c0c0;fill-opacity:1;fill-rule:evenodd;stroke:none;stroke-width:0.7pt;marker-start:none;marker-end:none"
     id="path3635" />
  <path
     d="M 96.406606,112.43954 L 96.437856,112.15829 L 96.312856,111.87704 L 80.0941,77.50204 L 79.8441,77.00204 L 79.31285,77.00204 L 7.4400724,77.00204 L 6.7213224,77.00204 L 6.5650724,77.72079 L 8.1588224,78.75204 L 78.75035,78.75204 L 94.625356,112.37704 L 96.406606,112.43954 z "
     style="fill:#c0c0c0;fill-opacity:1;fill-rule:evenodd;stroke:none;stroke-width:1.75;stroke-linecap:butt;stroke-linejoin:miter;stroke-miterlimit:4;stroke-dasharray:none;stroke-opacity:1"
     id="path3637" />
  <path
     d="M 79.761675,7.65961 L 80.05208,77.40924"
     style="fill:none;fill-rule:evenodd;stroke:#c0c0c0;stroke-width:1.75;stroke-linecap:butt;stroke-linejoin:miter;stroke-miterlimit:4;stroke-dasharray:none;stroke-opacity:1"
     id="path3639" />
  <path
     d="M 7.3947824,81.53043 C 5.4768624,81.76321 3.7313623,80.39556 3.4985723,78.47764 C 3.2657923,76.55971 4.6334424,74.81421 6.5513724,74.58143 C 8.4692924,74.34865 10.214802,75.7163 10.447582,77.63422 C 10.680361,79.55215 9.3127124,81.29765 7.3947824,81.53043 z "
     style="fill:#000000;fill-rule:evenodd;stroke:none;stroke-width:0.7pt;marker-start:none;marker-end:none"
     id="path3623" />
  <path
     d="M 6.1335694,3.932944 L 6.1109924,77.95123 L 6.0797424,78.23248 L 6.2047424,78.51373 L 22.423491,112.88873 L 22.673491,113.38873 L 23.204741,113.38873 L 95.077526,113.38873 L 95.796276,113.38873 L 95.952526,112.66998 L 95.975086,39.120443 L 94.256336,38.776693 L 94.358776,111.63873 L 23.767241,111.63873 L 7.8922424,78.01373 L 7.8523194,4.276694 L 6.1335694,3.932944 z "
     style="fill:#000000;fill-opacity:1;fill-rule:evenodd;stroke:none;stroke-width:1.75;stroke-linecap:butt;stroke-linejoin:miter;stroke-miterlimit:4;stroke-dasharray:none;stroke-opacity:1"
     id="path3599" />
  <path
     d="M 26.112231,114.33799 C 25.078121,115.96993 22.914371,116.45513 21.282421,115.42102 C 19.650481,114.38691 19.165281,112.22316 20.199391,110.59121 C 21.233501,108.95927 23.397261,108.47407 25.029201,109.50818 C 26.661141,110.54229 27.146341,112.70605 26.112231,114.33799 z "
     style="fill:#000000;fill-rule:evenodd;stroke:none;stroke-width:0.7pt;marker-start:none;marker-end:none"
     id="path3625" />
  <path
     d="M 5.7936324,5.671368 L 6.3873824,6.921368 L 23.106132,41.296368 L 23.356132,41.796368 L 23.887382,41.796368 L 95.760156,41.796368 L 97.166406,41.796368 L 96.572656,40.546368 L 80.322664,6.171368 L 80.103914,5.671368 L 79.541414,5.671368 L 7.1998824,5.671368 L 5.7936324,5.671368 z M 8.6061324,7.421368 L 79.010164,7.421368 L 94.385156,40.046368 L 24.481132,40.046368 L 8.6061324,7.421368 z "
     style="fill:#000000;fill-opacity:1;fill-rule:evenodd;stroke:none;stroke-width:1.75;stroke-linecap:butt;stroke-linejoin:miter;stroke-miterlimit:4;stroke-dasharray:none;stroke-opacity:1"
     id="path2430" />
  <path
     d="M 97.748062,110.33194 C 98.970432,111.82808 98.748222,114.03441 97.252072,115.25677 C 95.755932,116.47913 93.549601,116.25693 92.327241,114.76078 C 91.104876,113.26463 91.327081,111.05831 92.823231,109.83595 C 94.319382,108.61359 96.525702,108.83579 97.748062,110.33194 z "
     style="fill:#000000;fill-rule:evenodd;stroke:none;stroke-width:0.7pt;marker-start:none;marker-end:none"
     id="path3627" />
  <path
     d="M 93.164678,43.80999 C 91.532738,42.77588 91.047533,40.61213 92.081648,38.98018 C 93.115758,37.34824 95.279506,36.86304 96.911456,37.89715 C 98.543396,38.93126 99.028596,41.09502 97.994486,42.72696 C 96.960376,44.3589 94.796616,44.8441 93.164678,43.80999 z "
     style="fill:#000000;fill-opacity:1;fill-rule:evenodd;stroke:none;stroke-width:0.7pt;marker-start:none;marker-end:none"
     id="path3611" />
  <path
     d="M 20.188884,39.093172 C 21.213754,37.455412 23.374734,36.958002 25.012494,37.982882 C 26.650254,39.007762 27.147664,41.168742 26.122784,42.806502 C 25.097904,44.444252 22.936924,44.941662 21.299174,43.916792 C 19.661414,42.891912 19.164004,40.730932 20.188884,39.093172 z "
     style="fill:#000000;fill-opacity:1;fill-rule:evenodd;stroke:none;stroke-width:0.7pt;marker-start:none;marker-end:none"
     id="path3613" />
  <path
     d="M 82.770183,8.371958 C 81.736073,10.003898 79.572323,10.489098 77.94037,9.454988 C 76.30843,8.420878 75.82323,6.257128 76.85734,4.625178 C 77.89145,2.993238 80.055213,2.508038 81.687153,3.542148 C 83.319093,4.576258 83.804293,6.740018 82.770183,8.371958 z "
     style="fill:#000000;fill-opacity:1;fill-rule:evenodd;stroke:none;stroke-width:0.7pt;marker-start:none;marker-end:none"
     id="path3609" />
  <path
     d="M 8.8294514,3.628428 C 10.467211,4.653298 10.964621,6.814278 9.9397414,8.452038 C 8.9148614,10.089798 6.7538814,10.587208 5.1161214,9.562328 C 3.4783713,8.537448 2.9809613,6.376468 4.0058314,4.738718 C 5.0307114,3.100958 7.1916914,2.603548 8.8294514,3.628428 z "
     style="fill:#000000;fill-opacity:1;fill-rule:evenodd;stroke:none;stroke-width:0.7pt;marker-start:none;marker-end:none"
     id="path3615" />
  <path
     d="M 23.285226,40.929899 L 23.575631,114.1444"
     style="fill:none;fill-rule:evenodd;stroke:#000000;stroke-width:1.75;stroke-linecap:butt;stroke-linejoin:miter;stroke-miterlimit:4;stroke-dasharray:none;stroke-opacity:1"
     id="path6134" />
  <path
     d="M 9.1240302,91.780491 L 9.8711129,91.24454 L 10.390823,91.374468 L 9.1971144,96.522842 C 9.0780073,97.03714 9.0184573,97.437749 9.0184641,97.724671 C 9.0184573,97.941218 9.0536459,98.098213 9.1240302,98.195658 C 9.1944005,98.293104 9.3053801,98.341827 9.4569692,98.341826 C 9.619371,98.341827 9.7926074,98.27551 9.9766789,98.142875 C 10.160735,98.010242 10.420589,97.757154 10.756243,97.383611 L 11.21911,97.838357 C 10.731873,98.358068 10.316377,98.727548 9.9726187,98.946801 C 9.6288449,99.166053 9.2566573,99.275679 8.8560549,99.275679 C 8.5204026,99.275679 8.2524276,99.1647 8.0521289,98.94274 C 7.8518184,98.720781 7.7516661,98.425738 7.7516717,98.05761 C 7.7516661,97.759861 7.813923,97.443163 7.9384424,97.107515 L 7.8328764,97.075034 C 7.3131615,97.832945 6.8205205,98.387843 6.3549519,98.739729 C 5.8893749,99.091616 5.3967339,99.267559 4.8770274,99.267559 C 4.2815246,99.267559 3.820012,99.042893 3.4924883,98.59356 C 3.1649619,98.144229 3.0011993,97.51354 3.0012002,96.701492 C 3.0011993,95.770349 3.1839096,94.875745 3.5493315,94.017679 C 3.9147507,93.159622 4.4168655,92.482918 5.0556776,91.987563 C 5.6944839,91.492222 6.4063772,91.244548 7.1913597,91.24454 C 7.5432411,91.244548 7.8721196,91.283797 8.1779961,91.362287 C 8.4838606,91.440793 8.799205,91.580194 9.1240302,91.780491 L 9.1240302,91.780491 z M 8.4094293,94.200389 C 8.4581458,93.978435 8.4906276,93.786251 8.5068749,93.623836 C 8.5231095,93.461433 8.5312299,93.28549 8.5312363,93.096006 C 8.5312299,92.679162 8.4419049,92.373292 8.263261,92.178394 C 8.0846048,91.98351 7.7814411,91.886064 7.353769,91.886057 C 6.7961591,91.886064 6.2953977,92.11073 5.8514831,92.560056 C 5.4075612,93.009394 5.0610884,93.611661 4.8120637,94.366859 C 4.5630337,95.122066 4.4385201,95.875915 4.4385224,96.628408 C 4.4385201,97.191429 4.5156644,97.612339 4.6699556,97.89114 C 4.8242417,98.169944 5.0827429,98.309345 5.4454599,98.309344 C 5.8027567,98.309345 6.1532897,98.155056 6.49706,97.846478 C 6.8408216,97.537902 7.1954149,97.098044 7.5608408,96.526902 C 7.9262559,95.955766 8.1847571,95.296656 8.3363452,94.549569 L 8.4094293,94.200389 z "
     style="font-size:16.6307106px;font-style:normal;font-weight:normal;fill:#000000;fill-opacity:1;stroke:none;stroke-width:1px;stroke-linecap:butt;stroke-linejoin:miter;stroke-opacity:1;font-family:Bitstream Vera Sans"
     id="text6151" />
  <path
     d="M 61.642295,116.79625 L 62.389378,116.2603 L 62.909088,116.39022 L 61.71538,121.5386 C 61.596273,122.05289 61.536723,122.4535 61.536729,122.74043 C 61.536723,122.95697 61.571911,123.11397 61.642295,123.21141 C 61.712666,123.30886 61.823645,123.35758 61.975234,123.35758 C 62.137636,123.35758 62.310873,123.29126 62.494944,123.15863 C 62.679,123.026 62.938855,122.77291 63.274509,122.39937 L 63.737375,122.85411 C 63.250139,123.37382 62.834642,123.7433 62.490884,123.96256 C 62.14711,124.18181 61.774923,124.29143 61.37432,124.29143 C 61.038668,124.29143 60.770693,124.18045 60.570394,123.9585 C 60.370084,123.73654 60.269931,123.44149 60.269937,123.07336 C 60.269931,122.77562 60.332188,122.45892 60.456708,122.12327 L 60.351142,122.09079 C 59.831427,122.8487 59.338786,123.4036 58.873217,123.75548 C 58.40764,124.10737 57.914999,124.28331 57.395293,124.28331 C 56.79979,124.28331 56.338277,124.05865 56.010754,123.60932 C 55.683227,123.15998 55.519465,122.52929 55.519465,121.71725 C 55.519465,120.7861 55.702175,119.8915 56.067597,119.03343 C 56.433016,118.17538 56.935131,117.49867 57.573943,117.00332 C 58.212749,116.50798 58.924642,116.2603 59.709625,116.2603 C 60.061506,116.2603 60.390385,116.29955 60.696261,116.37804 C 61.002126,116.45655 61.31747,116.59595 61.642295,116.79625 L 61.642295,116.79625 z M 60.927695,119.21614 C 60.976411,118.99419 61.008893,118.80201 61.02514,118.63959 C 61.041375,118.47719 61.049495,118.30124 61.049502,118.11176 C 61.049495,117.69492 60.96017,117.38905 60.781526,117.19415 C 60.60287,116.99926 60.299706,116.90182 59.872034,116.90181 C 59.314424,116.90182 58.813663,117.12648 58.369748,117.57581 C 57.925826,118.02515 57.579354,118.62742 57.330329,119.38261 C 57.081299,120.13782 56.956785,120.89167 56.956788,121.64416 C 56.956785,122.20718 57.03393,122.62809 57.188221,122.90689 C 57.342507,123.1857 57.601008,123.3251 57.963725,123.3251 C 58.321022,123.3251 58.671555,123.17081 59.015325,122.86223 C 59.359087,122.55366 59.71368,122.1138 60.079106,121.54266 C 60.444521,120.97152 60.703022,120.31241 60.85461,119.56532 L 60.927695,119.21614 z "
     style="font-size:16.6307106px;font-style:normal;font-weight:normal;fill:#000000;fill-opacity:1;stroke:none;stroke-width:1px;stroke-linecap:butt;stroke-linejoin:miter;stroke-opacity:1;font-family:Bitstream Vera Sans"
     id="text6155" />
  <path
     d="M 104.25372,73.220364 L 105.0008,72.684413 L 105.52051,72.81434 L 104.3268,77.962715 C 104.20769,78.477013 104.14814,78.877622 104.14815,79.164543 C 104.14814,79.38109 104.18333,79.538086 104.25372,79.63553 C 104.32409,79.732977 104.43506,79.7817 104.58665,79.781699 C 104.74906,79.7817 104.92229,79.715382 105.10636,79.582747 C 105.29042,79.450114 105.55027,79.197027 105.88593,78.823484 L 106.34879,79.27823 C 105.86156,79.79794 105.44606,80.167421 105.1023,80.386673 C 104.75853,80.605926 104.38634,80.715552 103.98574,80.715552 C 103.65009,80.715552 103.38211,80.604572 103.18181,80.382613 C 102.9815,80.160654 102.88135,79.865611 102.88136,79.497482 C 102.88135,79.199734 102.94361,78.883036 103.06813,78.547388 L 102.96256,78.514906 C 102.44285,79.272818 101.95021,79.827715 101.48464,80.179601 C 101.01906,80.531488 100.52642,80.707432 100.00671,80.707432 C 99.41121,80.707432 98.949697,80.482766 98.622173,80.033433 C 98.294647,79.584102 98.130884,78.953413 98.130885,78.141365 C 98.130884,77.210222 98.313595,76.315618 98.679016,75.457552 C 99.044436,74.599495 99.54655,73.922791 100.18536,73.427436 C 100.82417,72.932095 101.53606,72.684421 102.32104,72.684413 C 102.67293,72.684421 103.0018,72.72367 103.30768,72.80216 C 103.61355,72.880665 103.92889,73.020066 104.25372,73.220364 L 104.25372,73.220364 z M 103.53911,75.640262 C 103.58783,75.418308 103.62031,75.226124 103.63656,75.063709 C 103.65279,74.901305 103.66091,74.725362 103.66092,74.535879 C 103.66091,74.119035 103.57159,73.813164 103.39295,73.618266 C 103.21429,73.423382 102.91113,73.325937 102.48345,73.32593 C 101.92584,73.325937 101.42508,73.550603 100.98117,73.999928 C 100.53725,74.449267 100.19077,75.051534 99.941749,75.806732 C 99.692719,76.561939 99.568205,77.315788 99.568207,78.068281 C 99.568205,78.631302 99.645349,79.052212 99.799641,79.331013 C 99.953927,79.609817 100.21243,79.749218 100.57514,79.749217 C 100.93244,79.749218 101.28297,79.594929 101.62674,79.28635 C 101.97051,78.977774 102.3251,78.537916 102.69053,77.966775 C 103.05594,77.395639 103.31444,76.736529 103.46603,75.989442 L 103.53911,75.640262 z "
     style="font-size:16.6307106px;font-style:normal;font-weight:normal;fill:#000000;fill-opacity:1;stroke:none;stroke-width:1px;stroke-linecap:butt;stroke-linejoin:miter;stroke-opacity:1;font-family:Bitstream Vera Sans"
     id="text6887" />
  <path
     d="M 23.615963,41.040396 L 95.618982,113.04341"
     style="fill:none;fill-rule:evenodd;stroke:#000000;stroke-width:1.75;stroke-linecap:butt;stroke-linejoin:miter;stroke-miterlimit:4;stroke-dasharray:none;stroke-opacity:1"
     id="path7006" />
  <path
     d="M 23.102573,112.91507 L 94.977244,41.040396"
     style="fill:none;fill-rule:evenodd;stroke:#000000;stroke-width:1.75;stroke-linecap:butt;stroke-linejoin:miter;stroke-miterlimit:4;stroke-dasharray:none;stroke-opacity:1"
     id="path7008" />
  <path
     d="M 60.953405,73.781148 C 62.591165,74.806018 63.088575,76.966998 62.063695,78.604758 C 61.038815,80.242518 58.877835,80.739928 57.240075,79.715048 C 55.602325,78.690168 55.104915,76.529188 56.129785,74.891438 C 57.154665,73.253678 59.315645,72.756268 60.953405,73.781148 z "
     style="fill:#000000;fill-opacity:1;fill-rule:evenodd;stroke:none;stroke-width:0.7pt;marker-start:none;marker-end:none"
     id="path7010" />
  <path
     d="M 7.4441624,6.6432316 L 23.102573,112.91507"
     style="fill:none;fill-rule:evenodd;stroke:#000000;stroke-width:1.75;stroke-linecap:butt;stroke-linejoin:miter;stroke-miterlimit:4;stroke-dasharray:none;stroke-opacity:1"
     id="path7018" />
  <path
     d="M 6.9307719,78.261207 L 22.845878,41.040395"
     style="fill:none;fill-rule:evenodd;stroke:#000000;stroke-width:1.75;stroke-linecap:butt;stroke-linejoin:miter;stroke-miterlimit:4;stroke-dasharray:none;stroke-opacity:1"
     id="path7020" />
  <path
     d="M 16.921118,56.535933 C 18.558878,57.560803 19.056288,59.721783 18.031408,61.359543 C 17.006528,62.997303 14.845548,63.494713 13.207788,62.469833 C 11.570038,61.444953 11.072628,59.283973 12.097498,57.646223 C 13.122378,56.008463 15.283358,55.511053 16.921118,56.535933 z "
     style="fill:#000000;fill-opacity:1;fill-rule:evenodd;stroke:none;stroke-width:0.7pt;marker-start:none;marker-end:none"
     id="path7022" />
  <path
     d="M 79.318833,6.8999268 L 23.359268,40.527005"
     style="fill:none;fill-rule:evenodd;stroke:#000000;stroke-width:1.75;stroke-linecap:butt;stroke-linejoin:miter;stroke-miterlimit:4;stroke-dasharray:none;stroke-opacity:1"
     id="path7036" />
  <path
     d="M 6.6740766,6.6432315 L 94.720549,40.013615"
     style="fill:none;fill-rule:evenodd;stroke:#000000;stroke-width:1.75;stroke-linecap:butt;stroke-linejoin:miter;stroke-miterlimit:4;stroke-dasharray:none;stroke-opacity:1"
     id="path7038" />
  <path
     d="M 53.341456,20.757249 C 54.979216,21.782119 55.476626,23.943099 54.451746,25.580859 C 53.426866,27.218619 51.265886,27.716029 49.628126,26.691149 C 47.990376,25.666269 47.492966,23.505289 48.517836,21.867539 C 49.542716,20.229779 51.703696,19.732369 53.341456,20.757249 z "
     style="fill:#000000;fill-opacity:1;fill-rule:evenodd;stroke:none;stroke-width:0.7pt;marker-start:none;marker-end:none"
     id="path7040" />
</svg>
