<?xml version="1.0" encoding="UTF-8" standalone="no"?>
<!-- Created with Inkscape (http://www.inkscape.org/) -->

<svg
   xmlns:dc="http://purl.org/dc/elements/1.1/"
   xmlns:cc="http://creativecommons.org/ns#"
   xmlns:rdf="http://www.w3.org/1999/02/22-rdf-syntax-ns#"
   xmlns:svg="http://www.w3.org/2000/svg"
   xmlns="http://www.w3.org/2000/svg"
   xmlns:sodipodi="http://sodipodi.sourceforge.net/DTD/sodipodi-0.dtd"
   xmlns:inkscape="http://www.inkscape.org/namespaces/inkscape"
   id="svg7615"
   version="1.1"
   inkscape:version="0.48.2 r9819"
   width="311.15991"
   height="306.9223"
   sodipodi:docname="Hexagonal_close_packed 5 try.svg"
   style="enable-background:new">
  <metadata
     id="metadata7621">
    <rdf:RDF>
      <cc:Work
         rdf:about="">
        <dc:format>image/svg+xml</dc:format>
        <dc:type
           rdf:resource="http://purl.org/dc/dcmitype/StillImage" />
        <dc:title />
      </cc:Work>
    </rdf:RDF>
  </metadata>
  <defs
     id="defs7619" />
  <sodipodi:namedview
     pagecolor="#ffffff"
     bordercolor="#666666"
     borderopacity="1"
     objecttolerance="10"
     gridtolerance="10"
     guidetolerance="10"
     inkscape:pageopacity="0"
     inkscape:pageshadow="2"
     inkscape:window-width="1024"
     inkscape:window-height="719"
     id="namedview7617"
     showgrid="false"
     inkscape:zoom="6.5163072"
     inkscape:cx="131.89706"
     inkscape:cy="151.30718"
     inkscape:window-x="-4"
     inkscape:window-y="-4"
     inkscape:window-maximized="1"
     inkscape:current-layer="layer1"
     showguides="false"
     inkscape:snap-global="true"
     fit-margin-top="5"
     fit-margin-right="5"
     fit-margin-left="5"
     fit-margin-bottom="5"
     inkscape:snap-center="true"
     inkscape:snap-bbox="false"
     inkscape:bbox-paths="false"
     inkscape:snap-bbox-midpoints="true"
     inkscape:bbox-nodes="false"
     inkscape:snap-nodes="true"
     showborder="true"
     borderlayer="true">
    <inkscape:grid
       type="xygrid"
       id="grid7630"
       empspacing="5"
       visible="true"
       enabled="true"
       snapvisiblegridlinesonly="true" />
  </sodipodi:namedview>
  <g
     inkscape:groupmode="layer"
     id="layer1"
     inkscape:label="lines"
     style="display:inline"
     transform="translate(-62.908615,11.303745)">
    <path
       style="fill:none;stroke:#7f7f7f;stroke-width:2;stroke-linecap:butt;stroke-linejoin:miter;stroke-miterlimit:4;stroke-opacity:1;stroke-dasharray:none"
       d="M 218.21686,42.356828 217.74601,224.30567"
       id="path8777"
       inkscape:connector-curvature="0" />
    <path
       style="fill:none;stroke:#000000;stroke-width:2;stroke-linecap:butt;stroke-linejoin:miter;stroke-miterlimit:4;stroke-opacity:1;stroke-dasharray:none"
       d="m 257.75118,268.25336 71.28913,-31.3816"
       id="path8779"
       inkscape:connector-curvature="0" />
    <path
       style="fill:none;stroke:#000000;stroke-width:2;stroke-linecap:butt;stroke-linejoin:miter;stroke-miterlimit:4;stroke-opacity:1;stroke-dasharray:none"
       d="m 147.73141,257.58933 110.00246,10.66495"
       id="path8781"
       inkscape:connector-curvature="0" />
    <g
       style="font-size:31.39110947px;font-style:normal;font-variant:normal;font-weight:normal;font-stretch:normal;text-align:start;line-height:125%;letter-spacing:0px;word-spacing:0px;writing-mode:lr-tb;text-anchor:start;fill:#000000;fill-opacity:1;stroke:none;font-family:DejaVu Sans;-inkscape-font-specification:DejaVu Sans"
       id="text3838" />
    <rect
       style="opacity:0;fill:#000000;fill-opacity:1;stroke:none"
       id="rect3842"
       width="301.15991"
       height="281.96829"
       x="67.908615"
       y="8.6502638" />
    <path
       style="fill:none;stroke:#000000;stroke-width:2;stroke-linecap:butt;stroke-linejoin:miter;stroke-miterlimit:4;stroke-opacity:1;stroke-dasharray:12, 12;stroke-dashoffset:0;display:inline;enable-background:new"
       d="m 106.8423,215.29691 40.00037,41.43839"
       id="path3969"
       inkscape:connector-curvature="0" />
    <path
       style="fill:none;stroke:#7f7f7f;stroke-width:2;stroke-linecap:butt;stroke-linejoin:miter;stroke-miterlimit:4;stroke-opacity:1;stroke-dasharray:12, 12;stroke-dashoffset:0"
       d="m 177.86058,182.64757 109.1096,9.68258"
       id="path4011"
       inkscape:connector-curvature="0" />
    <path
       style="fill:none;stroke:#7f7f7f;stroke-width:2;stroke-linecap:butt;stroke-linejoin:miter;stroke-miterlimit:4;stroke-opacity:1;stroke-dasharray:12, 12;stroke-dashoffset:0;display:inline;enable-background:new"
       d="m 107.14775,213.0514 68.50506,-30.06064"
       id="path4011-8"
       inkscape:connector-curvature="0" />
    <path
       style="fill:none;stroke:#7f7f7f;stroke-width:2;stroke-linecap:butt;stroke-linejoin:miter;stroke-miterlimit:4;stroke-opacity:1;stroke-dasharray:12, 12;stroke-dashoffset:0;display:inline;enable-background:new"
       d="M 328.92304,236.4868 288.93411,194.29408"
       id="path4011-8-2"
       inkscape:connector-curvature="0" />
    <path
       style="fill:none;stroke:#7f7f7f;stroke-width:2;stroke-linecap:butt;stroke-linejoin:miter;stroke-miterlimit:4;stroke-opacity:1;stroke-dasharray:none;display:inline;enable-background:new"
       d="m 148.73175,256.78627 68.33543,-30.38333"
       id="path8779-7"
       inkscape:connector-curvature="0" />
    <path
       style="fill:none;stroke:#7f7f7f;stroke-width:2;stroke-linecap:butt;stroke-linejoin:miter;stroke-miterlimit:4;stroke-opacity:1;stroke-dasharray:none;display:inline;enable-background:new"
       d="M 329.19977,236.76353 218.74113,226.23878"
       id="path8779-7-7"
       inkscape:connector-curvature="0" />
    <path
       style="fill:none;stroke:#7f7f7f;stroke-width:2;stroke-linecap:butt;stroke-linejoin:miter;stroke-miterlimit:4;stroke-opacity:1;stroke-dasharray:12, 12;stroke-dashoffset:0;display:inline;enable-background:new"
       d="m 257.01917,267.84683 -38.0367,-41.36671"
       id="path4011-8-2-1"
       inkscape:connector-curvature="0" />
    <path
       style="fill:none;stroke:#7f7f7f;stroke-width:2;stroke-linecap:butt;stroke-linejoin:miter;stroke-miterlimit:4;stroke-opacity:1;stroke-dasharray:12, 12;stroke-dashoffset:0;display:inline;enable-background:new"
       d="M 216.9725,224.47016 177.94201,182.729"
       id="path4011-8-2-1-6"
       inkscape:connector-curvature="0" />
    <path
       style="fill:none;stroke:#7f7f7f;stroke-width:2;stroke-linecap:butt;stroke-linejoin:miter;stroke-miterlimit:4;stroke-opacity:1;stroke-dasharray:12, 12;stroke-dashoffset:0;display:inline;enable-background:new"
       d="m 286.70926,194.45566 -67.52981,29.83501"
       id="path4011-8-2-1-0"
       inkscape:connector-curvature="0" />
    <path
       style="fill:none;stroke:#7f7f7f;stroke-width:2;stroke-linecap:butt;stroke-linejoin:miter;stroke-miterlimit:4;stroke-opacity:1;stroke-dasharray:12, 12;stroke-dashoffset:0;display:inline;enable-background:new"
       d="M 217.17139,224.66905 106.68711,215.14172"
       id="path4011-8-2-1-4"
       inkscape:connector-curvature="0" />
    <path
       style="fill:none;stroke:#000000;stroke-width:2;stroke-linecap:butt;stroke-linejoin:miter;stroke-miterlimit:4;stroke-opacity:1;stroke-dasharray:12, 12;stroke-dashoffset:0;display:inline;enable-background:new"
       d="M 105.55625,30.99227 105.0854,212.94111"
       id="path8777-2-7"
       inkscape:connector-curvature="0" />
    <path
       style="fill:none;stroke:#000000;stroke-width:2;stroke-linecap:butt;stroke-linejoin:miter;stroke-miterlimit:4;stroke-opacity:1;stroke-dasharray:none;display:inline;enable-background:new"
       d="m 148.06382,76.3737 -0.47085,181.94884"
       id="path8777-2-7-0"
       inkscape:connector-curvature="0" />
    <path
       style="fill:none;stroke:#000000;stroke-width:2;stroke-linecap:butt;stroke-linejoin:miter;stroke-miterlimit:4;stroke-opacity:1;stroke-dasharray:none;display:inline;enable-background:new"
       d="M 257.92507,85.281369 257.45422,267.23021"
       id="path8777-2-7-2"
       inkscape:connector-curvature="0" />
    <path
       style="fill:none;stroke:#000000;stroke-width:2;stroke-linecap:butt;stroke-linejoin:miter;stroke-miterlimit:4;stroke-opacity:1;stroke-dasharray:none;display:inline;enable-background:new"
       d="M 330.37412,53.213761 329.90327,235.1626"
       id="path8777-2-7-08"
       inkscape:connector-curvature="0" />
    <path
       style="fill:none;stroke:#7f7f7f;stroke-width:2;stroke-linecap:butt;stroke-linejoin:miter;stroke-miterlimit:4;stroke-opacity:1;stroke-dasharray:12, 12;stroke-dashoffset:0;display:inline;enable-background:new"
       d="M 288.21115,11.050793 287.7403,192.99963"
       id="path8777-2-8-9"
       inkscape:connector-curvature="0" />
    <path
       style="fill:none;stroke:#7f7f7f;stroke-width:2;stroke-linecap:butt;stroke-linejoin:miter;stroke-miterlimit:4;stroke-opacity:1;stroke-dasharray:12, 12;stroke-dashoffset:0;display:inline;enable-background:new"
       d="M 177.16221,2.7369689 176.69136,184.68581"
       id="path8777-2-8-2"
       inkscape:connector-curvature="0" />
    <path
       style="fill:none;stroke:#7f7f7f;stroke-width:1.74677539;stroke-linecap:square;stroke-linejoin:miter;stroke-miterlimit:4;stroke-opacity:1;stroke-dasharray:3.49355078, 3.49355078;stroke-dashoffset:0;display:inline;enable-background:new"
       d="m 208.76258,160.22756 -0.72407,90.25322"
       id="path8777-2-8-8-2"
       inkscape:connector-curvature="0" />
    <path
       style="fill:none;stroke:#7f7f7f;stroke-width:1.74677539;stroke-linecap:square;stroke-linejoin:miter;stroke-miterlimit:4;stroke-opacity:1;stroke-dasharray:3.49355078, 3.49355078;stroke-dashoffset:0;display:inline;enable-background:new"
       d="m 278.2424,128.15996 -0.72407,90.25322"
       id="path8777-2-8-8-0"
       inkscape:connector-curvature="0" />
    <path
       style="fill:none;stroke:#7f7f7f;stroke-width:1.74677539;stroke-linecap:square;stroke-linejoin:miter;stroke-miterlimit:4;stroke-opacity:1;stroke-dasharray:3.49355078, 3.49355078;stroke-dashoffset:0;display:inline;enable-background:new"
       d="m 167.19346,116.28306 -0.72407,90.25322"
       id="path8777-2-8-8-5"
       inkscape:connector-curvature="0" />
    <path
       style="fill:none;stroke:#7f7f7f;stroke-width:2;stroke-linecap:square;stroke-linejoin:miter;stroke-miterlimit:4;stroke-opacity:1;stroke-dasharray:4,4;stroke-dashoffset:0;display:inline;enable-background:new"
       d="m 168.82224,116.51486 109.58322,11.57643"
       id="path8777-2-8-8-7"
       inkscape:connector-curvature="0" />
    <path
       style="fill:none;stroke:#7f7f7f;stroke-width:2;stroke-linecap:square;stroke-linejoin:miter;stroke-miterlimit:4;stroke-opacity:1;stroke-dasharray:4,4;stroke-dashoffset:0;display:inline;enable-background:new"
       d="m 209.15175,160.50267 67.57924,-31.19532"
       id="path8777-2-8-8-7-6"
       inkscape:connector-curvature="0" />
    <path
       style="fill:none;stroke:#7f7f7f;stroke-width:2.03187132;stroke-linecap:square;stroke-linejoin:miter;stroke-miterlimit:4;stroke-opacity:1;stroke-dasharray:4.06374264, 4.06374264;stroke-dashoffset:0;display:inline;enable-background:new"
       d="m 167.50883,116.2854 40.49619,44.07339"
       id="path8777-2-8-8-7-6-8"
       inkscape:connector-curvature="0" />
  </g>
  <g
     inkscape:groupmode="layer"
     id="layer2"
     inkscape:label="geometrics"
     style="display:none"
     transform="translate(4.9999996,19.954009)">
    <path
       style="fill:none;stroke:#4c28fb;stroke-width:1.04698944;stroke-linecap:butt;stroke-linejoin:miter;stroke-miterlimit:4;stroke-opacity:1;stroke-dasharray:none;display:inline;enable-background:new"
       d="M 38.474579,205.29937 149.62102,216.8984"
       id="path8781-2"
       inkscape:connector-curvature="0" />
    <path
       style="fill:none;stroke:#493afb;stroke-width:0.99871689px;stroke-linecap:butt;stroke-linejoin:miter;stroke-opacity:1;display:inline;enable-background:new"
       d="M 80.403437,248.5557 219.4945,185.11154"
       id="path3943"
       inkscape:connector-curvature="0" />
    <path
       style="fill:none;stroke:#4c28fb;stroke-width:1.01995349;stroke-linecap:butt;stroke-linejoin:miter;stroke-miterlimit:4;stroke-opacity:1;stroke-dasharray:none;display:inline;enable-background:new"
       d="m 150.45895,217.3436 111.07713,11.01459"
       id="path8781-2-3"
       inkscape:connector-curvature="0" />
    <path
       style="fill:none;stroke:#3921fa;stroke-width:1.00066793px;stroke-linecap:butt;stroke-linejoin:miter;stroke-opacity:1;display:inline;enable-background:new"
       d="m 109.52001,173.56535 80.08645,86.12712"
       id="path3945"
       inkscape:connector-curvature="0" />
    <path
       transform="translate(-67.908615,-8.6502638)"
       style="fill:none;stroke:#4142fc;stroke-width:1.04680753;stroke-linecap:butt;stroke-linejoin:miter;stroke-miterlimit:4;stroke-opacity:1;stroke-dasharray:none;display:inline;enable-background:new"
       d="m 177.45169,182.23868 110.95318,11.61519"
       id="path8781-5"
       inkscape:connector-curvature="0" />
  </g>
  <g
     inkscape:groupmode="layer"
     id="layer4"
     inkscape:label="geometry 2nd order"
     style="display:none"
     transform="translate(4.9999996,19.954009)">
    <path
       style="fill:none;stroke:#fa1234;stroke-width:1.014153px;stroke-linecap:butt;stroke-linejoin:miter;stroke-opacity:1;display:inline;enable-background:new"
       d="m 109.52675,173.57209 152.01223,54.789"
       id="path3885"
       inkscape:connector-curvature="0" />
    <path
       style="fill:none;stroke:#fc174e;stroke-width:0.9930402px;stroke-linecap:butt;stroke-linejoin:miter;stroke-opacity:1;display:inline;enable-background:new"
       d="M 219.49734,185.10871 38.460174,205.1801"
       id="path3889"
       inkscape:connector-curvature="0" />
    <path
       style="fill:#ff5555;stroke:#f40646;stroke-width:0.96153808px;stroke-linecap:butt;stroke-linejoin:miter;stroke-opacity:1;display:inline;enable-background:new"
       d="M 108.5389,173.54578 80.384848,248.57429"
       id="path3875"
       inkscape:connector-curvature="0" />
    <path
       style="fill:none;stroke:#fc1a3c;stroke-width:0.90585321px;stroke-linecap:butt;stroke-linejoin:miter;stroke-opacity:1;display:inline;enable-background:new"
       d="M 189.65387,259.73987 38.416581,206.12955"
       id="path3887"
       inkscape:connector-curvature="0" />
    <path
       style="fill:#ff0000;stroke:#f72929;stroke-width:1.01723826px;stroke-linecap:butt;stroke-linejoin:miter;stroke-opacity:1;display:inline;enable-background:new"
       d="m 219.48524,185.1208 -28.86982,74.56338"
       id="path3105"
       inkscape:connector-curvature="0" />
    <path
       style="fill:#ff2a2a;stroke:#fc4151;stroke-width:0.91897339px;stroke-linecap:butt;stroke-linejoin:miter;stroke-opacity:1;display:inline;enable-background:new"
       d="M 261.58657,229.32766 80.363566,248.59557"
       id="path3883"
       inkscape:connector-curvature="0" />
  </g>
  <g
     inkscape:groupmode="layer"
     id="layer3"
     inkscape:label="points"
     style="display:inline"
     transform="translate(-62.908615,11.303745)">
    <path
       sodipodi:type="arc"
       style="fill:#7f7f7f;fill-opacity:1;display:inline"
       id="path7634-2-6"
       sodipodi:cx="52.822086"
       sodipodi:cy="105.71472"
       sodipodi:rx="2.898773"
       sodipodi:ry="2.898773"
       d="m 55.720859,105.71472 c 0,1.60095 -1.297825,2.89877 -2.898773,2.89877 -1.600948,0 -2.898773,-1.29782 -2.898773,-2.89877 0,-1.60095 1.297825,-2.89877 2.898773,-2.89877 1.600948,0 2.898773,1.29782 2.898773,2.89877 z"
       transform="matrix(1.552381,0,0,1.552381,94.928283,17.605751)"
       inkscape:transform-center-y="-15.460121" />
    <path
       style="fill:none;stroke:#000000;stroke-width:2;stroke-linecap:butt;stroke-linejoin:miter;stroke-miterlimit:4;stroke-opacity:1;stroke-dasharray:none;display:inline;enable-background:new"
       d="M 257.81402,84.734337 329.10315,53.352742"
       id="path8779-5"
       inkscape:connector-curvature="0" />
    <path
       style="fill:none;stroke:#000000;stroke-width:2;stroke-linecap:butt;stroke-linejoin:miter;stroke-miterlimit:4;stroke-opacity:1;stroke-dasharray:none;display:inline;enable-background:new"
       d="m 147.79426,74.070307 110.00245,10.66495"
       id="path8781-29"
       inkscape:connector-curvature="0" />
    <path
       style="fill:none;stroke:#000000;stroke-width:2;stroke-linecap:butt;stroke-linejoin:miter;stroke-miterlimit:4;stroke-opacity:1;stroke-dasharray:12, 12;stroke-dashoffset:0;display:inline;enable-background:new"
       d="m 106.90515,31.777892 40.00037,41.43839"
       id="path3969-9"
       inkscape:connector-curvature="0" />
    <path
       style="fill:none;stroke:#000000;stroke-width:2;stroke-linecap:butt;stroke-linejoin:miter;stroke-miterlimit:4;stroke-opacity:1;stroke-dasharray:12, 12;stroke-dashoffset:0;display:inline;enable-background:new"
       d="m 177.92343,-0.871448 109.10959,9.68258"
       id="path4011-83"
       inkscape:connector-curvature="0" />
    <path
       style="fill:none;stroke:#000000;stroke-width:2;stroke-linecap:butt;stroke-linejoin:miter;stroke-miterlimit:4;stroke-opacity:1;stroke-dasharray:12, 12;stroke-dashoffset:0;display:inline;enable-background:new"
       d="m 107.2106,29.532382 68.50506,-30.06064"
       id="path4011-8-8"
       inkscape:connector-curvature="0" />
    <path
       style="fill:none;stroke:#000000;stroke-width:2;stroke-linecap:butt;stroke-linejoin:miter;stroke-miterlimit:4;stroke-opacity:1;stroke-dasharray:12, 12;stroke-dashoffset:0;display:inline;enable-background:new"
       d="M 328.98588,52.967782 288.99695,10.775062"
       id="path4011-8-2-6"
       inkscape:connector-curvature="0" />
    <path
       style="fill:none;stroke:#000000;stroke-width:2;stroke-linecap:butt;stroke-linejoin:miter;stroke-miterlimit:4;stroke-opacity:1;stroke-dasharray:none;display:inline;enable-background:new"
       d="m 148.7946,73.267252 68.33542,-30.38333"
       id="path8779-7-9"
       inkscape:connector-curvature="0" />
    <path
       style="fill:none;stroke:#000000;stroke-width:2;stroke-linecap:butt;stroke-linejoin:miter;stroke-miterlimit:4;stroke-opacity:1;stroke-dasharray:none;display:inline;enable-background:new"
       d="M 329.26261,53.244512 218.80397,42.719762"
       id="path8779-7-7-8"
       inkscape:connector-curvature="0" />
    <path
       style="fill:none;stroke:#000000;stroke-width:2;stroke-linecap:butt;stroke-linejoin:miter;stroke-miterlimit:4;stroke-opacity:1;stroke-dasharray:12, 12;stroke-dashoffset:0;display:inline;enable-background:new"
       d="M 257.08201,84.327807 219.04532,42.961102"
       id="path4011-8-2-1-66"
       inkscape:connector-curvature="0" />
    <path
       style="fill:none;stroke:#000000;stroke-width:2;stroke-linecap:butt;stroke-linejoin:miter;stroke-miterlimit:4;stroke-opacity:1;stroke-dasharray:12, 12;stroke-dashoffset:0;display:inline;enable-background:new"
       d="M 217.03534,40.951142 178.00486,-0.790018"
       id="path4011-8-2-1-6-2"
       inkscape:connector-curvature="0" />
    <path
       style="fill:none;stroke:#000000;stroke-width:2;stroke-linecap:butt;stroke-linejoin:miter;stroke-miterlimit:4;stroke-opacity:1;stroke-dasharray:12, 12;stroke-dashoffset:0;display:inline;enable-background:new"
       d="m 286.7721,10.936642 -67.52981,29.83501"
       id="path4011-8-2-1-0-3"
       inkscape:connector-curvature="0" />
    <path
       style="fill:none;stroke:#000000;stroke-width:2;stroke-linecap:butt;stroke-linejoin:miter;stroke-miterlimit:4;stroke-opacity:1;stroke-dasharray:12, 12;stroke-dashoffset:0;display:inline;enable-background:new"
       d="M 217.23424,41.150032 106.74996,31.622702"
       id="path4011-8-2-1-4-8"
       inkscape:connector-curvature="0" />
    <path
       sodipodi:type="arc"
       style="fill:#000000;fill-opacity:1;display:inline;enable-background:new"
       id="path7634-2-6-2"
       sodipodi:cx="52.822086"
       sodipodi:cy="105.71472"
       sodipodi:rx="2.898773"
       sodipodi:ry="2.898773"
       d="m 55.720859,105.71472 c 0,1.60095 -1.297825,2.89877 -2.898773,2.89877 -1.600948,0 -2.898773,-1.29782 -2.898773,-2.89877 0,-1.60095 1.297825,-2.89877 2.898773,-2.89877 1.600948,0 2.898773,1.29782 2.898773,2.89877 z"
       transform="matrix(1.552381,0,0,1.552381,94.991126,-165.91327)"
       inkscape:transform-center-y="-15.460121" />
    <path
       sodipodi:type="arc"
       style="fill:#000000;fill-opacity:1;display:inline;enable-background:new"
       id="path7634-2-1-6"
       sodipodi:cx="52.822086"
       sodipodi:cy="105.71472"
       sodipodi:rx="2.898773"
       sodipodi:ry="2.898773"
       d="m 55.720859,105.71472 c 0,1.60095 -1.297825,2.89877 -2.898773,2.89877 -1.600948,0 -2.898773,-1.29782 -2.898773,-2.89877 0,-1.60095 1.297825,-2.89877 2.898773,-2.89877 1.600948,0 2.898773,1.29782 2.898773,2.89877 z"
       transform="matrix(1.552381,0,0,1.552381,205.96531,-154.3661)"
       inkscape:transform-center-y="-15.460121" />
    <path
       sodipodi:type="arc"
       style="fill:#7f7f7f;fill-opacity:1;display:inline;enable-background:new"
       id="path7634-2-2-2"
       sodipodi:cx="52.822086"
       sodipodi:cy="105.71472"
       sodipodi:rx="2.898773"
       sodipodi:ry="2.898773"
       d="m 55.720859,105.71472 c 0,1.60095 -1.297825,2.89877 -2.898773,2.89877 -1.600948,0 -2.898773,-1.29782 -2.898773,-2.89877 0,-1.60095 1.297825,-2.89877 2.898773,-2.89877 1.600948,0 2.898773,1.29782 2.898773,2.89877 z"
       transform="matrix(1.552381,0,0,1.552381,136.04908,-122.14466)"
       inkscape:transform-center-y="-15.460121" />
    <path
       sodipodi:type="arc"
       style="fill:#000000;fill-opacity:1;display:inline;enable-background:new"
       id="path7634-76-7"
       sodipodi:cx="52.822086"
       sodipodi:cy="105.71472"
       sodipodi:rx="2.898773"
       sodipodi:ry="2.898773"
       d="m 55.720859,105.71472 c 0,1.60095 -1.297825,2.89877 -2.898773,2.89877 -1.600948,0 -2.898773,-1.29782 -2.898773,-2.89877 0,-1.60095 1.297825,-2.89877 2.898773,-2.89877 1.600948,0 2.898773,1.29782 2.898773,2.89877 z"
       transform="matrix(1.552381,0,0,1.552381,65.875534,-89.923223)"
       inkscape:transform-center-y="-15.460121" />
    <path
       sodipodi:type="arc"
       style="fill:#000000;fill-opacity:1;display:inline;enable-background:new"
       id="path7634-14-5"
       sodipodi:cx="52.822086"
       sodipodi:cy="105.71472"
       sodipodi:rx="2.898773"
       sodipodi:ry="2.898773"
       d="m 55.720859,105.71472 c 0,1.60095 -1.297825,2.89877 -2.898773,2.89877 -1.600948,0 -2.898773,-1.29782 -2.898773,-2.89877 0,-1.60095 1.297825,-2.89877 2.898773,-2.89877 1.600948,0 2.898773,1.29782 2.898773,2.89877 z"
       transform="matrix(1.552381,0,0,1.552381,248.0175,-110.11011)"
       inkscape:transform-center-y="-15.460121" />
    <path
       sodipodi:type="arc"
       style="fill:#000000;fill-opacity:1;display:inline;enable-background:new"
       id="path7634-3-7"
       sodipodi:cx="52.822086"
       sodipodi:cy="105.71472"
       sodipodi:rx="2.898773"
       sodipodi:ry="2.898773"
       d="m 55.720859,105.71472 c 0,1.60095 -1.297825,2.89877 -2.898773,2.89877 -1.600948,0 -2.898773,-1.29782 -2.898773,-2.89877 0,-1.60095 1.297825,-2.89877 2.898773,-2.89877 1.600948,0 2.898773,1.29782 2.898773,2.89877 z"
       transform="matrix(1.552381,0,0,1.552381,176.07825,-78.785483)"
       inkscape:transform-center-y="-15.460121" />
    <path
       sodipodi:type="arc"
       style="fill:#000000;fill-opacity:1;display:inline;enable-background:new"
       id="path7634-52-8"
       sodipodi:cx="52.822086"
       sodipodi:cy="105.71472"
       sodipodi:rx="2.898773"
       sodipodi:ry="2.898773"
       d="m 55.720859,105.71472 c 0,1.60095 -1.297825,2.89877 -2.898773,2.89877 -1.600948,0 -2.898773,-1.29782 -2.898773,-2.89877 0,-1.60095 1.297825,-2.89877 2.898773,-2.89877 1.600948,0 2.898773,1.29782 2.898773,2.89877 z"
       transform="matrix(1.552381,0,0,1.552381,23.935109,-133.30166)"
       inkscape:transform-center-y="-15.460121" />
    <path
       sodipodi:type="arc"
       style="fill:#7f7f7f;fill-opacity:1;display:inline"
       id="path7634-2-1"
       sodipodi:cx="52.822086"
       sodipodi:cy="105.71472"
       sodipodi:rx="2.898773"
       sodipodi:ry="2.898773"
       d="m 55.720859,105.71472 c 0,1.60095 -1.297825,2.89877 -2.898773,2.89877 -1.600948,0 -2.898773,-1.29782 -2.898773,-2.89877 0,-1.60095 1.297825,-2.89877 2.898773,-2.89877 1.600948,0 2.898773,1.29782 2.898773,2.89877 z"
       transform="matrix(1.552381,0,0,1.552381,205.90247,29.152919)"
       inkscape:transform-center-y="-15.460121" />
    <path
       sodipodi:type="arc"
       style="fill:#7f7f7f;fill-opacity:1;display:inline"
       id="path7634-2-7"
       sodipodi:cx="52.822086"
       sodipodi:cy="105.71472"
       sodipodi:rx="2.898773"
       sodipodi:ry="2.898773"
       d="m 55.720859,105.71472 c 0,1.60095 -1.297825,2.89877 -2.898773,2.89877 -1.600948,0 -2.898773,-1.29782 -2.898773,-2.89877 0,-1.60095 1.297825,-2.89877 2.898773,-2.89877 1.600948,0 2.898773,1.29782 2.898773,2.89877 z"
       transform="matrix(1.552381,0,0,1.552381,196.2847,-35.999161)"
       inkscape:transform-center-y="-15.460121" />
    <path
       sodipodi:type="arc"
       style="fill:#7f7f7f;fill-opacity:1;display:inline"
       id="path7634-2-2"
       sodipodi:cx="52.822086"
       sodipodi:cy="105.71472"
       sodipodi:rx="2.898773"
       sodipodi:ry="2.898773"
       d="m 55.720859,105.71472 c 0,1.60095 -1.297825,2.89877 -2.898773,2.89877 -1.600948,0 -2.898773,-1.29782 -2.898773,-2.89877 0,-1.60095 1.297825,-2.89877 2.898773,-2.89877 1.600948,0 2.898773,1.29782 2.898773,2.89877 z"
       transform="matrix(1.552381,0,0,1.552381,135.98623,61.37436)"
       inkscape:transform-center-y="-15.460121" />
    <path
       sodipodi:type="arc"
       style="fill:#7f7f7f;fill-opacity:1;display:inline"
       id="path7634-2-8"
       sodipodi:cx="52.822086"
       sodipodi:cy="105.71472"
       sodipodi:rx="2.898773"
       sodipodi:ry="2.898773"
       d="m 55.720859,105.71472 c 0,1.60095 -1.297825,2.89877 -2.898773,2.89877 -1.600948,0 -2.898773,-1.29782 -2.898773,-2.89877 0,-1.60095 1.297825,-2.89877 2.898773,-2.89877 1.600948,0 2.898773,1.29782 2.898773,2.89877 z"
       transform="matrix(1.552381,0,0,1.552381,126.73304,-3.3916548)"
       inkscape:transform-center-y="-15.460121" />
    <path
       sodipodi:type="arc"
       style="fill:#7f7f7f;fill-opacity:1;display:inline"
       id="path7634-2-5"
       sodipodi:cx="52.822086"
       sodipodi:cy="105.71472"
       sodipodi:rx="2.898773"
       sodipodi:ry="2.898773"
       d="m 55.720859,105.71472 c 0,1.60095 -1.297825,2.89877 -2.898773,2.89877 -1.600948,0 -2.898773,-1.29782 -2.898773,-2.89877 0,-1.60095 1.297825,-2.89877 2.898773,-2.89877 1.600948,0 2.898773,1.29782 2.898773,2.89877 z"
       transform="matrix(1.552381,0,0,1.552381,85.181378,-47.689792)"
       inkscape:transform-center-y="-15.460121" />
    <path
       sodipodi:type="arc"
       style="fill:#000000;fill-opacity:1;display:inline"
       id="path7634-76"
       sodipodi:cx="52.822086"
       sodipodi:cy="105.71472"
       sodipodi:rx="2.898773"
       sodipodi:ry="2.898773"
       d="m 55.720859,105.71472 c 0,1.60095 -1.297825,2.89877 -2.898773,2.89877 -1.600948,0 -2.898773,-1.29782 -2.898773,-2.89877 0,-1.60095 1.297825,-2.89877 2.898773,-2.89877 1.600948,0 2.898773,1.29782 2.898773,2.89877 z"
       transform="matrix(1.552381,0,0,1.552381,65.812691,93.595798)"
       inkscape:transform-center-y="-15.460121" />
    <path
       sodipodi:type="arc"
       style="fill:#000000;fill-opacity:1;display:inline"
       id="path7634-14"
       sodipodi:cx="52.822086"
       sodipodi:cy="105.71472"
       sodipodi:rx="2.898773"
       sodipodi:ry="2.898773"
       d="m 55.720859,105.71472 c 0,1.60095 -1.297825,2.89877 -2.898773,2.89877 -1.600948,0 -2.898773,-1.29782 -2.898773,-2.89877 0,-1.60095 1.297825,-2.89877 2.898773,-2.89877 1.600948,0 2.898773,1.29782 2.898773,2.89877 z"
       transform="matrix(1.552381,0,0,1.552381,247.95467,73.408905)"
       inkscape:transform-center-y="-15.460121" />
    <path
       sodipodi:type="arc"
       style="fill:#000000;fill-opacity:1;display:inline"
       id="path7634-3"
       sodipodi:cx="52.822086"
       sodipodi:cy="105.71472"
       sodipodi:rx="2.898773"
       sodipodi:ry="2.898773"
       d="m 55.720859,105.71472 c 0,1.60095 -1.297825,2.89877 -2.898773,2.89877 -1.600948,0 -2.898773,-1.29782 -2.898773,-2.89877 0,-1.60095 1.297825,-2.89877 2.898773,-2.89877 1.600948,0 2.898773,1.29782 2.898773,2.89877 z"
       transform="matrix(1.552381,0,0,1.552381,176.01541,104.73354)"
       inkscape:transform-center-y="-15.460121" />
    <path
       sodipodi:type="arc"
       style="fill:#000000;fill-opacity:1;display:inline"
       id="path7634-52"
       sodipodi:cx="52.822086"
       sodipodi:cy="105.71472"
       sodipodi:rx="2.898773"
       sodipodi:ry="2.898773"
       d="m 55.720859,105.71472 c 0,1.60095 -1.297825,2.89877 -2.898773,2.89877 -1.600948,0 -2.898773,-1.29782 -2.898773,-2.89877 0,-1.60095 1.297825,-2.89877 2.898773,-2.89877 1.600948,0 2.898773,1.29782 2.898773,2.89877 z"
       transform="matrix(1.552381,0,0,1.552381,23.872266,50.217358)"
       inkscape:transform-center-y="-15.460121" />
    <g
       style="font-size:31.39110947px;font-style:normal;font-variant:normal;font-weight:normal;font-stretch:normal;text-align:start;line-height:125%;letter-spacing:0px;word-spacing:0px;writing-mode:lr-tb;text-anchor:start;fill:#000000;fill-opacity:1;stroke:none;display:inline;enable-background:new;font-family:DejaVu Sans;-inkscape-font-specification:DejaVu Sans"
       id="text3834"
       transform="translate(3.690685,1.4762742)">
      <path
         d="m 198.985,276.08404 c -2.27873,10e-6 -3.85748,0.26058 -4.73626,0.78171 -0.87879,0.52115 -1.31818,1.41016 -1.31818,2.66702 0,1.00142 0.32954,1.7959 0.98864,2.38346 0.65908,0.58756 1.55575,0.88134 2.69001,0.88134 1.56341,0 2.81773,-0.55435 3.76294,-1.66305 0.9452,-1.1087 1.4178,-2.58271 1.41782,-4.42204 l 0,-0.62844 z m 5.62526,-1.1649 0,9.79439 -2.82029,0 0,-2.60571 c -0.64378,1.04229 -1.44593,1.81123 -2.40645,2.30682 -0.96055,0.4956 -2.13567,0.74339 -3.52537,0.74339 -1.75758,0 -3.15495,-0.49304 -4.19212,-1.47912 -1.03718,-0.98608 -1.55577,-2.30681 -1.55576,-3.96221 -1e-5,-1.93128 0.64631,-3.38741 1.93895,-4.36839 1.29263,-0.98096 3.22136,-1.47144 5.7862,-1.47146 l 3.95455,0 0,-0.27589 c -2e-5,-1.29774 -0.42664,-2.3017 -1.27987,-3.01189 -0.85325,-0.71017 -2.05136,-1.06526 -3.59434,-1.06528 -0.98098,2e-5 -1.9364,0.11753 -2.86628,0.35254 -0.92988,0.23504 -1.824,0.58757 -2.68234,1.05761 l 0,-2.60571 c 1.03206,-0.3985 2.03347,-0.69739 3.00422,-0.89667 0.97075,-0.19924 1.91596,-0.29887 2.83563,-0.29889 2.48307,2e-5 4.33772,0.64378 5.56395,1.93129 1.2262,1.28754 1.8393,3.23926 1.83932,5.85518 z"
         id="path5286"
         inkscape:connector-curvature="0" />
    </g>
    <path
       style="font-size:31.39110947px;font-style:normal;font-variant:normal;font-weight:normal;font-stretch:normal;text-align:start;line-height:125%;letter-spacing:0px;word-spacing:0px;writing-mode:lr-tb;text-anchor:start;fill:#000000;fill-opacity:1;stroke:none;display:inline;enable-background:new;font-family:DejaVu Sans;-inkscape-font-specification:DejaVu Sans"
       d="m 351.16472,150.10368 0,2.63636 c -0.79706,-0.43938 -1.59665,-0.76892 -2.39879,-0.98863 -0.80216,-0.21968 -1.61197,-0.32953 -2.42943,-0.32955 -1.82912,2e-5 -3.24948,0.57991 -4.2611,1.73969 -1.01163,1.15981 -1.51745,2.7871 -1.51744,4.88187 -10e-6,2.09479 0.50581,3.72208 1.51744,4.88187 1.01162,1.1598 2.43198,1.7397 4.2611,1.7397 0.81746,0 1.62727,-0.10985 2.42943,-0.32955 0.80214,-0.21969 1.60173,-0.54924 2.39879,-0.98864 l 0,2.60571 c -0.78684,0.36787 -1.60176,0.64377 -2.44477,0.8277 -0.84303,0.18393 -1.7397,0.2759 -2.69001,0.2759 -2.58528,0 -4.63918,-0.81237 -6.16173,-2.43711 -1.52255,-1.62473 -2.28383,-3.81659 -2.28383,-6.57558 0,-2.79984 0.76894,-5.00192 2.30682,-6.60623 1.53787,-1.60428 3.64543,-2.40643 6.32267,-2.40645 0.86856,2e-5 1.71669,0.0894 2.5444,0.26824 0.82768,0.17884 1.62983,0.44707 2.40645,0.8047 z"
       id="path5283"
       inkscape:connector-curvature="0" />
  </g>
</svg>
