<?xml version="1.0" encoding="UTF-8" standalone="no"?>
<svg
   xmlns:dc="http://purl.org/dc/elements/1.1/"
   xmlns:cc="http://creativecommons.org/ns#"
   xmlns:rdf="http://www.w3.org/1999/02/22-rdf-syntax-ns#"
   xmlns:svg="http://www.w3.org/2000/svg"
   xmlns="http://www.w3.org/2000/svg"
   id="svg2379"
   height="143.13"
   width="113.51"
   version="1.0">
  <metadata
     id="metadata3574">
    <rdf:RDF>
      <cc:Work
         rdf:about="">
        <dc:format>image/svg+xml</dc:format>
        <dc:type
           rdf:resource="http://purl.org/dc/dcmitype/StillImage" />
        <dc:title></dc:title>
      </cc:Work>
    </rdf:RDF>
  </metadata>
  <defs
     id="defs2381" />
  <g
     transform="translate(0,-35.000025)"
     id="g4206">
    <path
       d="m 25.639398,163.00032 c -1.03411,1.63194 -3.19786,2.11714 -4.82981,1.08303 -1.63194,-1.03411 -2.11714,-3.19786 -1.08303,-4.82981 1.03411,-1.63194 3.19787,-2.11714 4.82981,-1.08303 1.63194,1.03411 2.11714,3.19787 1.08303,4.82981 z"
       style="fill:#000000;fill-rule:evenodd;stroke:none;stroke-width:0.7pt;marker-start:none;marker-end:none"
       id="path3625" />
    <path
       d="m 82.050927,124.57333 c 1.22237,1.49614 1.00016,3.70247 -0.49599,4.92483 -1.49614,1.22236 -3.70247,1.00016 -4.92483,-0.49599 -1.22236,-1.49615 -1.00016,-3.70247 0.49599,-4.92483 1.49615,-1.22236 3.70247,-1.00016 4.92483,0.49599 z"
       style="fill:#c0c0c0;fill-opacity:1;fill-rule:evenodd;stroke:none;stroke-width:0.7pt;marker-start:none;marker-end:none"
       id="path3635" />
    <path
       d="m 95.93377,161.10187 0.03125,-0.28125 -0.125,-0.28125 -16.218753,-34.375 -0.25,-0.5 h -0.53125 -71.8727779 -0.71875 l -0.15625,0.71875 1.59375,1.03125 H 78.277517 l 15.875,33.625 z"
       style="fill:#c0c0c0;fill-opacity:1;fill-rule:evenodd;stroke:none;stroke-width:1.75;stroke-linecap:butt;stroke-linejoin:miter;stroke-miterlimit:4;stroke-dasharray:none;stroke-opacity:1"
       id="path3637" />
    <path
       d="M 90.576327,42.517201 79.579247,126.07157"
       style="fill:none;fill-rule:evenodd;stroke:#c0c0c0;stroke-width:1.75;stroke-linecap:butt;stroke-linejoin:miter;stroke-miterlimit:4;stroke-dasharray:none;stroke-opacity:1"
       id="path3639" />
    <path
       d="m 94.560358,125.19473 c 1.674002,0.59083 2.511002,1.69159 2.511012,3.30229 -1e-5,0.82997 -0.18464,1.60719 -0.5539,2.33165 -0.36927,0.72447 -0.91086,1.29947 -1.62477,1.725 -0.713922,0.42554 -1.535102,0.6383 -2.463532,0.6383 -0.59787,0 -1.12363,-0.0475 -1.5773,-0.14243 -0.45367,-0.095 -0.92316,-0.25848 -1.40848,-0.49059 l -1.1289,5.00091 h -1.71973 l 3.12294,-13.9477 c 0.28134,-1.25198 0.66116,-2.28944 1.13945,-3.11239 0.47828,-0.82292 1.07614,-1.45771 1.79358,-1.90436 0.71742,-0.44662 1.56146,-0.66993 2.532112,-0.66995 1.08317,2e-5 1.92017,0.24092 2.51101,0.72271 0.59081,0.48181 0.88622,1.16584 0.88624,2.05206 -2e-5,0.35873 -0.05101,0.74734 -0.15299,1.16583 -0.102,0.41851 -0.30421,0.82998 -0.60665,1.2344 -0.30245,0.40444 -0.72271,0.77899 -1.26078,1.12362 -0.53808,0.34466 -1.19748,0.64007 -1.978212,0.88624 l -0.0211,0.0844 z m -1.76193,-0.46422 c 0.75963,-0.0563 1.44541,-0.27431 2.057342,-0.65413 0.61192,-0.37981 1.09197,-0.87744 1.44014,-1.49289 0.34816,-0.61543 0.52224,-1.2889 0.52225,-2.02042 -1e-5,-0.58377 -0.14596,-1.03041 -0.43784,-1.3399 -0.29191,-0.30947 -0.72624,-0.46421 -1.30299,-0.46422 -0.893282,1e-5 -1.638842,0.43082 -2.236692,1.29243 -0.59787,0.86163 -1.08671,2.16813 -1.46652,3.91949 l -1.42431,6.61514 c -0.03517,0.16178 -0.05276,0.29893 -0.05275,0.41147 -1e-5,0.18991 0.04395,0.35168 0.13188,0.48532 0.08792,0.13364 0.21804,0.26552 0.39037,0.39564 0.17232,0.13013 0.39563,0.24266 0.66995,0.33762 0.27431,0.095 0.62247,0.14243 1.0445,0.14243 0.56971,0 1.08844,-0.17584 1.55619,-0.52752 0.46773,-0.35169 0.83523,-0.85107 1.102522,-1.49817 0.26727,-0.64709 0.40091,-1.38562 0.40092,-2.2156 -10e-6,-0.79479 -0.21981,-1.41727 -0.659412,-1.86743 -0.43961,-0.45014 -1.06736,-0.70687 -1.88325,-0.77018 z"
       style="font-style:normal;font-weight:normal;font-size:21.60733986px;font-family:'Bitstream Vera Sans';fill:#008000;fill-opacity:1;stroke:none;stroke-width:1px;stroke-linecap:butt;stroke-linejoin:miter;stroke-opacity:1"
       id="text3659" />
    <path
       d="m 87.695948,143.73735 c 1.51194,-2.54642 7.320962,-4.37666 10.265262,-3.34218"
       style="fill:none;fill-rule:evenodd;stroke:#008000;stroke-width:1px;stroke-linecap:butt;stroke-linejoin:miter;stroke-opacity:1"
       id="path3683" />
    <path
       style="fill:none;fill-rule:evenodd;stroke:#008000;stroke-width:1px;stroke-linecap:butt;stroke-linejoin:miter;stroke-opacity:1"
       d="m 25.576438,146.75197 h 16.168975 l -2.515174,13.6538"
       id="path3385" />
    <path
       d="M 35.057753,79.042391 22.742108,162.59676"
       style="fill:none;fill-rule:evenodd;stroke:#000000;stroke-width:1.75;stroke-linecap:butt;stroke-linejoin:miter;stroke-miterlimit:4;stroke-dasharray:none;stroke-opacity:1"
       id="path3601" />
    <path
       d="m 6.9219491,130.19276 c -1.91792,0.23278 -3.6634203,-1.13487 -3.8962103,-3.05279 -0.23278,-1.91793 1.13487,-3.66343 3.0528003,-3.89621 1.91792,-0.23278 3.66343,1.13487 3.89621,3.05279 0.2327789,1.91793 -1.13487,3.66343 -3.0528,3.89621 z"
       style="fill:#000000;fill-rule:evenodd;stroke:none;stroke-width:0.7pt;marker-start:none;marker-end:none"
       id="path3623" />
    <path
       d="m 17.52216,44.019811 -11.8840009,82.593749 -0.03125,0.28125 0.125,0.28125 16.2187489,34.375 0.25,0.5 h 0.53125 71.872779 0.718753 l 0.15625,-0.71875 11.88399,-82.124999 -1.71875,-0.34375 -11.758993,81.437499 H 23.294408 L 7.4194091,126.67606 19.24091,44.363561 Z"
       style="fill:#000000;fill-opacity:1;fill-rule:evenodd;stroke:none;stroke-width:1.75;stroke-linecap:butt;stroke-linejoin:miter;stroke-miterlimit:4;stroke-dasharray:none;stroke-opacity:1"
       id="path3599" />
    <path
       d="m 97.27523,158.99427 c 1.22237,1.49614 1.00016,3.70247 -0.49599,4.92483 -1.49614,1.22236 -3.702473,1.00016 -4.924833,-0.49599 -1.22236,-1.49615 -1.00016,-3.70247 0.49599,-4.92483 1.49615,-1.22236 3.702473,-1.00016 4.924833,0.49599 z"
       style="fill:#000000;fill-rule:evenodd;stroke:none;stroke-width:0.7pt;marker-start:none;marker-end:none"
       id="path3627" />
    <path
       style="fill:none;fill-rule:evenodd;stroke:#008000;stroke-width:1px;stroke-linecap:butt;stroke-linejoin:miter;stroke-opacity:1"
       d="m 30.433797,68.6325 h 13.465759 l 4.014611,9.749768"
       id="path3387" />
    <path
       d="m 16.99091,43.801061 0.59375,1.25 16.71875,34.375 0.25,0.5 h 0.53125 71.87277 1.40625 l -0.59375,-1.25 -16.249988,-34.375 -0.21875,-0.5 h -0.5625 -72.341532 z m 2.8125,1.75 h 70.404032 l 15.374988,32.625 H 35.67841 Z"
       style="fill:#000000;fill-opacity:1;fill-rule:evenodd;stroke:none;stroke-width:1.75;stroke-linecap:butt;stroke-linejoin:miter;stroke-miterlimit:4;stroke-dasharray:none;stroke-opacity:1"
       id="path2430" />
    <path
       d="m 93.636482,46.501651 c -1.03411,1.63194 -3.19786,2.11714 -4.829813,1.08303 -1.63194,-1.03411 -2.11714,-3.19786 -1.08303,-4.82981 1.03411,-1.63194 3.197873,-2.11714 4.829813,-1.08303 1.63194,1.03411 2.11714,3.19787 1.08303,4.82981 z"
       style="fill:#000000;fill-opacity:1;fill-rule:evenodd;stroke:none;stroke-width:0.7pt;marker-start:none;marker-end:none"
       id="path3609" />
    <path
       d="m 105.13668,81.939681 c -1.63194,-1.03411 -2.11714,-3.19786 -1.08303,-4.82981 1.03411,-1.63194 3.19786,-2.11714 4.82981,-1.08303 1.63194,1.03411 2.11714,3.19787 1.08303,4.82981 -1.03411,1.63194 -3.19787,2.11714 -4.82981,1.08303 z"
       style="fill:#000000;fill-opacity:1;fill-rule:evenodd;stroke:none;stroke-width:0.7pt;marker-start:none;marker-end:none"
       id="path3611" />
    <path
       d="m 32.18807,77.222861 c 1.02487,-1.63776 3.18585,-2.13517 4.82361,-1.11029 1.63776,1.02488 2.13517,3.18586 1.11029,4.82362 -1.02488,1.63775 -3.18586,2.13516 -4.82361,1.11029 -1.63776,-1.02488 -2.13517,-3.18586 -1.11029,-4.82362 z"
       style="fill:#000000;fill-opacity:1;fill-rule:evenodd;stroke:none;stroke-width:0.7pt;marker-start:none;marker-end:none"
       id="path3613" />
    <path
       d="m 20.20434,41.758121 c 1.63776,1.02487 2.13517,3.18585 1.11029,4.82361 -1.02488,1.63776 -3.18586,2.13517 -4.82362,1.11029 -1.63775,-1.02488 -2.13516,-3.18586 -1.11029,-4.82361 1.02488,-1.63776 3.18586,-2.13517 4.82362,-1.11029 z"
       style="fill:#000000;fill-opacity:1;fill-rule:evenodd;stroke:none;stroke-width:0.7pt;marker-start:none;marker-end:none"
       id="path3615" />
    <path
       style="font-style:normal;font-weight:normal;font-size:16.6307106px;font-family:'Bitstream Vera Sans';fill:#000000;fill-opacity:1;stroke:none;stroke-width:1px;stroke-linecap:butt;stroke-linejoin:miter;stroke-opacity:1"
       d="m 8.1305224,141.41236 0.74708,-0.53595 0.51971,0.12993 -1.1937,5.14837 c -0.11911,0.5143 -0.17866,0.91491 -0.17865,1.20183 -10e-6,0.21655 0.0352,0.37354 0.10556,0.47099 0.0704,0.0974 0.18135,0.14617 0.33294,0.14616 0.1624,1e-5 0.33564,-0.0663 0.51971,-0.19895 0.18406,-0.13263 0.44391,-0.38572 0.77956,-0.75926 l 0.4628696,0.45475 c -0.4872396,0.51971 -0.9027296,0.88919 -1.2464896,1.10844 -0.34377,0.21925 -0.71596,0.32888 -1.11656,0.32888 -0.33566,0 -0.60363,-0.11098 -0.80393,-0.33294 -0.20031,-0.22196 -0.30046,-0.517 -0.30046,-0.88513 0,-0.29775 0.0622,-0.61445 0.18677,-0.9501 l -0.10556,-0.0325 c -0.51972,0.75791 -1.01236,1.31281 -1.47793,1.6647 -0.46557,0.35188 -0.95821,0.52783 -1.47792,0.52783 -0.5955,0 -1.05702,-0.22467 -1.38454,-0.674 -0.32753,-0.44933 -0.49129,-1.08002 -0.49129,-1.89207 0,-0.93114 0.18271,-1.82575 0.54813,-2.68381 0.36542,-0.85806 0.86754,-1.53476 1.50635,-2.03012 0.63881,-0.49534 1.3507,-0.74301 2.13568,-0.74302 0.35188,1e-5 0.68076,0.0393 0.98664,0.11775 0.30586,0.0785 0.62121,0.2179 0.94603,0.4182 v 0 z m -0.7146,2.4199 c 0.0487,-0.22196 0.0812,-0.41414 0.0974,-0.57656 0.0162,-0.1624 0.0243,-0.33834 0.0244,-0.52783 -10e-6,-0.41684 -0.0893,-0.72271 -0.26798,-0.91761 -0.17865,-0.19488 -0.48182,-0.29233 -0.90949,-0.29233 -0.55761,0 -1.05837,0.22467 -1.50229,0.67399 -0.44392,0.44934 -0.79039,1.05161 -1.03941,1.80681 -0.24903,0.7552 -0.37355,1.50905 -0.37355,2.26155 0,0.56302 0.0772,0.98393 0.23144,1.26273 0.15428,0.2788 0.41278,0.4182 0.7755,0.4182 0.3573,0 0.70783,-0.15429 1.0516,-0.46286 0.34376,-0.30858 0.69836,-0.74844 1.06378,-1.31958 0.36542,-0.57114 0.62392,-1.23025 0.77551,-1.97733 l 0.0731,-0.34918 z"
       id="text6151" />
    <path
       style="font-style:normal;font-weight:normal;font-size:16.6307106px;font-family:'Bitstream Vera Sans';fill:#000000;fill-opacity:1;stroke:none;stroke-width:1px;stroke-linecap:butt;stroke-linejoin:miter;stroke-opacity:1"
       d="m 56.046493,174.51795 -0.74708,0.52783 -0.51971,-0.12993 2.1032,-9.28169 c 0.12451,-0.55218 0.18677,-0.95279 0.18677,-1.20182 0,-0.22737 -0.069,-0.38707 -0.20707,-0.47911 -0.13805,-0.092 -0.38572,-0.14345 -0.74302,-0.15429 l 0.0975,-0.42227 2.05447,-0.0731 h 0.47099 l -1.4292,5.68433 0.10557,0.0325 c 0.52512,-0.70377 1.01776,-1.21265 1.47792,-1.52665 0.46015,-0.31398 0.92031,-0.47098 1.38048,-0.47099 0.59008,1e-5 1.04889,0.22468 1.37642,0.674 0.32752,0.44934 0.49128,1.08274 0.49129,1.90019 -1e-5,0.89326 -0.18001,1.77162 -0.54002,2.63509 -0.36001,0.86348 -0.85942,1.5483 -1.49822,2.05448 -0.63881,0.50617 -1.35342,0.75926 -2.1438,0.75926 -0.72002,0 -1.35883,-0.17594 -1.91643,-0.52783 v 0 z m 0.7146,-2.42802 c -0.0812,0.37896 -0.12181,0.74709 -0.1218,1.10439 -1e-5,0.42768 0.0934,0.73625 0.28015,0.92573 0.18677,0.18948 0.4967,0.28422 0.9298,0.28422 0.22195,0 0.43308,-0.0365 0.63339,-0.10963 0.2003,-0.0731 0.40467,-0.19354 0.6131,-0.36136 0.20842,-0.16782 0.40601,-0.38843 0.59279,-0.66182 0.18677,-0.27339 0.35865,-0.61039 0.51565,-1.011 0.15699,-0.4006 0.2788,-0.82963 0.36542,-1.28709 0.0866,-0.45745 0.12992,-0.8946 0.12993,-1.31146 -10e-6,-0.56301 -0.0799,-0.98527 -0.23955,-1.26679 -0.15971,-0.2815 -0.41551,-0.42226 -0.76739,-0.42226 -0.25986,0 -0.51565,0.0826 -0.76738,0.24767 -0.25174,0.16512 -0.5319,0.43851 -0.84047,0.82017 -0.30858,0.38167 -0.56032,0.7728 -0.7552,1.17341 -0.1949,0.40061 -0.36001,0.9122 -0.49535,1.53476 l -0.0731,0.34106 z"
       id="text6155" />
    <path
       style="font-style:normal;font-weight:normal;font-size:16.6307106px;font-family:'Bitstream Vera Sans';fill:#000000;fill-opacity:1;stroke:none;stroke-width:1px;stroke-linecap:butt;stroke-linejoin:miter;stroke-opacity:1"
       d="m 108.84665,118.40996 c -0.0108,-0.41143 -0.0447,-0.70918 -0.10151,-0.89325 -0.0568,-0.18406 -0.14888,-0.32211 -0.27609,-0.41415 -0.12723,-0.092 -0.30723,-0.13804 -0.54001,-0.13804 -0.54679,0 -1.03807,0.2179 -1.47387,0.65369 -0.4358,0.43581 -0.79175,1.05296 -1.06784,1.85147 -0.2761,0.79852 -0.41415,1.5659 -0.41414,2.30215 0,0.55219 0.10827,0.96227 0.32482,1.23025 0.21654,0.26797 0.54136,0.40196 0.97445,0.40196 0.49264,0 0.91896,-0.0934 1.27897,-0.28016 0.36001,-0.18676 0.74031,-0.48045 1.14093,-0.88107 l 0.49535,0.49535 c -0.50889,0.56302 -1.02183,0.97446 -1.53883,1.23431 -0.51701,0.25986 -1.07326,0.38979 -1.66876,0.38979 -0.78498,0 -1.38048,-0.23279 -1.7865,-0.69836 -0.40602,-0.46558 -0.60903,-1.14228 -0.60903,-2.03012 0,-0.57925 0.10827,-1.21536 0.32482,-1.90831 0.21654,-0.69294 0.53324,-1.30197 0.95009,-1.8271 0.41685,-0.52512 0.90408,-0.9176 1.46168,-1.17747 0.55761,-0.25984 1.15311,-0.38977 1.78651,-0.38978 0.72,1e-5 1.38318,0.0812 1.98951,0.24361 l -0.3979,1.83523 z"
       id="text6159" />
  </g>
</svg>
