<?xml version="1.0" encoding="UTF-8" standalone="no"?>
<svg
   xmlns:dc="http://purl.org/dc/elements/1.1/"
   xmlns:cc="http://creativecommons.org/ns#"
   xmlns:rdf="http://www.w3.org/1999/02/22-rdf-syntax-ns#"
   xmlns:svg="http://www.w3.org/2000/svg"
   xmlns="http://www.w3.org/2000/svg"
   id="svg2379"
   height="142.21001"
   width="107.62"
   version="1.0">
  <metadata
     id="metadata8338">
    <rdf:RDF>
      <cc:Work
         rdf:about="">
        <dc:format>image/svg+xml</dc:format>
        <dc:type
           rdf:resource="http://purl.org/dc/dcmitype/StillImage" />
        <dc:title></dc:title>
      </cc:Work>
    </rdf:RDF>
  </metadata>
  <defs
     id="defs2381" />
  <path
     id="path3635"
     style="fill:#c0c0c0;fill-opacity:1;fill-rule:evenodd;stroke:none;stroke-width:0.7pt;marker-start:none;marker-end:none"
     d="m 82.521602,87.910349 c 1.22237,1.49614 1.00016,3.702467 -0.49599,4.924827 -1.49614,1.22236 -3.70247,1.00016 -4.92483,-0.49599 -1.22236,-1.49615 -1.00016,-3.702467 0.49599,-4.924827 1.49615,-1.22236 3.70247,-1.00016 4.92483,0.49599 z" />
  <path
     id="path3637"
     style="fill:#c0c0c0;fill-opacity:1;fill-rule:evenodd;stroke:none;stroke-width:1.75;stroke-linecap:butt;stroke-linejoin:miter;stroke-miterlimit:4;stroke-dasharray:none;stroke-opacity:1"
     d="m 96.404447,124.43888 0.03125,-0.28125 -0.125,-0.28125 -16.218755,-34.374991 -0.25,-0.5 h -0.53125 -71.8727782 -0.71875 l -0.15625,0.71875 1.59375,1.031247 H 78.748192 l 15.875005,33.624994 z" />
  <path
     id="path3639"
     style="fill:none;fill-rule:evenodd;stroke:#c0c0c0;stroke-width:1.75;stroke-linecap:butt;stroke-linejoin:miter;stroke-miterlimit:4;stroke-dasharray:none;stroke-opacity:1"
     d="M 79.759517,5.8542143 80.049922,89.408589" />
  <path
     id="path3623"
     style="fill:#000000;fill-rule:evenodd;stroke:none;stroke-width:0.7pt;marker-start:none;marker-end:none"
     d="m 7.3926238,93.529776 c -1.91792,0.23278 -3.66342,-1.13487 -3.89621,-3.05279 -0.23278,-1.917927 1.13487,-3.663427 3.0528,-3.896207 1.91792,-0.23278 3.6634302,1.13487 3.8962102,3.05279 0.232779,1.917927 -1.1348702,3.663427 -3.0528002,3.896207 z" />
  <path
     id="path3599"
     style="fill:#000000;fill-opacity:1;fill-rule:evenodd;stroke:none;stroke-width:1.75;stroke-linecap:butt;stroke-linejoin:miter;stroke-miterlimit:4;stroke-dasharray:none;stroke-opacity:1"
     d="m 6.1314108,7.3568243 -0.022577,82.5937547 -0.03125,0.281247 0.125,0.28125 16.2187492,34.374994 0.25,0.5 h 0.53125 71.872784 0.71875 l 0.15625,-0.71875 0.02256,-82.124996 -1.71875,-0.34375 0.10244,81.437496 H 23.765083 L 7.8900838,90.013076 7.8501608,7.7005743 Z" />
  <path
     id="path3625"
     style="fill:#000000;fill-rule:evenodd;stroke:none;stroke-width:0.7pt;marker-start:none;marker-end:none"
     d="m 26.110073,126.33733 c -1.03411,1.63194 -3.19786,2.11714 -4.82981,1.08303 -1.63194,-1.03411 -2.11714,-3.19786 -1.08303,-4.82981 1.03411,-1.63194 3.19787,-2.11714 4.82981,-1.08303 1.63194,1.03411 2.11714,3.19787 1.08303,4.82981 z" />
  <path
     id="path2430"
     style="fill:#000000;fill-opacity:1;fill-rule:evenodd;stroke:none;stroke-width:1.75;stroke-linecap:butt;stroke-linejoin:miter;stroke-miterlimit:4;stroke-dasharray:none;stroke-opacity:1"
     d="m 5.7914738,7.1380743 0.59375,1.25 16.7187502,34.3749997 0.25,0.5 h 0.53125 71.872773 1.40625 l -0.59375,-1.25 -16.249991,-34.3749997 -0.21875,-0.5 h -0.5625 -72.3415322 z m 2.8125,1.75 H 79.008006 L 94.382997,41.513074 H 24.478974 Z" />
  <path
     id="path3627"
     style="fill:#000000;fill-rule:evenodd;stroke:none;stroke-width:0.7pt;marker-start:none;marker-end:none"
     d="m 97.745907,122.33128 c 1.22237,1.49614 1.00016,3.70247 -0.49599,4.92483 -1.49614,1.22236 -3.70247,1.00016 -4.92483,-0.49599 -1.222365,-1.49615 -1.00016,-3.70247 0.49599,-4.92483 1.49615,-1.22236 3.70247,-1.00016 4.92483,0.49599 z" />
  <path
     id="path3611"
     style="fill:#000000;fill-opacity:1;fill-rule:evenodd;stroke:none;stroke-width:0.7pt;marker-start:none;marker-end:none"
     d="m 93.162517,45.276694 c -1.63194,-1.03411 -2.117145,-3.19786 -1.08303,-4.82981 1.03411,-1.63194 3.19786,-2.11714 4.82981,-1.08303 1.63194,1.03411 2.11714,3.19787 1.08303,4.82981 -1.03411,1.63194 -3.19787,2.11714 -4.82981,1.08303 z" />
  <path
     id="path3613"
     style="fill:#000000;fill-opacity:1;fill-rule:evenodd;stroke:none;stroke-width:0.7pt;marker-start:none;marker-end:none"
     d="m 20.186726,40.559874 c 1.02487,-1.63776 3.18585,-2.13517 4.82361,-1.11029 1.63776,1.02488 2.13517,3.18586 1.11029,4.82362 -1.02488,1.63775 -3.18586,2.13516 -4.82361,1.11029 -1.63776,-1.02488 -2.13517,-3.18586 -1.11029,-4.82362 z" />
  <path
     id="path3609"
     style="fill:#000000;fill-opacity:1;fill-rule:evenodd;stroke:none;stroke-width:0.7pt;marker-start:none;marker-end:none"
     d="m 82.768025,9.8386643 c -1.03411,1.6319397 -3.19786,2.1171397 -4.829813,1.0830297 -1.63194,-1.0341097 -2.11714,-3.1978597 -1.08303,-4.8298097 1.03411,-1.6319397 3.197873,-2.1171397 4.829813,-1.08303 1.63194,1.03411 2.11714,3.19787 1.08303,4.82981 z" />
  <path
     id="path3615"
     style="fill:#000000;fill-opacity:1;fill-rule:evenodd;stroke:none;stroke-width:0.7pt;marker-start:none;marker-end:none"
     d="m 8.8272928,5.0951343 c 1.6377602,1.02487 2.1351702,3.18585 1.11029,4.82361 -1.02488,1.6377597 -3.18586,2.1351697 -4.82362,1.1102897 -1.63775,-1.02488 -2.13516,-3.1858597 -1.11029,-4.8236097 1.02488,-1.6377597 3.18586,-2.1351697 4.82362,-1.11029 z" />
  <path
     id="path6134"
     style="fill:none;fill-rule:evenodd;stroke:#000000;stroke-width:1.75;stroke-linecap:butt;stroke-linejoin:miter;stroke-miterlimit:4;stroke-dasharray:none;stroke-opacity:1"
     d="m 23.283068,42.589381 0.290405,83.554359" />
  <path
     id="text6151"
     d="m 9.1218715,103.77982 0.7470827,-0.53595 0.5197098,0.12993 -1.1937083,5.14837 c -0.1191071,0.5143 -0.1786571,0.91491 -0.1786502,1.20183 -6.9e-6,0.21655 0.035182,0.37354 0.105566,0.47099 0.07037,0.0974 0.1813499,0.14617 0.3329391,0.14616 0.1624018,1e-5 0.3356382,-0.0663 0.5197097,-0.19895 0.1840557,-0.13263 0.4439107,-0.38572 0.7795647,-0.75926 l 0.462866,0.45475 c -0.487236,0.51971 -0.902733,0.88919 -1.246491,1.10844 -0.3437738,0.21925 -0.7159613,0.32888 -1.1165638,0.32888 -0.3356522,0 -0.6036273,-0.11098 -0.8039259,-0.33294 -0.2003105,-0.22196 -0.3004628,-0.517 -0.3004572,-0.88513 -5.6e-6,-0.29775 0.062251,-0.61445 0.1867707,-0.9501 l -0.1055661,-0.0325 c -0.5197148,0.75791 -1.0123558,1.31281 -1.4779244,1.6647 -0.4655771,0.35188 -0.9582181,0.52783 -1.4779245,0.52783 -0.5955029,0 -1.0570154,-0.22467 -1.3845392,-0.674 -0.3275264,-0.44933 -0.4912889,-1.08002 -0.491288,-1.89207 -9e-7,-0.93114 0.1827094,-1.82575 0.5481313,-2.68381 0.3654191,-0.85806 0.867534,-1.53476 1.5063461,-2.03012 0.6388063,-0.49534 1.3506996,-0.74301 2.1356821,-0.74302 0.3518814,1e-5 0.6807598,0.0393 0.9866364,0.11775 0.3058644,0.0785 0.6212088,0.2179 0.946034,0.4182 z m -0.7146008,2.4199 c 0.048716,-0.22196 0.081198,-0.41414 0.097446,-0.57656 0.016234,-0.1624 0.024355,-0.33834 0.024361,-0.52783 -6.4e-6,-0.41684 -0.089331,-0.72271 -0.2679754,-0.91761 -0.1786561,-0.19488 -0.4818198,-0.29233 -0.909492,-0.29233 -0.5576098,0 -1.0583713,0.22467 -1.5022858,0.67399 -0.443922,0.44934 -0.7903948,1.05161 -1.0394194,1.80681 -0.24903,0.7552 -0.3735437,1.50905 -0.3735414,2.26155 -2.3e-6,0.56302 0.077142,0.98393 0.2314332,1.26273 0.1542862,0.2788 0.4127874,0.4182 0.7755044,0.4182 0.3572967,0 0.7078298,-0.15429 1.0516001,-0.46286 0.3437616,-0.30858 0.6983549,-0.74844 1.0637808,-1.31958 0.3654151,-0.57114 0.6239163,-1.23025 0.7755043,-1.97733 z"
     style="font-style:normal;font-weight:normal;font-size:16.6307106px;font-family:'Bitstream Vera Sans';fill:#000000;fill-opacity:1;stroke:none;stroke-width:1px;stroke-linecap:butt;stroke-linejoin:miter;stroke-opacity:1" />
  <path
     id="text6155"
     d="m 56.678533,138.68196 -0.747083,0.52783 -0.51971,-0.12993 2.103201,-9.28169 c 0.12451,-0.55218 0.186767,-0.95279 0.18677,-1.20182 -3e-6,-0.22737 -0.06903,-0.38707 -0.207072,-0.47911 -0.13805,-0.092 -0.385724,-0.14345 -0.743022,-0.15429 l 0.09745,-0.42227 2.054478,-0.0731 h 0.470987 l -1.429202,5.68433 0.105566,0.0325 c 0.52512,-0.70377 1.017761,-1.21265 1.477925,-1.52665 0.460154,-0.31398 0.920313,-0.47098 1.380479,-0.47099 0.59008,1e-5 1.048886,0.22468 1.376418,0.674 0.327518,0.44934 0.49128,1.08274 0.491288,1.90019 -8e-6,0.89326 -0.180011,1.77162 -0.540011,2.63509 -0.360014,0.86348 -0.859422,1.5483 -1.498225,2.05448 -0.638815,0.50617 -1.353416,0.75926 -2.143803,0.75926 -0.720017,0 -1.358827,-0.17594 -1.916429,-0.52783 z m 0.714601,-2.42802 c -0.08121,0.37896 -0.12181,0.74709 -0.121807,1.10439 -3e-6,0.42768 0.09338,0.73625 0.280156,0.92573 0.186767,0.18948 0.496698,0.28422 0.929793,0.28422 0.221955,0 0.433087,-0.0365 0.633396,-0.10963 0.2003,-0.0731 0.404665,-0.19354 0.613095,-0.36136 0.20842,-0.16782 0.406018,-0.38843 0.592794,-0.66182 0.186765,-0.27339 0.358648,-0.61039 0.515649,-1.011 0.15699,-0.4006 0.278797,-0.82963 0.365421,-1.28709 0.08661,-0.45745 0.129921,-0.8946 0.129928,-1.31146 -7e-6,-0.56301 -0.07986,-0.98527 -0.239554,-1.26679 -0.159709,-0.2815 -0.415503,-0.42226 -0.767384,-0.42226 -0.25986,0 -0.515655,0.0826 -0.767384,0.24767 -0.251739,0.16512 -0.531895,0.43851 -0.840468,0.82017 -0.308581,0.38167 -0.560315,0.7728 -0.755203,1.17341 -0.194894,0.40061 -0.36001,0.9122 -0.495348,1.53476 z"
     style="font-style:normal;font-weight:normal;font-size:16.6307106px;font-family:'Bitstream Vera Sans';fill:#000000;fill-opacity:1;stroke:none;stroke-width:1px;stroke-linecap:butt;stroke-linejoin:miter;stroke-opacity:1" />
  <path
     id="text6159"
     d="m 103.37041,81.496044 c -0.0108,-0.41143 -0.0447,-0.709181 -0.10151,-0.893251 -0.0568,-0.184057 -0.14888,-0.322105 -0.27609,-0.414144 -0.12723,-0.09202 -0.30723,-0.13804 -0.54001,-0.138047 -0.54679,7e-6 -1.03807,0.217906 -1.47387,0.653697 -0.4358,0.435804 -0.79175,1.052959 -1.067839,1.851466 -0.276098,0.798516 -0.414146,1.565899 -0.414144,2.302151 -2e-6,0.552193 0.108271,0.962273 0.324819,1.230253 0.216544,0.26797 0.541364,0.40196 0.974454,0.40196 0.49264,0 0.91896,-0.0934 1.27897,-0.28016 0.36001,-0.18676 0.74031,-0.48045 1.14093,-0.88107 l 0.49535,0.49535 c -0.50889,0.56302 -1.02183,0.97446 -1.53883,1.23431 -0.51701,0.25986 -1.07326,0.38979 -1.66876,0.38979 -0.784976,0 -1.380476,-0.23279 -1.786497,-0.69836 -0.406025,-0.46558 -0.609036,-1.14228 -0.609035,-2.030121 -1e-6,-0.579256 0.108272,-1.215359 0.324818,-1.908309 0.216545,-0.692941 0.533243,-1.301975 0.950095,-1.827104 0.416848,-0.525117 0.904079,-0.917605 1.461679,-1.177467 0.55761,-0.259847 1.15311,-0.389775 1.78651,-0.389783 0.72,8e-6 1.38318,0.08121 1.98951,0.243614 l -0.3979,1.835225 z"
     style="font-style:normal;font-weight:normal;font-size:16.6307106px;font-family:'Bitstream Vera Sans';fill:#000000;fill-opacity:1;stroke:none;stroke-width:1px;stroke-linecap:butt;stroke-linejoin:miter;stroke-opacity:1" />
</svg>
