<?xml version="1.0" encoding="UTF-8" standalone="no"?>
<svg
   xmlns:dc="http://purl.org/dc/elements/1.1/"
   xmlns:cc="http://creativecommons.org/ns#"
   xmlns:rdf="http://www.w3.org/1999/02/22-rdf-syntax-ns#"
   xmlns:svg="http://www.w3.org/2000/svg"
   xmlns="http://www.w3.org/2000/svg"
   version="1.0"
   width="138.73"
   height="140.7"
   id="svg2379">
  <metadata
     id="metadata2413">
    <rdf:RDF>
      <cc:Work
         rdf:about="">
        <dc:format>image/svg+xml</dc:format>
        <dc:type
           rdf:resource="http://purl.org/dc/dcmitype/StillImage" />
        <dc:title></dc:title>
      </cc:Work>
    </rdf:RDF>
  </metadata>
  <defs
     id="defs2381" />
  <text
     xml:space="preserve"
     style="font-style:normal;font-weight:normal;font-size:20px;font-family:'Bitstream Vera Sans';fill:#000000;fill-opacity:1;stroke:none;stroke-width:1px;stroke-linecap:butt;stroke-linejoin:miter;stroke-opacity:1"
     x="29.852833"
     y="-1.1848152"
     id="text2417"><tspan
       id="tspan2419"
       x="29.852833"
       y="-1.1848152" /></text>
  <text
     xml:space="preserve"
     style="font-style:normal;font-weight:normal;font-size:16px;font-family:'Bitstream Vera Sans';fill:#000000;fill-opacity:1;stroke:none;stroke-width:1px;stroke-linecap:butt;stroke-linejoin:miter;stroke-opacity:1"
     x="26.834007"
     y="-5.5453405"
     id="text2421"><tspan
       id="tspan2423"
       x="26.834007"
       y="-5.5453405" /></text>
  <text
     xml:space="preserve"
     style="font-style:normal;font-weight:normal;font-size:20px;font-family:'Bitstream Vera Sans';fill:#000000;fill-opacity:1;stroke:none;stroke-width:1px;stroke-linecap:butt;stroke-linejoin:miter;stroke-opacity:1"
     x="29.181984"
     y="-1.855664"
     id="text2425"><tspan
       id="tspan2427"
       x="29.181984"
       y="-1.855664" /></text>
  <text
     xml:space="preserve"
     style="font-style:normal;font-weight:normal;font-size:14px;font-family:'Bitstream Vera Sans';fill:#000000;fill-opacity:1;stroke:none;stroke-width:1px;stroke-linecap:butt;stroke-linejoin:miter;stroke-opacity:1"
     x="25.492308"
     y="-3.8682163"
     id="text2429"><tspan
       id="tspan2431"
       x="25.492308"
       y="-3.8682163" /></text>
  <text
     xml:space="preserve"
     style="font-style:normal;font-weight:normal;font-size:14px;font-family:'Bitstream Vera Sans';fill:#000000;fill-opacity:1;stroke:none;stroke-width:1px;stroke-linecap:butt;stroke-linejoin:miter;stroke-opacity:1"
     x="27.504858"
     y="-3.1973655"
     id="text2433"><tspan
       id="tspan2435"
       x="27.504858"
       y="-3.1973655" /></text>
  <text
     xml:space="preserve"
     style="font-style:normal;font-weight:normal;font-size:14px;font-family:'Bitstream Vera Sans';fill:#000000;fill-opacity:1;stroke:none;stroke-width:1px;stroke-linecap:butt;stroke-linejoin:miter;stroke-opacity:1"
     x="50.313763"
     y="-8.8995924"
     id="text2441"><tspan
       id="tspan2443"
       x="50.313763"
       y="-8.8995924" /></text>
  <text
     xml:space="preserve"
     style="font-style:normal;font-weight:normal;font-size:14px;font-family:'Bitstream Vera Sans';fill:#000000;fill-opacity:1;stroke:none;stroke-width:1px;stroke-linecap:butt;stroke-linejoin:miter;stroke-opacity:1"
     x="50.649189"
     y="-6.5516176"
     id="text2445"><tspan
       id="tspan2447"
       x="50.649189"
       y="-6.5516176" /></text>
  <g
     transform="translate(0,-24.999997)"
     id="g3435">
    <path
       id="path3625"
       style="fill:#000000;fill-rule:evenodd;stroke:none;stroke-width:0.7pt;marker-start:none;marker-end:none"
       d="m 29.44295,149.77138 c -1.03411,1.63194 -3.19786,2.11714 -4.82981,1.08303 -1.63194,-1.03411 -2.11714,-3.19786 -1.08303,-4.82981 1.03411,-1.63194 3.19787,-2.11714 4.82981,-1.08303 1.63194,1.03411 2.11714,3.19787 1.08303,4.82981 z" />
    <path
       id="path3635"
       style="fill:#c0c0c0;fill-opacity:1;fill-rule:evenodd;stroke:none;stroke-width:0.7pt;marker-start:none;marker-end:none"
       d="m 99.9192,111.34439 c 1.22237,1.49614 1.00016,3.70247 -0.49599,4.92483 -1.49614,1.22236 -3.70247,1.00016 -4.92483,-0.49599 -1.22236,-1.49615 -1.00016,-3.70247 0.49599,-4.92483 1.49615,-1.22236 3.70247,-1.00016 4.92483,0.49599 z" />
    <path
       id="path3637"
       style="fill:#c0c0c0;fill-opacity:1;fill-rule:evenodd;stroke:none;stroke-width:1.75;stroke-linecap:butt;stroke-linejoin:miter;stroke-miterlimit:4;stroke-dasharray:none;stroke-opacity:1"
       d="m 113.80204,147.87293 0.0312,-0.28125 -0.125,-0.28125 -16.21875,-34.375 -0.25,-0.5 h -0.53125 -85.9375 -0.71875 l -0.15625,0.71875 1.59375,1.03125 h 84.65625 l 15.875,33.625 1.78125,0.0625 z" />
    <path
       id="path3639"
       style="fill:none;fill-rule:evenodd;stroke:#c0c0c0;stroke-width:1.75;stroke-linecap:butt;stroke-linejoin:miter;stroke-miterlimit:4;stroke-dasharray:none;stroke-opacity:1"
       d="M 114.15839,29.28826 97.44752,112.84263" />
    <path
       id="text3655"
       style="font-style:normal;font-weight:normal;font-size:21.6072998px;font-family:'Bitstream Vera Sans';fill:#008000;fill-opacity:1;stroke:none;stroke-width:1px;stroke-linecap:butt;stroke-linejoin:miter;stroke-opacity:1"
       d="m 52.80718,128.38928 c -0.87218,1.18166 -1.89909,2.63411 -3.08073,4.35734 -0.17585,1.34343 -0.26377,2.29297 -0.26377,2.84862 0,0.46423 0.05275,0.79657 0.15826,0.99702 0.1055,0.20046 0.28134,0.30069 0.52752,0.30069 0.19694,0 0.42025,-0.0826 0.66996,-0.24794 0.24968,-0.16528 0.51872,-0.42025 0.80711,-0.7649 l 0.61193,0.56972 c -0.59084,0.63303 -1.1043,1.06736 -1.54037,1.30298 -0.4361,0.23563 -0.88625,0.35344 -1.35046,0.35344 -0.93548,0 -1.40322,-0.68226 -1.40321,-2.04679 -1e-5,-0.30244 0.02109,-0.63654 0.0633,-1.00229 h -0.1055 c -0.72447,1.08318 -1.41025,1.86216 -2.05734,2.33693 -0.6471,0.47477 -1.33992,0.71215 -2.07844,0.71215 -0.51346,0 -0.94603,-0.1477 -1.29771,-0.44312 -0.35168,-0.29541 -0.61193,-0.68753 -0.78073,-1.17637 -0.16881,-0.48884 -0.25322,-1.02164 -0.25321,-1.5984 -1e-5,-1.25901 0.23914,-2.45297 0.71743,-3.58188 0.47828,-1.12889 1.14296,-2.01513 1.99403,-2.65871 0.85107,-0.64357 1.80764,-0.96536 2.86973,-0.96537 0.78776,1e-5 1.40496,0.24619 1.8516,0.73853 0.44663,0.49237 0.69457,1.21331 0.74381,2.16285 l 0.09496,-0.0105 1.38211,-2.72202 h 1.82522 l -0.1055,0.53807 z m -4.58945,4.43119 c 0.11956,-0.73149 0.17935,-1.37858 0.17936,-1.94128 -10e-6,-0.80183 -0.11782,-1.39617 -0.35344,-1.78303 -0.23564,-0.38684 -0.60314,-0.58026 -1.10252,-0.58027 -0.64711,10e-6 -1.24848,0.28838 -1.80413,0.86513 -0.55567,0.57677 -1.00054,1.3575 -1.33464,2.34221 -0.3341,0.98471 -0.50115,1.99404 -0.50114,3.02798 -1e-5,0.7104 0.1055,1.23792 0.31651,1.58257 0.21101,0.34465 0.52752,0.51697 0.94954,0.51697 0.60489,0 1.22737,-0.3552 1.86743,-1.0656 0.64006,-0.71039 1.2344,-1.69862 1.78303,-2.96468 z" />
    <path
       id="text3667"
       style="font-style:normal;font-weight:normal;font-size:21.6072998px;font-family:'Bitstream Vera Sans';fill:#000000;fill-opacity:1;stroke:none;stroke-width:1px;stroke-linecap:butt;stroke-linejoin:miter;stroke-opacity:1"
       d="m 10.95383,126.17275 0.97064,-0.69633 0.67523,0.1688 -1.55092,6.689 c -0.15475,0.66819 -0.23212,1.18868 -0.23211,1.56146 -10e-6,0.28135 0.04571,0.48533 0.13716,0.61193 0.09142,0.12661 0.23561,0.18991 0.43256,0.18991 0.211,0 0.43608,-0.0862 0.67523,-0.25849 0.23914,-0.17232 0.57675,-0.50114 1.01285,-0.98647 l 0.60137,0.59083 c -0.63303,0.67523 -1.17287,1.15528 -1.61949,1.44014 -0.44665,0.28486 -0.93021,0.42729 -1.45069,0.42729 -0.43609,0 -0.78426,-0.14419 -1.0445,-0.43257 -0.26025,-0.28838 -0.39037,-0.67171 -0.39036,-1.15 -10e-6,-0.38685 0.08088,-0.79831 0.24266,-1.2344 l -0.13716,-0.0422 c -0.67523,0.98471 -1.31529,1.70566 -1.92018,2.16284 -0.6049,0.45719 -1.24496,0.68578 -1.92018,0.68578 -0.77371,0 -1.37332,-0.2919 -1.79886,-0.87569 -0.42553,-0.58379 -0.6383,-1.40321 -0.6383,-2.45825 0,-1.20979 0.23738,-2.37209 0.71216,-3.48693 0.47476,-1.11482 1.12713,-1.99403 1.95711,-2.63762 0.82996,-0.64356 1.75488,-0.96535 2.77477,-0.96536 0.45718,10e-6 0.88447,0.051 1.28188,0.15298 0.39739,0.102 0.8071,0.28311 1.22913,0.54335 z m -0.92844,3.14403 c 0.06329,-0.28837 0.10549,-0.53806 0.1266,-0.74908 0.02109,-0.211 0.03164,-0.43959 0.03165,-0.68578 -10e-6,-0.54158 -0.11606,-0.93898 -0.34816,-1.1922 -0.23212,-0.2532 -0.626,-0.37981 -1.18165,-0.37982 -0.72448,1e-5 -1.37509,0.29191 -1.95184,0.87569 -0.57676,0.5838 -1.02691,1.36629 -1.35046,2.34748 -0.32355,0.9812 -0.48532,1.96063 -0.48532,2.9383 0,0.7315 0.10023,1.27837 0.30069,1.6406 0.20045,0.36223 0.53631,0.54335 1.00757,0.54335 0.46421,0 0.91964,-0.20046 1.36628,-0.60138 0.44663,-0.40091 0.90733,-0.9724 1.38211,-1.71445 0.47477,-0.74204 0.81062,-1.59839 1.00757,-2.56904 z" />
    <path
       id="text3671"
       style="font-style:normal;font-weight:normal;font-size:21.6072998px;font-family:'Bitstream Vera Sans';fill:#000000;fill-opacity:1;stroke:none;stroke-width:1px;stroke-linecap:butt;stroke-linejoin:miter;stroke-opacity:1"
       d="m 72.07635,152.96367 0.97064,-0.69633 0.67523,0.16881 -1.55092,6.68899 c -0.15475,0.6682 -0.23212,1.18868 -0.23211,1.56147 -1e-5,0.28134 0.04571,0.48532 0.13716,0.61192 0.09142,0.12661 0.23561,0.18991 0.43256,0.18991 0.211,0 0.43608,-0.0862 0.67523,-0.25849 0.23914,-0.17232 0.57675,-0.50114 1.01285,-0.98646 l 0.60137,0.59082 c -0.63303,0.67523 -1.17287,1.15528 -1.61949,1.44014 -0.44665,0.28486 -0.93021,0.42729 -1.45069,0.42729 -0.43609,0 -0.78426,-0.14419 -1.04449,-0.43257 -0.26026,-0.28837 -0.39038,-0.67171 -0.39037,-1.15 -10e-6,-0.38684 0.08088,-0.79831 0.24266,-1.2344 l -0.13716,-0.0422 c -0.67523,0.98471 -1.31529,1.70566 -1.92018,2.16284 -0.6049,0.45719 -1.24496,0.68578 -1.92018,0.68578 -0.77371,0 -1.37332,-0.29189 -1.79886,-0.87569 -0.42553,-0.58379 -0.6383,-1.4032 -0.6383,-2.45825 0,-1.20978 0.23738,-2.37209 0.71216,-3.48693 0.47476,-1.11482 1.12713,-1.99403 1.95711,-2.63761 0.82996,-0.64357 1.75488,-0.96536 2.77477,-0.96537 0.45718,1e-5 0.88447,0.051 1.28188,0.15298 0.39739,0.102 0.8071,0.28311 1.22913,0.54335 z m -0.92844,3.14404 c 0.06329,-0.28838 0.10549,-0.53807 0.1266,-0.74909 0.02109,-0.211 0.03164,-0.43959 0.03165,-0.68578 -1e-5,-0.54158 -0.11606,-0.93898 -0.34816,-1.1922 -0.23212,-0.2532 -0.626,-0.37981 -1.18165,-0.37981 -0.72448,0 -1.37509,0.2919 -1.95184,0.87568 -0.57676,0.5838 -1.02691,1.36629 -1.35046,2.34748 -0.32355,0.9812 -0.48532,1.96063 -0.48532,2.9383 0,0.7315 0.10023,1.27837 0.30069,1.6406 0.20045,0.36223 0.53631,0.54335 1.00757,0.54335 0.46421,0 0.91964,-0.20046 1.36628,-0.60138 0.44663,-0.40091 0.90734,-0.9724 1.38211,-1.71445 0.47477,-0.74204 0.81062,-1.59839 1.00757,-2.56903 z" />
    <path
       id="text3675"
       style="font-style:normal;font-weight:normal;font-size:21.6072998px;font-family:'Bitstream Vera Sans';fill:#000000;fill-opacity:1;stroke:none;stroke-width:1px;stroke-linecap:butt;stroke-linejoin:miter;stroke-opacity:1"
       d="m 133.00833,102.34616 0.97064,-0.69633 0.67523,0.16881 -1.55092,6.68899 c -0.15475,0.6682 -0.23211,1.18869 -0.23211,1.56147 0,0.28135 0.0457,0.48532 0.13716,0.61193 0.0914,0.1266 0.23562,0.18991 0.43257,0.18991 0.211,0 0.43607,-0.0862 0.67523,-0.25849 0.23913,-0.17232 0.57675,-0.50115 1.01284,-0.98647 l 0.60138,0.59083 c -0.63304,0.67523 -1.17287,1.15527 -1.6195,1.44013 -0.44664,0.28487 -0.93021,0.4273 -1.45069,0.4273 -0.43609,0 -0.78425,-0.14419 -1.04449,-0.43257 -0.26025,-0.28838 -0.39037,-0.67171 -0.39037,-1.15 0,-0.38685 0.0809,-0.79832 0.24266,-1.2344 l -0.13715,-0.0422 c -0.67524,0.98471 -1.3153,1.70566 -1.92019,2.16285 -0.60489,0.45718 -1.24495,0.68578 -1.92018,0.68578 -0.7737,0 -1.37332,-0.2919 -1.79885,-0.87569 -0.42554,-0.58379 -0.63831,-1.40321 -0.63831,-2.45826 0,-1.20978 0.23739,-2.37209 0.71216,-3.48692 0.47477,-1.11483 1.12714,-1.99403 1.95711,-2.63762 0.82996,-0.64357 1.75489,-0.96536 2.77477,-0.96537 0.45718,1e-5 0.88447,0.051 1.28188,0.15299 0.39739,0.10199 0.8071,0.28311 1.22913,0.54334 v 0 z m -0.92844,3.14404 c 0.0633,-0.28837 0.1055,-0.53807 0.12661,-0.74908 0.0211,-0.211 0.0316,-0.4396 0.0316,-0.68578 -1e-5,-0.54158 -0.11607,-0.93898 -0.34817,-1.1922 -0.23212,-0.2532 -0.626,-0.37981 -1.18165,-0.37982 -0.72447,10e-6 -1.37508,0.29191 -1.95184,0.87569 -0.57676,0.5838 -1.02691,1.36629 -1.35045,2.34748 -0.32355,0.98119 -0.48533,1.96063 -0.48532,2.9383 -1e-5,0.7315 0.10022,1.27836 0.30068,1.64059 0.20046,0.36224 0.53631,0.54335 1.00757,0.54335 0.46422,0 0.91965,-0.20045 1.36629,-0.60137 0.44663,-0.40092 0.90733,-0.9724 1.38211,-1.71445 0.47476,-0.74205 0.81062,-1.59839 1.00757,-2.56904 z" />
    <path
       id="path3679"
       style="fill:none;fill-rule:evenodd;stroke:#008000;stroke-width:0.90500176px;stroke-linecap:butt;stroke-linejoin:miter;stroke-opacity:1"
       d="m 39.930572,56.005132 c 7.91231,-0.983294 13.819682,0.375205 16.05644,9.100349" />
    <path
       id="path3681"
       style="fill:none;fill-rule:evenodd;stroke:#008000;stroke-width:1px;stroke-linecap:butt;stroke-linejoin:miter;stroke-opacity:1"
       d="m 29.6491,134.80549 c 6.2069,0.3183 15.75597,7.55968 14.32361,13.84615" />
    <path
       id="path3683"
       style="fill:none;fill-rule:evenodd;stroke:#008000;stroke-width:1px;stroke-linecap:butt;stroke-linejoin:miter;stroke-opacity:1"
       d="m 105.56422,130.50841 c 1.51194,-2.54642 7.32096,-4.37666 10.26526,-3.34218" />
    <path
       id="path3601"
       style="fill:none;fill-rule:evenodd;stroke:#000000;stroke-width:1.75;stroke-linecap:butt;stroke-linejoin:miter;stroke-miterlimit:4;stroke-dasharray:none;stroke-opacity:1"
       d="M 43.25653,65.81345 26.54566,149.36782" />
    <path
       id="path3623"
       style="fill:#000000;fill-rule:evenodd;stroke:none;stroke-width:0.7pt;marker-start:none;marker-end:none"
       d="m 10.7255,116.96382 c -1.91792,0.23278 -3.66342,-1.13487 -3.89621,-3.05279 -0.23278,-1.91793 1.13487,-3.66343 3.0528,-3.89621 1.91792,-0.23278 3.66343,1.13487 3.89621,3.05279 0.23278,1.91793 -1.13487,3.66343 -3.0528,3.89621 z" />
    <path
       id="path3599"
       style="fill:#000000;fill-opacity:1;fill-rule:evenodd;stroke:none;stroke-width:1.75;stroke-linecap:butt;stroke-linejoin:miter;stroke-miterlimit:4;stroke-dasharray:none;stroke-opacity:1"
       d="m 26.16046,30.79087 -16.71875,82.59375 -0.03125,0.28125 0.125,0.28125 16.21875,34.375 0.25,0.5 h 0.53125 85.9375 0.71875 l 0.15625,-0.71875 16.71875,-82.125 -1.71875,-0.34375 -16.59375,81.4375 H 27.09796 l -15.875,-33.625 16.65625,-82.3125 z" />
    <path
       id="path3627"
       style="fill:#000000;fill-rule:evenodd;stroke:none;stroke-width:0.7pt;marker-start:none;marker-end:none"
       d="m 115.1435,145.76533 c 1.22237,1.49614 1.00016,3.70247 -0.49599,4.92483 -1.49614,1.22236 -3.70247,1.00016 -4.92483,-0.49599 -1.22236,-1.49615 -1.00016,-3.70247 0.49599,-4.92483 1.49615,-1.22236 3.70247,-1.00016 4.92483,0.49599 z" />
    <path
       id="path2430"
       style="fill:#000000;fill-opacity:1;fill-rule:evenodd;stroke:none;stroke-width:1.75;stroke-linecap:butt;stroke-linejoin:miter;stroke-miterlimit:4;stroke-dasharray:none;stroke-opacity:1"
       d="m 25.62921,30.57212 0.59375,1.25 16.71875,34.375 0.25,0.5 h 0.53125 85.9375 1.40625 l -0.59375,-1.25 -16.25,-34.375 -0.21875,-0.5 h -0.5625 -86.40625 z m 2.8125,1.75 h 84.46875 l 15.375,32.625 H 44.31671 Z" />
    <path
       id="path3609"
       style="fill:#000000;fill-opacity:1;fill-rule:evenodd;stroke:none;stroke-width:0.7pt;marker-start:none;marker-end:none"
       d="m 116.3395,33.27271 c -1.03411,1.63194 -3.19786,2.11714 -4.82981,1.08303 -1.63194,-1.03411 -2.11714,-3.19786 -1.08303,-4.82981 1.03411,-1.63194 3.19787,-2.11714 4.82981,-1.08303 1.63194,1.03411 2.11714,3.19787 1.08303,4.82981 z" />
    <path
       id="path3611"
       style="fill:#000000;fill-opacity:1;fill-rule:evenodd;stroke:none;stroke-width:0.7pt;marker-start:none;marker-end:none"
       d="m 127.83971,68.71074 c -1.63194,-1.03411 -2.11714,-3.19786 -1.08303,-4.82981 1.03411,-1.63194 3.19786,-2.11714 4.82981,-1.08303 1.63194,1.03411 2.11714,3.19787 1.08303,4.82981 -1.03411,1.63194 -3.19787,2.11714 -4.82981,1.08303 z" />
    <path
       id="path3613"
       style="fill:#000000;fill-opacity:1;fill-rule:evenodd;stroke:none;stroke-width:0.7pt;marker-start:none;marker-end:none"
       d="m 40.82637,63.99392 c 1.02487,-1.63776 3.18585,-2.13517 4.82361,-1.11029 1.63776,1.02488 2.13517,3.18586 1.11029,4.82362 -1.02488,1.63775 -3.18586,2.13516 -4.82361,1.11029 -1.63776,-1.02488 -2.13517,-3.18586 -1.11029,-4.82362 z" />
    <path
       id="path3615"
       style="fill:#000000;fill-opacity:1;fill-rule:evenodd;stroke:none;stroke-width:0.7pt;marker-start:none;marker-end:none"
       d="m 28.84264,28.52918 c 1.63776,1.02487 2.13517,3.18585 1.11029,4.82361 -1.02488,1.63776 -3.18586,2.13517 -4.82362,1.11029 -1.63775,-1.02488 -2.13516,-3.18586 -1.11029,-4.82361 1.02488,-1.63776 3.18586,-2.13517 4.82362,-1.11029 z" />
    <path
       d="m 116.20252,113.29515 c -0.87218,1.18166 -1.89909,2.63411 -3.08073,4.35734 -0.17585,1.34343 -0.26377,2.29297 -0.26377,2.84862 0,0.46423 0.0528,0.79657 0.15826,0.99702 0.1055,0.20046 0.28134,0.30069 0.52752,0.30069 0.19694,0 0.42025,-0.0826 0.66996,-0.24794 0.24968,-0.16528 0.51872,-0.42025 0.80711,-0.7649 l 0.61193,0.56972 c -0.59084,0.63303 -1.1043,1.06736 -1.54037,1.30298 -0.4361,0.23563 -0.88625,0.35344 -1.35046,0.35344 -0.93548,0 -1.40322,-0.68226 -1.40321,-2.04679 -10e-6,-0.30244 0.0211,-0.63654 0.0633,-1.00229 h -0.1055 c -0.72447,1.08318 -1.41025,1.86216 -2.05734,2.33693 -0.6471,0.47477 -1.33992,0.71215 -2.07844,0.71215 -0.51346,0 -0.94603,-0.1477 -1.29771,-0.44312 -0.35168,-0.29541 -0.61193,-0.68753 -0.78073,-1.17637 -0.16881,-0.48884 -0.25322,-1.02164 -0.25321,-1.5984 -1e-5,-1.25901 0.23914,-2.45297 0.71743,-3.58188 0.47828,-1.12889 1.14296,-2.01513 1.99403,-2.65871 0.85107,-0.64357 1.80764,-0.96536 2.86973,-0.96537 0.78776,1e-5 1.40496,0.24619 1.8516,0.73853 0.44663,0.49237 0.69457,1.21331 0.74381,2.16285 l 0.095,-0.0105 1.38211,-2.72202 h 1.82522 l -0.1055,0.53807 z m -4.58945,4.43119 c 0.11956,-0.73149 0.17935,-1.37858 0.17936,-1.94128 -10e-6,-0.80183 -0.11782,-1.39617 -0.35344,-1.78303 -0.23564,-0.38684 -0.60314,-0.58026 -1.10252,-0.58027 -0.64711,10e-6 -1.24848,0.28838 -1.80413,0.86513 -0.55567,0.57677 -1.00054,1.3575 -1.33464,2.34221 -0.3341,0.98471 -0.50115,1.99404 -0.50114,3.02798 -1e-5,0.7104 0.1055,1.23792 0.31651,1.58257 0.21101,0.34465 0.52752,0.51697 0.94954,0.51697 0.60489,0 1.22737,-0.3552 1.86743,-1.0656 0.64006,-0.71039 1.2344,-1.69862 1.78303,-2.96468 z"
       style="font-style:normal;font-weight:normal;font-size:21.6072998px;font-family:'Bitstream Vera Sans';fill:#008000;fill-opacity:1;stroke:none;stroke-width:1px;stroke-linecap:butt;stroke-linejoin:miter;stroke-opacity:1"
       id="path3404" />
    <path
       id="path3406"
       style="font-style:normal;font-weight:normal;font-size:21.6072998px;font-family:'Bitstream Vera Sans';fill:#008000;fill-opacity:1;stroke:none;stroke-width:1px;stroke-linecap:butt;stroke-linejoin:miter;stroke-opacity:1"
       d="m 63.876204,45.53928 c -0.87218,1.18166 -1.89909,2.63411 -3.08073,4.35734 -0.17585,1.34343 -0.26377,2.29297 -0.26377,2.84862 0,0.46423 0.0528,0.79657 0.15826,0.99702 0.1055,0.20046 0.28134,0.30069 0.52752,0.30069 0.19694,0 0.42025,-0.0826 0.66996,-0.24794 0.24968,-0.16528 0.51872,-0.42025 0.80711,-0.7649 l 0.61193,0.56972 c -0.59084,0.63303 -1.1043,1.06736 -1.54037,1.30298 -0.4361,0.23563 -0.88625,0.35344 -1.35046,0.35344 -0.93548,0 -1.40322,-0.68226 -1.40321,-2.04679 -1e-5,-0.30244 0.0211,-0.63654 0.0633,-1.00229 h -0.1055 c -0.72447,1.08318 -1.41025,1.86216 -2.05734,2.33693 -0.6471,0.47477 -1.33992,0.71215 -2.07844,0.71215 -0.51346,0 -0.94603,-0.1477 -1.29771,-0.44312 -0.35168,-0.29541 -0.61193,-0.68753 -0.78073,-1.17637 -0.16881,-0.48884 -0.25322,-1.02164 -0.25321,-1.5984 -1e-5,-1.25901 0.23914,-2.45297 0.71743,-3.58188 0.47828,-1.12889 1.14296,-2.01513 1.99403,-2.65871 0.85107,-0.64357 1.80764,-0.96536 2.86973,-0.96537 0.78776,1e-5 1.40496,0.24619 1.8516,0.73853 0.44663,0.49237 0.69457,1.21331 0.74381,2.16285 l 0.095,-0.0105 1.38211,-2.72202 h 1.82522 l -0.1055,0.53807 z m -4.58945,4.43119 c 0.11956,-0.73149 0.17935,-1.37858 0.17936,-1.94128 -10e-6,-0.80183 -0.11782,-1.39617 -0.35344,-1.78303 -0.23564,-0.38684 -0.60314,-0.58026 -1.10252,-0.58027 -0.64711,1e-5 -1.24848,0.28838 -1.80413,0.86513 -0.55567,0.57677 -1.00054,1.3575 -1.33464,2.34221 -0.3341,0.98471 -0.50115,1.99404 -0.50114,3.02798 -10e-6,0.7104 0.1055,1.23792 0.31651,1.58257 0.21101,0.34465 0.52752,0.51697 0.94954,0.51697 0.60489,0 1.22737,-0.3552 1.86743,-1.0656 0.64006,-0.71039 1.2344,-1.69862 1.78303,-2.96468 z" />
  </g>
</svg>
