<svg width="16" height="16" viewBox="0 0 16 16" fill="none" xmlns="http://www.w3.org/2000/svg">
  <path d="M12 1H3C1.9 1 1 1.9 1 3V12C1 13.1 1.9 14 3 14H12C13.1 14 14 13.1 14 12V3C14 1.9 13.1 1 12 1ZM4.5 11C4.22 11 4 10.78 4 10.5C4 10.22 4.22 10 4.5 10C4.78 10 5 10.22 5 10.5C5 10.78 4.78 11 4.5 11ZM4.5 8C4.22 8 4 7.78 4 7.5C4 7.22 4.22 7 4.5 7C4.78 7 5 7.22 5 7.5C5 7.78 4.78 8 4.5 8ZM4.5 5C4.22 5 4 4.78 4 4.5C4 4.22 4.22 4 4.5 4C4.78 4 5 4.22 5 4.5C5 4.78 4.78 5 4.5 5ZM10.5 11H6.5C6.22 11 6 10.78 6 10.5C6 10.22 6.22 10 6.5 10H10.5C10.78 10 11 10.22 11 10.5C11 10.78 10.78 11 10.5 11ZM10.5 8H6.5C6.22 8 6 7.78 6 7.5C6 7.22 6.22 7 6.5 7H10.5C10.78 7 11 7.22 11 7.5C11 7.78 10.78 8 10.5 8ZM10.5 5H6.5C6.22 5 6 4.78 6 4.5C6 4.22 6.22 4 6.5 4H10.5C10.78 4 11 4.22 11 4.5C11 4.78 10.78 5 10.5 5Z" fill="black" fill-opacity="0.65"/>
</svg>
