<svg width="25" height="25" viewBox="0 0 25 25" fill="none" xmlns="http://www.w3.org/2000/svg">
<path d="M19.8255 13.1964C19.8655 12.8764 19.8955 12.5564 19.8955 12.2164C19.8955 11.8764 19.8655 11.5564 19.8255 11.2364L21.9355 9.58643C22.1255 9.43643 22.1755 9.16643 22.0555 8.94643L20.0555 5.48643C19.9655 5.32643 19.7955 5.23643 19.6155 5.23643C19.5555 5.23643 19.4955 5.24643 19.4455 5.26643L16.9555 6.26643C16.4355 5.86643 15.8755 5.53643 15.2655 5.28643L14.8855 2.63643C14.8555 2.39643 14.6455 2.21643 14.3955 2.21643H10.3955C10.1455 2.21643 9.93553 2.39643 9.90553 2.63643L9.52553 5.28643C8.91553 5.53643 8.35553 5.87643 7.83553 6.26643L5.34553 5.26643C5.28553 5.24643 5.22553 5.23643 5.16553 5.23643C4.99553 5.23643 4.82553 5.32643 4.73553 5.48643L2.73553 8.94643C2.60553 9.16643 2.66553 9.43643 2.85553 9.58643L4.96553 11.2364C4.92553 11.5564 4.89553 11.8864 4.89553 12.2164C4.89553 12.5464 4.92553 12.8764 4.96553 13.1964L2.85553 14.8464C2.66553 14.9964 2.61553 15.2664 2.73553 15.4864L4.73553 18.9464C4.82553 19.1064 4.99553 19.1964 5.17553 19.1964C5.23553 19.1964 5.29553 19.1864 5.34553 19.1664L7.83553 18.1664C8.35553 18.5664 8.91553 18.8964 9.52553 19.1464L9.90553 21.7964C9.93553 22.0364 10.1455 22.2164 10.3955 22.2164H14.3955C14.6455 22.2164 14.8555 22.0364 14.8855 21.7964L15.2655 19.1464C15.8755 18.8964 16.4355 18.5564 16.9555 18.1664L19.4455 19.1664C19.5055 19.1864 19.5655 19.1964 19.6255 19.1964C19.7955 19.1964 19.9655 19.1064 20.0555 18.9464L22.0555 15.4864C22.1755 15.2664 22.1255 14.9964 21.9355 14.8464L19.8255 13.1964ZM17.8455 11.4864C17.8855 11.7964 17.8955 12.0064 17.8955 12.2164C17.8955 12.4264 17.8755 12.6464 17.8455 12.9464L17.7055 14.0764L18.5955 14.7764L19.6755 15.6164L18.9755 16.8264L17.7055 16.3164L16.6655 15.8964L15.7655 16.5764C15.3355 16.8964 14.9255 17.1364 14.5155 17.3064L13.4555 17.7364L13.2955 18.8664L13.0955 20.2164H11.6955L11.3455 17.7364L10.2855 17.3064C9.85553 17.1264 9.45553 16.8964 9.05553 16.5964L8.14553 15.8964L7.08553 16.3264L5.81553 16.8364L5.11553 15.6264L6.19553 14.7864L7.08553 14.0864L6.94553 12.9564C6.91553 12.6464 6.89553 12.4164 6.89553 12.2164C6.89553 12.0164 6.91553 11.7864 6.94553 11.4864L7.08553 10.3564L6.19553 9.65643L5.11553 8.81643L5.81553 7.60643L7.08553 8.11643L8.12553 8.53643L9.02553 7.85643C9.45553 7.53643 9.86553 7.29643 10.2755 7.12643L11.3355 6.69643L11.4955 5.56643L11.6955 4.21643H13.0855L13.4355 6.69643L14.4955 7.12643C14.9255 7.30643 15.3255 7.53643 15.7255 7.83643L16.6355 8.53643L17.6955 8.10643L18.9655 7.59643L19.6655 8.80643L18.5955 9.65643L17.7055 10.3564L17.8455 11.4864ZM12.3955 8.21643C10.1855 8.21643 8.39553 10.0064 8.39553 12.2164C8.39553 14.4264 10.1855 16.2164 12.3955 16.2164C14.6055 16.2164 16.3955 14.4264 16.3955 12.2164C16.3955 10.0064 14.6055 8.21643 12.3955 8.21643ZM12.3955 14.2164C11.2955 14.2164 10.3955 13.3164 10.3955 12.2164C10.3955 11.1164 11.2955 10.2164 12.3955 10.2164C13.4955 10.2164 14.3955 11.1164 14.3955 12.2164C14.3955 13.3164 13.4955 14.2164 12.3955 14.2164Z" fill="black"/>
</svg>
