<svg width="25" height="25" viewBox="0 0 25 25" fill="none" xmlns="http://www.w3.org/2000/svg">
<path d="M18.6527 16.2964C17.8927 16.2964 17.2127 16.5964 16.6927 17.0664L9.56271 12.9164C9.61271 12.6864 9.65271 12.4564 9.65271 12.2164C9.65271 11.9764 9.61271 11.7464 9.56271 11.5164L16.6127 7.40643C17.1527 7.90643 17.8627 8.21643 18.6527 8.21643C20.3127 8.21643 21.6527 6.87643 21.6527 5.21643C21.6527 3.55643 20.3127 2.21643 18.6527 2.21643C16.9927 2.21643 15.6527 3.55643 15.6527 5.21643C15.6527 5.45643 15.6927 5.68643 15.7427 5.91643L8.69271 10.0264C8.15271 9.52643 7.44271 9.21643 6.65271 9.21643C4.99271 9.21643 3.65271 10.5564 3.65271 12.2164C3.65271 13.8764 4.99271 15.2164 6.65271 15.2164C7.44271 15.2164 8.15271 14.9064 8.69271 14.4064L15.8127 18.5664C15.7627 18.7764 15.7327 18.9964 15.7327 19.2164C15.7327 20.8264 17.0427 22.1364 18.6527 22.1364C20.2627 22.1364 21.5727 20.8264 21.5727 19.2164C21.5727 17.6064 20.2627 16.2964 18.6527 16.2964ZM18.6527 4.21643C19.2027 4.21643 19.6527 4.66643 19.6527 5.21643C19.6527 5.76643 19.2027 6.21643 18.6527 6.21643C18.1027 6.21643 17.6527 5.76643 17.6527 5.21643C17.6527 4.66643 18.1027 4.21643 18.6527 4.21643ZM6.65271 13.2164C6.10271 13.2164 5.65271 12.7664 5.65271 12.2164C5.65271 11.6664 6.10271 11.2164 6.65271 11.2164C7.20271 11.2164 7.65271 11.6664 7.65271 12.2164C7.65271 12.7664 7.20271 13.2164 6.65271 13.2164ZM18.6527 20.2364C18.1027 20.2364 17.6527 19.7864 17.6527 19.2364C17.6527 18.6864 18.1027 18.2364 18.6527 18.2364C19.2027 18.2364 19.6527 18.6864 19.6527 19.2364C19.6527 19.7864 19.2027 20.2364 18.6527 20.2364Z" fill="black"/>
</svg>
