<svg xmlns="http://www.w3.org/2000/svg" width="100" height="100" viewBox="0 0 100 100"><rect x="14.66" y="22.41" width="70.69" height="62.29" style="fill:#242627"/><path d="M70.71,72.83v4.72H66.23A24.16,24.16,0,0,0,70.71,72.83Z" style="fill:#3b7bfb;opacity:0.4"/><path d="M35.42,39.22a24.61,24.61,0,0,0-8.1,11.93V39.22Z" style="fill:#3b7bfb;opacity:0.4"/><path d="M35.42,77.55h-8.1V65.62A24.61,24.61,0,0,0,35.42,77.55Z" style="fill:#3b7bfb;opacity:0.4"/><path d="M74.32,52.24v7.23H70.71V72.83a24.16,24.16,0,0,1-4.48,4.72H61.31V71.2a16.56,16.56,0,0,0,0-25.63V45h9.4v7.23Z" style="fill:#3b7bfb;opacity:0.6"/><path d="M34.27,58.39a16.39,16.39,0,0,0,3.18,9.75v9.41h-2a24.61,24.61,0,0,1-8.1-11.93V51.15a24.61,24.61,0,0,1,8.1-11.93h7.45a11.87,11.87,0,0,1,7.43,2.62A16.54,16.54,0,0,0,34.27,58.39Z" style="fill:#3b7bfb;opacity:0.6"/><path d="M54.63,49.16a9.85,9.85,0,0,0-3.81-.76,10,10,0,0,0-10,10A9.87,9.87,0,0,0,42,63.09H37.45v5A16.55,16.55,0,0,1,50.3,41.84,12,12,0,0,1,54.63,49.16Z" style="fill:#3b7bfb;opacity:0.8"/><path d="M67.38,58.39A16.49,16.49,0,0,1,61.31,71.2V59.47h-.56a9.64,9.64,0,0,0,.06-1.08,9.9,9.9,0,0,0-2.13-6.15h2.63V45.57A16.51,16.51,0,0,1,67.38,58.39Z" style="fill:#3b7bfb;opacity:0.8"/><path d="M54.8,51.15A11.95,11.95,0,0,1,42.87,63.09H42a9.87,9.87,0,0,1-1.18-4.7,10,10,0,0,1,10-10,9.85,9.85,0,0,1,3.81.76A12,12,0,0,1,54.8,51.15Z" style="fill:#3b7bfb"/><path d="M60.81,58.39a9.64,9.64,0,0,1-.06,1.08H57.69V52.24h1A9.9,9.9,0,0,1,60.81,58.39Z" style="fill:#3b7bfb"/><path d="M39.65,46.89v1.78l-.29.31a2.89,2.89,0,0,0-.29.32,11.32,11.32,0,0,0-2.81,7.07H33.62a13.74,13.74,0,0,1,3.31-7.07H32.08V46.89Z" style="fill:#fff"/><path d="M46.68,51.18a2.33,2.33,0,0,0,1.18-1.94c0-1.43-1.58-2.59-3.51-2.59s-3.52,1.16-3.52,2.59A2.36,2.36,0,0,0,42,51.18a2.71,2.71,0,0,0-1.47,2.29c0,1.6,1.7,2.9,3.81,2.9s3.8-1.3,3.8-2.9A2.71,2.71,0,0,0,46.68,51.18Zm-2.33-3a1.07,1.07,0,0,1,0,2.14,1.07,1.07,0,0,1,0-2.14Zm0,6.62a1.42,1.42,0,1,1,1.23-1.4A1.33,1.33,0,0,1,44.35,54.79Z" style="fill:#fff"/><path d="M34.28,35.17S31.78,15.3,51.15,15.3,68.4,35.17,68.4,35.17" style="fill:none;stroke:#b3b3b3;stroke-miterlimit:10;stroke-width:3px"/></svg>