<svg width="25" height="25" viewBox="0 0 25 25" fill="none" xmlns="http://www.w3.org/2000/svg">
<path d="M22.4477 18.3864L17.1477 13.0864H16.1577L13.6177 15.6264V16.6164L18.9177 21.9164C19.3077 22.3064 19.9377 22.3064 20.3277 21.9164L22.4477 19.7964C22.8377 19.4164 22.8377 18.7764 22.4477 18.3864ZM19.6177 19.8064L15.3777 15.5664L16.0877 14.8564L20.3277 19.0964L19.6177 19.8064Z" fill="black"/>
<path d="M18.1177 10.4064L19.5277 8.99643L21.6477 11.1164C22.8177 9.94643 22.8177 8.04643 21.6477 6.87643L18.1077 3.33643L16.6977 4.74643V1.92643L15.9977 1.21643L12.4577 4.75643L13.1677 5.46643H15.9977L14.5877 6.87643L15.6477 7.93643L12.7577 10.8264L8.62771 6.69643V5.27643L5.60771 2.25643L2.77771 5.08643L5.80771 8.11643H7.21771L11.3477 12.2464L10.4977 13.0964H8.37771L3.07771 18.3964C2.68771 18.7864 2.68771 19.4164 3.07771 19.8064L5.19771 21.9264C5.58771 22.3164 6.21771 22.3164 6.60771 21.9264L11.9077 16.6264V14.5064L17.0577 9.35643L18.1177 10.4064ZM10.1377 15.5564L5.89771 19.7964L5.18771 19.0864L9.42771 14.8464L10.1377 15.5564Z" fill="black"/>
</svg>
