<svg width="22" height="22" viewBox="0 0 22 22" fill="none" xmlns="http://www.w3.org/2000/svg">
  <path d="M15.113 7.69214C15.2195 7.69214 15.3245 7.69403 15.4292 7.69937C14.8748 4.69291 11.7583 2.3914 7.99756 2.3914C3.84427 2.3914 0.478271 5.19703 0.478271 8.65763C0.478271 10.687 1.63516 12.491 3.42973 13.6359C3.4533 13.6504 3.49856 13.679 3.49856 13.679L2.7713 15.9469L5.48987 14.5671C5.48987 14.5671 5.57504 14.5917 5.61747 14.6036C6.36484 14.8107 7.16564 14.9235 7.99693 14.9235C8.16664 14.9235 8.3351 14.9169 8.5023 14.9081C8.3483 14.4317 8.26313 13.9307 8.26313 13.4128C8.26376 10.2533 11.3315 7.69214 15.113 7.69214ZM10.614 5.48051C11.1976 5.48051 11.669 5.93623 11.669 6.49911C11.669 7.06106 11.197 7.51771 10.614 7.51771C10.0304 7.51771 9.55861 7.06106 9.55861 6.49911C9.5583 5.93654 10.0304 5.48051 10.614 5.48051ZM5.38081 7.51866C4.79718 7.51866 4.32544 7.062 4.32544 6.50006C4.32544 5.93654 4.79781 5.48146 5.38081 5.48146C5.96476 5.48146 6.43776 5.93717 6.43776 6.50006C6.43776 7.06169 5.96476 7.51866 5.38081 7.51866ZM21.5216 13.4499C21.5216 10.5264 18.6779 8.15634 15.1702 8.15634C11.6618 8.15634 8.81658 10.5261 8.81658 13.4499C8.81658 16.3737 11.6612 18.7443 15.1702 18.7443C15.8723 18.7443 16.548 18.6491 17.1797 18.4731C17.2156 18.4637 17.2872 18.442 17.2872 18.442L19.5828 19.6086L18.9693 17.6927C18.9693 17.6927 19.0086 17.6682 19.0277 17.6563C20.5435 16.6886 21.5216 15.1649 21.5216 13.4499ZM12.9595 12.4881C12.467 12.4881 12.0676 12.1025 12.0676 11.6267C12.0676 11.1518 12.467 10.7671 12.9595 10.7671C13.4526 10.7671 13.8521 11.1521 13.8521 11.6267C13.8518 12.1025 13.4523 12.4881 12.9595 12.4881ZM17.3793 12.4881C16.8868 12.4881 16.4877 12.1025 16.4877 11.6267C16.4877 11.1518 16.8865 10.7671 17.3793 10.7671C17.8727 10.7671 18.2719 11.1521 18.2719 11.6267C18.2719 12.1025 17.873 12.4881 17.3793 12.4881Z" fill="#575757"/>
</svg>
