<?xml version="1.0" standalone="no"?><!DOCTYPE svg PUBLIC "-//W3C//DTD SVG 1.1//EN" "http://www.w3.org/Graphics/SVG/1.1/DTD/svg11.dtd"><svg t="1656150771194" class="icon" viewBox="0 0 1316 1024" version="1.1" xmlns="http://www.w3.org/2000/svg" p-id="1841" xmlns:xlink="http://www.w3.org/1999/xlink" width="257.03125" height="200"><defs><style type="text/css">@font-face { font-family: feedback-iconfont; src: url("//at.alicdn.com/t/font_1031158_u69w8yhxdu.woff2?t=1630033759944") format("woff2"), url("//at.alicdn.com/t/font_1031158_u69w8yhxdu.woff?t=1630033759944") format("woff"), url("//at.alicdn.com/t/font_1031158_u69w8yhxdu.ttf?t=1630033759944") format("truetype"); }
</style></defs><path d="M853.723429 936.557714L685.165714 539.428571c-66.852571 130.852571-140.580571 267.446857-203.995428 397.129143-0.585143 0.585143-30.866286 0-30.866286-0.585143-96.585143-225.718857-197.705143-449.718857-294.290286-675.986285-23.442286-54.857143-101.705143-144.018286-155.428571-143.433143C0.585143 110.262857 0 96 0 87.405714h333.129143v28.562286c-39.424 2.304-108.580571 27.428571-89.161143 70.290286 45.129143 102.290286 213.138286 494.299429 258.304 593.700571 30.866286-61.147429 118.857143-224.585143 154.843429-293.705143-28.562286-58.294857-120.576-275.419429-149.723429-329.142857-20.004571-36.571429-74.276571-40.009143-114.870857-40.557714v-28.562286l293.156571 0.585143v26.843429c-40.009143 1.133714-78.299429 16.018286-60.562285 53.723428 38.838857 82.285714 62.866286 139.995429 98.852571 215.442286 11.446857-22.272 71.424-142.848 98.852571-207.433143 18.285714-42.276571-8.009143-58.843429-79.433142-60.562286 0.585143-7.424 0-21.138286 0.585142-28.013714 91.428571-0.585143 228.571429-0.585143 253.147429-1.133714v28.013714c-46.299429 1.718857-94.281143 26.294857-119.442286 65.133714l-121.709714 252.562286c13.129143 33.133714 130.304 293.705143 142.299429 322.304l252.013714-581.156571c-17.700571-47.433143-74.861714-57.709714-97.133714-58.294858v-28.562285l262.838857 2.304 0.585143 1.133714-0.585143 25.161143c-57.709714 1.718857-92.562286 32.585143-114.870857 82.870857-51.419429 118.857143-212.553143 493.714286-319.414858 737.718857h-28.013714z" fill="" p-id="1842"></path></svg>